<svg width="222" height="29" viewBox="0 0 222 29" fill="none" xmlns="http://www.w3.org/2000/svg">
<path fill-rule="evenodd" clip-rule="evenodd" d="M73.3014 0H51.0233L44.7866 6.21113V20.7026L51.0233 26.9127H73.3014L79.5381 20.7026V6.21113L73.3014 0ZM71.3898 19.6072C71.2004 19.7952 70.5442 20.4491 70.3564 20.6356H53.9678C53.7799 20.4491 53.1243 19.7952 52.9344 19.6072V7.30648C53.1243 7.11795 53.7799 6.4651 53.9678 6.27813H70.3564C70.5442 6.4651 71.2004 7.11795 71.3898 7.30648V19.6072Z" fill="white"/>
<path fill-rule="evenodd" clip-rule="evenodd" d="M106.416 0V10.5271H91.2412V0H83.0718V27.7618L91.2412 25.5592V16.438H106.416V26.9127H114.588V0H106.416Z" fill="white"/>
<path fill-rule="evenodd" clip-rule="evenodd" d="M179.291 0C179.291 0 170.027 16.8774 169.277 18.2444C168.526 16.8774 159.264 0 159.264 0H150.974L165.546 26.9127H173.146L187.718 0H179.291Z" fill="white"/>
<mask id="mask0" mask-type="alpha" maskUnits="userSpaceOnUse" x="0" y="0" width="222" height="29">
<path d="M0 0H222V29H0V0Z" fill="white"/>
</mask>
<g mask="url(#mask0)">
<path fill-rule="evenodd" clip-rule="evenodd" d="M144.294 0.00103874H144.273L144.272 0H123.984L117.746 6.21373V27.7623L125.917 25.5597V19.145H142.36V26.9132H150.533V6.21373L144.294 0.00103874ZM142.36 13.234H125.917V7.30752C126.1 7.12522 126.714 6.51444 126.925 6.3041H141.353C141.565 6.51444 142.178 7.12522 142.36 7.30752V13.234Z" fill="white"/>
<path fill-rule="evenodd" clip-rule="evenodd" d="M31.4732 0C31.4732 0 21.194 14.2338 20.4938 15.2045C19.7906 14.2364 9.44662 0 9.44662 0H0V28.9995L1.59332 28.5985L8.74129 26.8124V11.2771C10.1431 13.219 17.7222 23.7191 17.7222 23.7191H23.2515C23.2515 23.7191 30.8957 13.2003 32.2981 11.2708V26.9111H41.0388V0H31.4732Z" fill="white"/>
<path fill-rule="evenodd" clip-rule="evenodd" d="M198.877 16.4385H215.82L218.117 10.5271H198.877V6.30358H219.717L222 0H190.704V26.9127H218.528L220.811 20.6101H198.877V16.4385Z" fill="white"/>
<path fill-rule="evenodd" clip-rule="evenodd" d="M31.9677 0.724609C31.6965 1.10011 20.7523 16.2558 20.7523 16.2558C20.7523 16.2558 9.73979 1.09804 9.46812 0.724609H0.722168V28.6604C1.19152 28.5425 1.73798 28.4054 1.73798 28.4054C1.73798 28.4054 7.89756 26.867 8.53458 26.7071V10.0977C8.53458 10.0977 17.947 23.138 18.2167 23.5114H23.273C23.5426 23.1406 33.0197 10.0997 33.0197 10.0997V26.704H40.8321V0.724609H31.9677Z" fill="white"/>
<path fill-rule="evenodd" clip-rule="evenodd" d="M72.6457 0.724609H50.7506C50.4965 0.977542 45.0438 6.40754 44.7866 6.66359V20.7676C45.0438 21.0241 50.496 26.4526 50.7501 26.7055C51.1227 26.7055 72.2731 26.706 72.6457 26.706C72.8998 26.4531 78.3525 21.0241 78.6097 20.7676V6.66359C78.3525 6.40754 72.8998 0.977542 72.6457 0.724609ZM71.3898 20.0597L70.0832 21.3607H53.3121L53.176 21.2251L52.006 20.0592V7.37201L53.3116 6.07151L70.0832 6.07099L71.3898 7.37201V20.0597Z" fill="white"/>
<path fill-rule="evenodd" clip-rule="evenodd" d="M106.416 0.724609V11.2517H90.3144V0.724609H83.0718V27.4129C84.0348 27.1532 89.7302 25.6174 90.3144 25.4601V16.2309H106.416V26.7055H113.66V0.724609H106.416Z" fill="white"/>
<path fill-rule="evenodd" clip-rule="evenodd" d="M144.36 0.724609H124.433C124.18 0.977542 118.724 6.41014 118.468 6.66567V27.4129C119.43 27.1532 125.127 25.618 125.71 25.4606V18.9373H143.083V26.7055H150.326V6.66567C150.07 6.41014 144.613 0.975984 144.36 0.724609ZM143.083 13.9576H125.71V7.37201L126.992 6.09592H141.802L143.083 7.37201V13.9576Z" fill="white"/>
<path fill-rule="evenodd" clip-rule="evenodd" d="M179.508 0.724609C179.25 1.19412 169.219 19.4692 169.219 19.4692C169.219 19.4692 159.19 1.19412 158.932 0.724609H151.696C152.398 2.02043 165.512 26.2396 165.765 26.7055H172.812C173.064 26.2396 186.178 2.02043 186.88 0.724609H179.508Z" fill="white"/>
<path fill-rule="evenodd" clip-rule="evenodd" d="M198.67 16.2309H215.76C215.944 15.7562 217.324 12.2073 217.696 11.2517H198.67V6.09644H219.65C219.83 5.59837 221.247 1.68492 221.595 0.724609H191.427V26.705H218.46C218.641 26.2074 220.058 22.2945 220.405 21.3342H198.67V16.2309Z" fill="white"/>
</g>
</svg>
