<svg width="227" height="40" viewBox="0 0 227 40" fill="none" xmlns="http://www.w3.org/2000/svg">
<path d="M0 0.789705V25.7144H12.9987V5.98868H38.1646C40.6587 5.98868 41.4142 7.42494 41.4142 8.70938C41.4142 9.99382 40.4322 11.3554 38.014 11.3554C35.5945 11.3554 14.5708 11.3456 14.5708 11.3456C14.5708 11.3456 41.1118 27.376 43.7566 28.8882C46.4026 30.3991 47.785 30.5509 50.6343 30.5509C53.9684 30.5509 57.7385 30.5326 59.4012 30.5509C60.6979 30.5644 60.8975 29.6449 60.0049 29.1147C59.6327 28.893 57.1471 27.4017 53.9721 25.5577C47.7446 21.9419 38.9666 16.8935 38.9666 16.8935H42.3962C44.4374 16.8935 46.0047 16.9095 47.9699 16.607C49.9351 16.3046 52.2971 15.0581 52.9007 12.7145C53.5056 10.3722 53.5056 7.19842 53.1284 5.3838C52.7501 3.57041 51.5783 2.34229 49.8788 1.6811C48.2686 1.05541 47.3234 0.951331 45.0422 0.849702C42.0203 0.716238 0 0.789705 0 0.789705Z" fill="white"/>
<path d="M62.575 25.5626H75.2173V2.81494H62.575V25.5626Z" fill="white"/>
<path d="M122.642 18.173C122.337 19.4244 121.729 19.8688 119.635 20.1517C118.08 20.3623 100.493 20.2729 99.0473 20.1517C97.6013 20.0305 96.1932 19.0203 96.0781 17.5265C95.9642 16.0327 95.8981 11.779 96.0781 10.5802C96.383 8.56114 97.6013 8.15585 100.302 7.99545C102.699 7.85219 117.846 7.71261 120.891 8.23789C121.849 8.40197 122.642 9.16602 122.832 10.5802C123.022 11.9932 122.946 16.9204 122.642 18.173ZM135.958 7.65628C135.579 5.01027 133.935 3.6842 132.102 3.27279C126.126 1.9308 95.9764 2.55037 91.2171 2.81974C85.8516 3.12096 83.4333 3.87766 82.8284 7.65628C82.4697 9.89946 82.6019 17.8583 82.8284 20.6549C83.0549 23.4503 85.8516 25.3396 88.7229 25.5662C91.5954 25.7927 126.52 25.9604 129.609 25.5662C133.766 25.0372 134.954 23.9377 135.579 21.8635C136.278 19.5468 136.334 10.3011 135.958 7.65628Z" fill="white"/>
<path fill-rule="evenodd" clip-rule="evenodd" d="M156.082 0.470185C155.837 0.862006 156.062 1.2122 156.062 1.2122L167.682 16.3585C167.682 16.3585 168.216 16.934 168.062 17.9674C167.911 18.9996 167.087 19.3768 167.087 19.3768L133.45 38.6801C133.45 38.6801 133.055 38.9249 133.199 39.4576C133.34 39.989 133.885 40 133.885 40H154.941C154.941 40 156.805 39.8874 158.16 39.5298C159.849 39.0841 161.106 38.3727 161.106 38.3727L176.973 29.3535C176.973 29.3535 177.327 29.1539 177.626 29.2813C178.012 29.4478 178.365 29.9498 178.365 29.9498L185.217 38.3372C185.217 38.3372 185.876 39.0939 186.716 39.4931C187.6 39.9155 188.669 39.9816 188.669 39.9816L211.93 39.9449C211.93 39.9449 212.285 39.9192 212.51 39.5653C212.733 39.2127 212.492 38.8245 212.492 38.8245L197.543 20.3171C197.543 20.3171 197.063 19.7135 197.145 18.7437C197.229 17.774 198.138 17.2793 198.138 17.2793L226.696 1.33831C226.696 1.33831 226.951 1.0322 226.823 0.560793C226.696 0.0893839 226.28 0 226.28 0L204.376 0.0550998C204.376 0.0550998 203.175 0.0869352 202.025 0.379576C200.906 0.666095 199.837 1.2122 199.837 1.2122L187.151 8.11681C187.151 8.11681 186.847 8.2466 186.59 8.18783C186.33 8.13028 186.12 7.88172 186.12 7.88172L180.97 1.08485C180.97 1.08485 180.604 0.593853 180.136 0.362434C179.587 0.0906087 178.926 0.0734664 178.926 0.0734664L156.696 0.0906085C156.696 0.0906085 156.323 0.0783641 156.082 0.470185ZM160.018 2.62625C159.988 2.69114 160.037 2.80747 160.037 2.80747L170.666 16.7796C170.666 16.7796 171.259 17.5105 171.1 18.5685C170.939 19.6264 169.98 20.1774 169.98 20.1774L140.534 37.1848C140.534 37.1848 140.443 37.2338 140.462 37.3661C140.484 37.4983 140.644 37.5105 140.644 37.5105H151.038C151.038 37.5105 151.828 37.4799 152.521 37.2938C153.305 37.0832 154 36.7159 154 36.7159L175.203 24.9845C175.203 24.9845 175.703 24.7115 176.359 24.8229C177.014 24.9331 177.409 25.4547 177.409 25.4547L185.74 35.7571C185.74 35.7571 186.459 36.5714 187.258 36.9497C188.245 37.4199 189.355 37.475 189.355 37.475L202.206 37.4567C202.206 37.4567 202.319 37.431 202.351 37.3661C202.383 37.2963 202.333 37.1848 202.333 37.1848L188.217 19.526C188.217 19.526 187.691 18.9774 187.854 18.0983C188.02 17.2191 188.74 16.8873 188.74 16.8873L213.774 2.7891C213.774 2.7891 213.883 2.67155 213.845 2.57237C213.808 2.47442 213.682 2.48177 213.682 2.48177L203.526 2.50013C203.526 2.50013 203.002 2.48177 202.476 2.60911C201.919 2.7438 201.357 3.02419 201.357 3.02419L184.691 11.9712C184.691 11.9712 183.881 12.3275 183.136 12.1708C182.475 12.0299 181.872 11.3749 181.872 11.3749L176.45 4.29026C176.45 4.29026 175.713 3.38908 174.948 3.00583C173.971 2.51605 172.908 2.5185 172.908 2.5185H160.181C160.181 2.5185 160.059 2.54789 160.018 2.62625Z" fill="white"/>
</svg>
