<svg width="181" height="54" viewBox="0 0 181 54" fill="none" xmlns="http://www.w3.org/2000/svg">
<g clip-path="url(#clip0)">
<path d="M173.335 53.0029H6.66813C2.9348 53.0029 0.00146484 49.9554 0.00146484 46.3779V6.62793C0.00146484 2.91793 3.06813 0.00292969 6.66813 0.00292969H173.335C177.068 0.00292969 180.001 3.05043 180.001 6.62793V46.3779C180.001 49.9554 177.068 53.0029 173.335 53.0029Z" fill="#05141F"/>
<path d="M91.0638 29.1213C87.8582 29.1213 85.3203 31.4645 85.3203 34.7189C85.3203 37.8432 87.8582 40.3165 91.0638 40.3165C94.2695 40.3165 96.8073 37.9733 96.8073 34.7189C96.8073 31.3343 94.2695 29.1213 91.0638 29.1213ZM91.0638 37.9733C89.3274 37.9733 87.8582 36.5414 87.8582 34.5887C87.8582 32.6361 89.3274 31.2041 91.0638 31.2041C92.8002 31.2041 94.2695 32.5059 94.2695 34.5887C94.2695 36.5414 92.8002 37.9733 91.0638 37.9733ZM78.6418 29.1213C75.4362 29.1213 72.8983 31.4645 72.8983 34.7189C72.8983 37.8432 75.4362 40.3165 78.6418 40.3165C81.8475 40.3165 84.3853 37.9733 84.3853 34.7189C84.3853 31.3343 81.8475 29.1213 78.6418 29.1213ZM78.6418 37.9733C76.9054 37.9733 75.4362 36.5414 75.4362 34.5887C75.4362 32.6361 76.9054 31.2041 78.6418 31.2041C80.3783 31.2041 81.8475 32.5059 81.8475 34.5887C81.8475 36.5414 80.3783 37.9733 78.6418 37.9733ZM63.8156 30.8136V33.1568H69.5591C69.4255 34.4586 68.8913 35.5 68.2234 36.1509C67.422 36.9319 66.0863 37.8432 63.8156 37.8432C60.2092 37.8432 57.5378 35.1094 57.5378 31.5946C57.5378 28.0799 60.3428 25.3461 63.8156 25.3461C65.6856 25.3461 67.1548 26.1272 68.2234 27.0384L69.9598 25.3461C68.4905 24.0443 66.6206 23.0029 63.9492 23.0029C59.1407 23.0029 55 26.9083 55 31.5946C55 36.281 59.1407 40.1864 63.9492 40.1864C66.6206 40.1864 68.4905 39.4053 70.0934 37.713C71.6962 36.1509 72.2305 33.9378 72.2305 32.2455C72.2305 31.7248 72.2305 31.2041 72.0969 30.8136H63.8156ZM124.456 32.6361C123.922 31.3343 122.586 29.1213 119.648 29.1213C116.709 29.1213 114.305 31.3343 114.305 34.7189C114.305 37.8432 116.709 40.3165 119.915 40.3165C122.453 40.3165 124.056 38.7544 124.59 37.8432L122.72 36.5414C122.052 37.4526 121.251 38.1035 119.915 38.1035C118.579 38.1035 117.778 37.5828 117.11 36.4112L124.723 33.287L124.456 32.6361ZM116.709 34.4586C116.709 32.3757 118.446 31.2041 119.648 31.2041C120.583 31.2041 121.518 31.7248 121.785 32.3757L116.709 34.4586ZM110.431 39.7958H112.969V23.5236H110.431V39.7958ZM106.424 30.2929C105.757 29.642 104.688 28.9911 103.352 28.9911C100.547 28.9911 97.8759 31.4645 97.8759 34.5887C97.8759 37.713 100.414 40.0562 103.352 40.0562C104.688 40.0562 105.757 39.4053 106.291 38.7544H106.424V39.5355C106.424 41.6183 105.222 42.7899 103.352 42.7899C101.883 42.7899 100.814 41.7485 100.547 40.8372L98.4102 41.7485C99.078 43.1804 100.681 45.0029 103.486 45.0029C106.424 45.0029 108.829 43.3106 108.829 39.2751V29.3816H106.424V30.2929ZM103.486 37.9733C101.749 37.9733 100.28 36.5414 100.28 34.5887C100.28 32.6361 101.749 31.2041 103.486 31.2041C105.222 31.2041 106.558 32.6361 106.558 34.5887C106.558 36.5414 105.222 37.9733 103.486 37.9733ZM136.077 23.5236H130.066V39.7958H132.604V33.6775H136.077C138.882 33.6775 141.553 31.7248 141.553 28.6006C141.553 25.4763 138.882 23.5236 136.077 23.5236ZM136.21 31.3343H132.604V25.7367H136.21C138.08 25.7367 139.149 27.2988 139.149 28.4704C139.015 29.9023 137.947 31.3343 136.21 31.3343ZM151.571 28.9911C149.701 28.9911 147.831 29.7722 147.163 31.4645L149.434 32.3757C149.968 31.4645 150.77 31.2041 151.704 31.2041C153.04 31.2041 154.242 31.9852 154.376 33.287V33.4171C153.975 33.1568 152.907 32.7662 151.838 32.7662C149.434 32.7662 147.03 34.068 147.03 36.4112C147.03 38.6242 149.033 40.0562 151.17 40.0562C152.907 40.0562 153.708 39.2751 154.376 38.4941H154.509V39.7958H156.914V33.5473C156.647 30.6834 154.376 28.9911 151.571 28.9911ZM151.304 37.9733C150.502 37.9733 149.3 37.5828 149.3 36.5414C149.3 35.2396 150.77 34.8491 151.972 34.8491C153.04 34.8491 153.574 35.1094 154.242 35.3698C153.975 36.9319 152.639 37.9733 151.304 37.9733ZM165.329 29.3816L162.524 36.4112H162.39L159.452 29.3816H156.78L161.188 39.2751L158.65 44.7426H161.188L168 29.3816H165.329ZM142.889 39.7958H145.427V23.5236H142.889V39.7958Z" fill="white"/>
<path d="M13.8659 9.93994C13.4659 10.3374 13.1992 10.9999 13.1992 11.7949V41.0774C13.1992 41.8724 13.4659 42.535 13.8659 42.9324L13.9992 43.0649L30.5326 26.6349V26.5024V26.3699L13.8659 9.93994Z" fill="url(#paint0_linear)"/>
<path d="M35.998 32.201L30.5314 26.7685V26.5035V26.371L35.998 20.9385L36.1314 21.071L42.6647 24.781C44.5314 25.841 44.5314 27.5635 42.6647 28.6235L35.998 32.201Z" fill="url(#paint1_linear)"/>
<path d="M36.1307 32.0684L30.5307 26.5034L13.864 43.0659C14.5307 43.7284 15.464 43.7284 16.664 43.1984L36.1307 32.0684Z" fill="url(#paint2_linear)"/>
<path d="M36.1307 20.9384L16.664 9.94093C15.464 9.27843 14.5307 9.41093 13.864 10.0734L30.5307 26.5034L36.1307 20.9384Z" fill="url(#paint3_linear)"/>
<path opacity="0.2" d="M35.9968 31.9363L16.6635 42.8013C15.5969 43.4638 14.6635 43.3313 13.9969 42.8013L13.8635 42.9338L13.9969 43.0663C14.6635 43.5963 15.5969 43.7288 16.6635 43.0663L35.9968 31.9363Z" fill="#05141F"/>
<path opacity="0.12" d="M13.8663 42.8013C13.4669 42.4038 13.3337 41.7413 13.3337 40.9463V41.0788C13.3337 41.8738 13.6 42.5363 13.9995 42.9338V42.8013H13.8663Z" fill="#05141F"/>
<path opacity="0.12" d="M42.6681 28.2254L36.0015 31.9354L36.1348 32.0679L42.6681 28.3579C43.6015 27.8279 44.0015 27.1654 44.0015 26.5029C44.0015 27.1654 43.4681 27.6954 42.6681 28.2254Z" fill="#05141F"/>
<path opacity="0.25" d="M16.6672 10.0734L42.6672 24.7809C43.4672 25.3109 44.0005 25.8409 44.0005 26.5034C44.0005 25.8409 43.6005 25.1784 42.6672 24.6484L16.6672 9.94092C14.8005 8.88092 13.3339 9.80842 13.3339 11.9284V12.0609C13.3339 9.94092 14.8005 9.01342 16.6672 10.0734Z" fill="white"/>
</g>
<path d="M56.8378 12.4553H57.8929C58.0746 12.4774 58.2589 12.4625 58.4344 12.4117C58.6098 12.3608 58.7725 12.2752 58.9123 12.16C59.0521 12.0449 59.1659 11.9028 59.2465 11.7426C59.3271 11.5825 59.3728 11.4079 59.3807 11.2297C59.3807 10.5206 58.8331 10.0626 57.9045 10.0626C57.7184 10.0372 57.529 10.0485 57.3475 10.0957C57.1659 10.1428 56.9959 10.225 56.8475 10.3372C56.699 10.4495 56.5752 10.5896 56.4832 10.7492C56.3913 10.9089 56.3331 11.0849 56.3121 11.2668H55.1536C55.1736 10.9366 55.2631 10.6138 55.4166 10.3188C55.5701 10.0237 55.7843 9.76251 56.0458 9.55157C56.3074 9.34063 56.6107 9.18441 56.9369 9.09264C57.2631 9.00087 57.6053 8.97551 57.942 9.01815C59.4956 9.01815 60.5896 9.86563 60.5896 11.0856C60.5932 11.4943 60.4529 11.8919 60.192 12.2119C59.9311 12.5319 59.5654 12.7551 59.156 12.8442V12.9347C59.6413 12.9557 60.0984 13.1631 60.4273 13.5115C60.7562 13.8599 60.9302 14.321 60.9111 14.794C60.8752 15.134 60.77 15.4636 60.6016 15.7635C60.4333 16.0634 60.2052 16.3276 59.9307 16.5405C59.6562 16.7533 59.3408 16.9107 59.0031 17.0033C58.6654 17.0959 58.3121 17.1219 57.964 17.0797C57.6151 17.1261 57.2602 17.1035 56.9204 17.0134C56.5807 16.9232 56.2631 16.7674 55.9865 16.555C55.7099 16.3427 55.48 16.0783 55.3105 15.7776C55.141 15.4769 55.0354 15.146 55 14.8047H56.1765C56.2476 15.5402 56.9411 16.0146 57.964 16.0146C58.9868 16.0146 59.6545 15.4817 59.6545 14.7305C59.6545 13.9685 59.0255 13.4992 57.9265 13.4992H56.8378V12.4553Z" fill="white"/>
<path d="M62.2452 15.2548C62.2452 14.2104 63.0447 13.6082 64.4601 13.5227L66.0732 13.4321V12.9313C66.0732 12.3184 65.6586 11.9724 64.854 11.9724C64.198 11.9724 63.7447 12.2071 63.6129 12.6173H62.4751C62.5952 11.6207 63.5587 10.9814 64.9096 10.9814C66.4025 10.9814 67.2446 11.7056 67.2446 12.9313V16.8957H66.1119V16.0803H66.019C65.8302 16.3728 65.5652 16.6112 65.2509 16.7713C64.9367 16.9313 64.5845 17.0072 64.2303 16.9913C63.9803 17.0166 63.7276 16.9906 63.4885 16.915C63.2495 16.8393 63.0294 16.7157 62.8423 16.5521C62.6553 16.3885 62.5056 16.1886 62.4027 15.9651C62.2999 15.7416 62.2462 15.4997 62.2452 15.2548ZM66.0732 14.759V14.2739L64.6189 14.3645C63.7988 14.418 63.4269 14.6898 63.4269 15.2013C63.4269 15.7235 63.8918 16.0274 64.5312 16.0274C64.7185 16.0459 64.9077 16.0275 65.0876 15.9732C65.2675 15.919 65.4343 15.8301 65.5782 15.7117C65.722 15.5934 65.84 15.448 65.925 15.2844C66.0101 15.1207 66.0605 14.942 66.0732 14.759Z" fill="white"/>
<path d="M70.3645 12.0552V16.8935H69.1892V11.0913H73.1102V12.0551L70.3645 12.0552Z" fill="white"/>
<path d="M80.2298 13.992C80.2298 15.8355 79.2728 16.9913 77.7696 16.9913C77.4005 17.0159 77.032 16.9372 76.7073 16.7645C76.3827 16.5918 76.1154 16.3324 75.9369 16.0167H75.844V18.8247H74.6687V11.0934H75.8V12.0523H75.8879C76.0695 11.7256 76.3403 11.4541 76.6703 11.2679C77.0003 11.0818 77.3767 10.988 77.7579 10.9972C79.2728 10.9972 80.2298 12.1479 80.2298 13.992ZM79.021 13.992C79.021 12.7664 78.4256 12.0259 77.4299 12.0259C76.4407 12.0259 75.822 12.7821 75.822 13.9971C75.822 15.2063 76.4406 15.9632 77.4247 15.9632C78.4256 15.9632 79.021 15.2227 79.021 13.992Z" fill="white"/>
<path d="M81.7974 18.9717V17.9858C81.9245 18.0015 82.0527 18.0087 82.1809 18.0072C82.4313 18.0253 82.6797 17.9526 82.8785 17.8032C83.0772 17.6537 83.2124 17.438 83.258 17.1974L83.3458 16.9149L81.1903 11.0913H82.4702L83.9632 15.7H84.0562L85.5439 11.0913H86.7902L84.5702 17.1333C84.0613 18.5451 83.4983 18.9981 82.2843 18.9981C82.1861 18.9981 81.9071 18.9874 81.7974 18.9717Z" fill="white"/>
<path d="M87.7042 15.2467H88.8743C88.9892 15.7582 89.4813 16.0249 90.1697 16.0249C90.9523 16.0249 91.4327 15.689 91.4327 15.1668C91.4327 14.6074 91.0014 14.3407 90.1697 14.3407H89.2785V13.451H90.1542C90.8645 13.451 91.2261 13.1849 91.2261 12.6998C91.2261 12.2738 90.8761 11.9486 90.1542 11.9486C89.4968 11.9486 89.0164 12.2204 88.9401 12.6784H87.8075C87.8922 12.1521 88.1855 11.6792 88.6244 11.3614C89.0632 11.0436 89.6125 10.9063 90.1542 10.979C91.5696 10.979 92.3794 11.6025 92.3794 12.5828C92.386 12.8557 92.2962 13.1227 92.1251 13.3389C91.954 13.5551 91.7118 13.7075 91.4392 13.7707V13.8613C91.7638 13.9021 92.0617 14.0575 92.2765 14.2982C92.4912 14.5388 92.6078 14.8479 92.6041 15.1668C92.6041 16.2698 91.6407 16.9996 90.1697 16.9996C88.8691 16.9995 87.8127 16.4188 87.7042 15.2467Z" fill="white"/>
<path d="M94.2986 16.8931V11.0908H95.4635V15.0817H95.5565L98.3009 11.0908H99.4658V16.8931H98.3009V12.8808H98.2131L95.4635 16.8931L94.2986 16.8931Z" fill="white"/>
<path d="M105.882 12.0561H104.007V16.8945H102.83V12.0561H100.955V11.0923H105.882V12.0561Z" fill="white"/>
<path d="M112.207 15.3291C112.047 15.8594 111.7 16.318 111.229 16.6248C110.757 16.9316 110.189 17.0672 109.625 17.0078C109.233 17.0179 108.843 16.9446 108.483 16.7932C108.122 16.6418 107.8 16.4157 107.538 16.1308C107.276 15.8458 107.082 15.5088 106.967 15.1431C106.852 14.7774 106.821 14.3917 106.874 14.0129C106.822 13.6329 106.854 13.2465 106.969 12.8796C107.083 12.5128 107.277 12.1742 107.537 11.8868C107.798 11.5994 108.118 11.3698 108.478 11.2136C108.837 11.0574 109.227 10.9783 109.62 10.9815C111.277 10.9815 112.278 12.0845 112.278 13.9065V14.3061H108.073V14.3703C108.054 14.5833 108.081 14.7977 108.153 14.9998C108.224 15.2018 108.339 15.3871 108.488 15.5436C108.637 15.7002 108.819 15.8246 109.02 15.9087C109.222 15.9929 109.439 16.0351 109.659 16.0325C109.94 16.0652 110.224 16.0158 110.476 15.8906C110.728 15.7653 110.936 15.5699 111.074 15.3291L112.207 15.3291ZM108.073 13.4592H111.079C111.094 13.2646 111.067 13.0691 111 12.8853C110.932 12.7014 110.826 12.5333 110.689 12.3918C110.551 12.2503 110.384 12.1384 110.199 12.0633C110.014 11.9883 109.815 11.9518 109.615 11.9561C109.411 11.9535 109.21 11.9905 109.021 12.0651C108.833 12.1397 108.662 12.2503 108.518 12.3904C108.374 12.5306 108.261 12.6973 108.184 12.8809C108.108 13.0645 108.07 13.2611 108.073 13.4592H108.073Z" fill="white"/>
<path d="M117.199 11.0913H119.884C121.049 11.0913 121.733 11.6664 121.733 12.5667C121.734 12.8524 121.635 13.13 121.452 13.3531C121.269 13.5762 121.013 13.7313 120.727 13.7923V13.8829C121.074 13.9043 121.4 14.0551 121.637 14.304C121.874 14.5529 122.004 14.881 122 15.2205C122 16.2329 121.219 16.8935 119.912 16.8935H117.199V11.0913ZM118.364 11.9703V13.4727H119.529C120.24 13.4727 120.579 13.2066 120.579 12.7158C120.579 12.2634 120.284 11.9703 119.66 11.9703L118.364 11.9703ZM118.364 14.3146V16.0146H119.758C120.453 16.0146 120.825 15.7157 120.825 15.1671C120.825 14.5864 120.404 14.3146 119.611 14.3146L118.364 14.3146Z" fill="white"/>
<defs>
<linearGradient id="paint0_linear" x1="29.0655" y1="11.5428" x2="6.82924" y2="33.9189" gradientUnits="userSpaceOnUse">
<stop stop-color="#00A0FF"/>
<stop offset="0.00657445" stop-color="#00A1FF"/>
<stop offset="0.2601" stop-color="#00BEFF"/>
<stop offset="0.5122" stop-color="#00D2FF"/>
<stop offset="0.7604" stop-color="#00DFFF"/>
<stop offset="1" stop-color="#00E3FF"/>
</linearGradient>
<linearGradient id="paint1_linear" x1="45.1106" y1="26.5053" x2="12.848" y2="26.5053" gradientUnits="userSpaceOnUse">
<stop stop-color="#FFE000"/>
<stop offset="0.4087" stop-color="#FFBD00"/>
<stop offset="0.7754" stop-color="#FFA500"/>
<stop offset="1" stop-color="#FF9C00"/>
</linearGradient>
<linearGradient id="paint2_linear" x1="33.1" y1="29.5458" x2="2.94583" y2="59.8896" gradientUnits="userSpaceOnUse">
<stop stop-color="#FF3A44"/>
<stop offset="1" stop-color="#C31162"/>
</linearGradient>
<linearGradient id="paint3_linear" x1="9.72708" y1="0.236897" x2="23.1923" y2="13.7866" gradientUnits="userSpaceOnUse">
<stop stop-color="#32A071"/>
<stop offset="0.0685" stop-color="#2DA771"/>
<stop offset="0.4762" stop-color="#15CF74"/>
<stop offset="0.8009" stop-color="#06E775"/>
<stop offset="1" stop-color="#00F076"/>
</linearGradient>
<clipPath id="clip0">
<rect width="180" height="53" fill="white" transform="translate(0.00146484 0.00292969)"/>
</clipPath>
</defs>
</svg>
