<svg width="181" height="54" viewBox="0 0 181 54" fill="none" xmlns="http://www.w3.org/2000/svg">
<path d="M165.667 0.00310194H14.3436C13.792 0.00310194 13.2471 0.00310194 12.6969 0.00575193C12.2364 0.00840192 11.7796 0.0161001 11.3146 0.0225794C10.3046 0.0330492 9.2969 0.111323 8.30035 0.256719C7.3052 0.405281 6.34122 0.685363 5.44102 1.08749C4.54192 1.49302 3.72039 2.01997 3.00623 2.64921C2.28832 3.27669 1.68989 4.00196 1.23394 4.79715C0.776736 5.59075 0.459708 6.44117 0.293808 7.31904C0.126331 8.1958 0.0362097 9.08266 0.0242536 9.97168C0.0102946 10.3779 0.00882044 10.7855 0.00146484 11.1918V41.8181C0.00882044 42.2295 0.0102946 42.6281 0.0242536 43.0396C0.0362133 43.9286 0.126334 44.8154 0.293808 45.6921C0.45925 46.5705 0.776296 47.4214 1.23394 48.2153C1.68968 49.0079 2.2882 49.7303 3.00623 50.3543C3.71769 50.9863 4.53975 51.5136 5.44102 51.916C6.34121 52.3192 7.30509 52.601 8.30035 52.7518C9.29707 52.8961 10.3046 52.9744 11.3146 52.9861C11.7796 52.9951 12.2364 53.0003 12.6969 53.0003C13.2471 53.0029 13.7921 53.0029 14.3436 53.0029H165.667C166.208 53.0029 166.757 53.0029 167.298 53.0003C167.756 53.0003 168.226 52.9951 168.685 52.9861C169.693 52.975 170.698 52.8967 171.693 52.7518C172.692 52.5999 173.659 52.3183 174.563 51.916C175.464 51.5134 176.285 50.9861 176.996 50.3543C177.712 49.7278 178.312 49.006 178.773 48.2153C179.228 47.4208 179.542 46.57 179.705 45.6921C179.872 44.8153 179.966 43.9287 179.984 43.0396C179.99 42.6281 179.99 42.2295 179.99 41.8181C180.001 41.3367 180.001 40.858 180.001 40.3688V12.6384C180.001 12.1532 180.001 11.6719 179.99 11.1918C179.99 10.7855 179.99 10.3779 179.984 9.97163C179.966 9.08253 179.872 8.19586 179.705 7.31899C179.541 6.44163 179.227 5.59128 178.773 4.7971C177.845 3.20323 176.373 1.90583 174.563 1.08737C173.659 0.686226 172.691 0.406219 171.693 0.2566C170.699 0.110563 169.693 0.0322621 168.685 0.0223939C168.226 0.0159279 167.756 0.00816342 167.298 0.00557968C166.757 0.00292969 166.208 0.00292969 165.667 0.00292969V0.00310194Z" fill="#05141F"/>
<path d="M33.0454 26.423C33.06 25.3115 33.3603 24.2217 33.9185 23.2549C34.4766 22.2882 35.2745 21.476 36.2378 20.8938C35.6258 20.0346 34.8185 19.3276 33.8799 18.8288C32.9414 18.33 31.8975 18.0533 30.8311 18.0205C28.5563 17.7857 26.3509 19.3586 25.1917 19.3586C24.0101 19.3586 22.2253 18.0438 20.3034 18.0826C19.0603 18.1221 17.8487 18.4775 16.7869 19.1141C15.725 19.7507 14.8489 20.6469 14.2441 21.7153C11.6242 26.1743 13.5784 32.7275 16.0881 36.3318C17.3437 38.0968 18.8112 40.0682 20.7314 39.9983C22.6104 39.9217 23.3122 38.8205 25.5803 38.8205C27.8273 38.8205 28.4857 39.9983 30.4449 39.9539C32.4611 39.9217 33.7315 38.1811 34.9431 36.3995C35.8452 35.1419 36.5394 33.752 37 32.2812C35.8286 31.7942 34.829 30.979 34.1257 29.9372C33.4225 28.8955 33.0468 27.6732 33.0454 26.423Z" fill="white"/>
<path d="M29.3453 15.6484C30.4446 14.351 30.9862 12.6835 30.8551 11C29.1755 11.1734 27.6241 11.9625 26.5099 13.2101C25.9651 13.8195 25.5479 14.5286 25.282 15.2966C25.0162 16.0647 24.9069 16.8767 24.9605 17.6863C25.8006 17.6948 26.6317 17.5158 27.3912 17.1628C28.1507 16.8098 28.8188 16.292 29.3453 15.6484Z" fill="white"/>
<path d="M56.4913 36.455H50.1853L48.671 40.967H46L51.9729 24.2737H54.7479L60.7208 40.967H58.0043L56.4913 36.455ZM50.8384 34.3729H55.8369L53.3728 27.0502H53.3039L50.8384 34.3729Z" fill="white"/>
<path d="M73.6187 34.8868C73.6187 38.6689 71.6125 41.0988 68.5851 41.0988C67.8182 41.1393 67.0555 40.9611 66.3843 40.5845C65.7131 40.2079 65.1606 39.6482 64.7901 38.9695H64.7328V44.9978H62.257V28.8007H64.6534V30.825H64.699C65.0866 30.1496 65.6484 29.5928 66.3247 29.2139C67.001 28.835 67.7664 28.6482 68.5395 28.6734C71.6007 28.6734 73.6187 31.1152 73.6187 34.8868ZM71.0739 34.8868C71.0739 32.4227 69.8119 30.8027 67.8864 30.8027C65.9948 30.8027 64.7224 32.4568 64.7224 34.8868C64.7224 37.339 65.9948 38.9813 67.8864 38.9813C69.8119 38.9813 71.0739 37.3732 71.0739 34.8868Z" fill="white"/>
<path d="M86.8967 34.8868C86.8967 38.6689 84.8906 41.0988 81.8632 41.0988C81.0963 41.1393 80.3336 40.9611 79.6624 40.5845C78.9912 40.2079 78.4387 39.6482 78.0681 38.9695H78.0108V44.9978H75.535V28.8007H77.9315V30.825H77.977C78.3646 30.1496 78.9265 29.5928 79.6027 29.2139C80.279 28.835 81.0445 28.6482 81.8176 28.6734C84.8789 28.6734 86.8967 31.1151 86.8967 34.8868ZM84.352 34.8868C84.352 32.4227 83.09 30.8027 81.1645 30.8027C79.2728 30.8027 78.0005 32.4568 78.0005 34.8868C78.0005 37.339 79.2728 38.9813 81.1645 38.9813C83.09 38.9813 84.352 37.3732 84.352 34.8868H84.352Z" fill="white"/>
<path d="M95.664 36.3183C95.8475 37.9737 97.4412 39.0606 99.6191 39.0606C101.706 39.0606 103.207 37.9737 103.207 36.481C103.207 35.1853 102.302 34.4095 100.158 33.8778L98.0137 33.3566C94.9758 32.6162 93.5655 31.1826 93.5655 28.8564C93.5655 25.9762 96.053 23.9978 99.5853 23.9978C103.081 23.9978 105.477 25.9762 105.558 28.8564H103.059C102.909 27.1905 101.545 26.1849 99.5501 26.1849C97.5557 26.1849 96.1909 27.2023 96.1909 28.6831C96.1909 29.8633 97.0626 30.5578 99.1949 31.0894L101.018 31.541C104.412 32.351 105.822 33.7268 105.822 36.1685C105.822 39.2916 103.357 41.2477 99.4356 41.2477C95.7668 41.2477 93.2897 39.3376 93.1296 36.3182L95.664 36.3183Z" fill="white"/>
<path d="M111.172 25.9177V28.798H113.466V30.7763H111.172V37.4859C111.172 38.5283 111.631 39.014 112.64 39.014C112.912 39.0092 113.184 38.9899 113.454 38.9562V40.9227C113.001 41.0082 112.54 41.0469 112.079 41.0383C109.637 41.0383 108.685 40.1128 108.685 37.7524V30.7763H106.931V28.798H108.685V25.9177H111.172Z" fill="white"/>
<path d="M114.79 34.8844C114.79 31.055 117.025 28.6487 120.51 28.6487C124.007 28.6487 126.232 31.055 126.232 34.8844C126.232 38.7243 124.019 41.1201 120.51 41.1201C117.002 41.1201 114.79 38.7242 114.79 34.8844ZM123.709 34.8844C123.709 32.2575 122.516 30.7071 120.51 30.7071C118.504 30.7071 117.312 32.2693 117.312 34.8844C117.312 37.5217 118.504 39.0603 120.51 39.0603C122.516 39.0603 123.709 37.5217 123.709 34.8844H123.709Z" fill="white"/>
<path d="M128.279 28.8006H130.641V30.8722H130.698C130.858 30.2252 131.233 29.6534 131.762 29.253C132.29 28.8525 132.939 28.6478 133.599 28.6733C133.884 28.6723 134.169 28.7035 134.447 28.7665V31.1032C134.087 30.9922 133.711 30.9412 133.335 30.9523C132.975 30.9375 132.617 31.0015 132.284 31.1398C131.951 31.2781 131.652 31.4875 131.407 31.7535C131.162 32.0195 130.976 32.3359 130.864 32.681C130.752 33.026 130.714 33.3915 130.755 33.7524V40.9714H128.279L128.279 28.8006Z" fill="white"/>
<path d="M145.862 37.3944C145.529 39.6038 143.397 41.1201 140.668 41.1201C137.16 41.1201 134.982 38.7479 134.982 34.9421C134.982 31.1246 137.171 28.6487 140.564 28.6487C143.901 28.6487 146 30.9618 146 34.652V35.5079H137.481V35.6589C137.442 36.1068 137.497 36.5581 137.644 36.9826C137.791 37.4072 138.025 37.7954 138.332 38.1215C138.639 38.4475 139.011 38.704 139.424 38.8738C139.837 39.0436 140.28 39.1228 140.726 39.1063C141.311 39.1616 141.898 39.0249 142.4 38.7164C142.902 38.408 143.291 37.9443 143.511 37.3944L145.862 37.3944ZM137.493 33.762H143.523C143.545 33.3592 143.485 32.9562 143.345 32.5782C143.206 32.2001 142.99 31.8553 142.713 31.5652C142.435 31.2752 142.101 31.0462 141.731 30.8926C141.361 30.7391 140.964 30.6643 140.564 30.673C140.161 30.6706 139.762 30.7487 139.389 30.903C139.015 31.0572 138.676 31.2845 138.391 31.5717C138.105 31.8589 137.879 32.2003 137.725 32.5762C137.571 32.9521 137.492 33.3551 137.493 33.762V33.762Z" fill="white"/>
<path d="M48.9711 12.4553H50.0262C50.2079 12.4774 50.3922 12.4625 50.5677 12.4117C50.7431 12.3608 50.9058 12.2752 51.0456 12.16C51.1854 12.0449 51.2992 11.9028 51.3798 11.7426C51.4604 11.5825 51.5061 11.4079 51.514 11.2297C51.514 10.5206 50.9664 10.0626 50.0378 10.0626C49.8517 10.0372 49.6623 10.0485 49.4808 10.0957C49.2992 10.1428 49.1292 10.225 48.9808 10.3372C48.8323 10.4495 48.7085 10.5896 48.6165 10.7492C48.5246 10.9089 48.4664 11.0849 48.4454 11.2668H47.2869C47.3069 10.9366 47.3964 10.6138 47.5499 10.3188C47.7034 10.0237 47.9176 9.76251 48.1791 9.55157C48.4407 9.34063 48.744 9.18441 49.0702 9.09264C49.3965 9.00087 49.7386 8.97551 50.0753 9.01815C51.6289 9.01815 52.7229 9.86563 52.7229 11.0856C52.7265 11.4943 52.5862 11.8919 52.3253 12.2119C52.0644 12.5319 51.6987 12.7551 51.2893 12.8442V12.9347C51.7746 12.9557 52.2317 13.1631 52.5606 13.5115C52.8895 13.8599 53.0635 14.321 53.0444 14.794C53.0085 15.134 52.9033 15.4636 52.7349 15.7635C52.5666 16.0634 52.3385 16.3276 52.064 16.5405C51.7895 16.7533 51.4741 16.9107 51.1364 17.0033C50.7987 17.0959 50.4454 17.1219 50.0973 17.0797C49.7484 17.1261 49.3935 17.1035 49.0537 17.0134C48.714 16.9232 48.3964 16.7674 48.1198 16.555C47.8432 16.3427 47.6133 16.0783 47.4438 15.7776C47.2743 15.4769 47.1687 15.146 47.1333 14.8047H48.3098C48.3809 15.5402 49.0744 16.0146 50.0973 16.0146C51.1201 16.0146 51.7878 15.4817 51.7878 14.7305C51.7878 13.9685 51.1588 13.4992 50.0598 13.4992H48.9711V12.4553Z" fill="white"/>
<path d="M54.3785 15.2548C54.3785 14.2104 55.178 13.6082 56.5934 13.5227L58.2065 13.4321V12.9313C58.2065 12.3184 57.7919 11.9724 56.9873 11.9724C56.3313 11.9724 55.878 12.2071 55.7462 12.6173H54.6084C54.7285 11.6207 55.692 10.9814 57.0429 10.9814C58.5358 10.9814 59.3779 11.7056 59.3779 12.9313V16.8957H58.2452V16.0803H58.1523C57.9635 16.3728 57.6985 16.6112 57.3842 16.7713C57.07 16.9313 56.7178 17.0072 56.3636 16.9913C56.1136 17.0166 55.8609 16.9906 55.6218 16.915C55.3828 16.8393 55.1627 16.7157 54.9756 16.5521C54.7886 16.3885 54.6389 16.1886 54.536 15.9651C54.4332 15.7416 54.3795 15.4997 54.3785 15.2548ZM58.2065 14.759V14.2739L56.7522 14.3645C55.9321 14.418 55.5602 14.6898 55.5602 15.2013C55.5602 15.7235 56.0251 16.0274 56.6645 16.0274C56.8518 16.0459 57.041 16.0275 57.2209 15.9732C57.4008 15.919 57.5676 15.8301 57.7115 15.7117C57.8553 15.5934 57.9733 15.448 58.0583 15.2844C58.1434 15.1207 58.1938 14.942 58.2065 14.759Z" fill="white"/>
<path d="M62.4978 12.0552V16.8935H61.3225V11.0913H65.2435V12.0551L62.4978 12.0552Z" fill="white"/>
<path d="M72.3631 13.992C72.3631 15.8355 71.4061 16.9913 69.9029 16.9913C69.5338 17.0159 69.1653 16.9372 68.8406 16.7645C68.516 16.5918 68.2487 16.3324 68.0702 16.0167H67.9773V18.8247H66.802V11.0934H67.9333V12.0523H68.0212C68.2028 11.7256 68.4736 11.4541 68.8036 11.2679C69.1336 11.0818 69.51 10.988 69.8912 10.9972C71.4061 10.9972 72.3631 12.1479 72.3631 13.992ZM71.1543 13.992C71.1543 12.7664 70.5589 12.0259 69.5632 12.0259C68.574 12.0259 67.9553 12.7821 67.9553 13.9971C67.9553 15.2063 68.5739 15.9632 69.558 15.9632C70.5589 15.9632 71.1543 15.2227 71.1543 13.992Z" fill="white"/>
<path d="M73.9307 18.9717V17.9858C74.0578 18.0015 74.186 18.0087 74.3142 18.0072C74.5646 18.0253 74.813 17.9526 75.0118 17.8032C75.2105 17.6537 75.3457 17.438 75.3913 17.1974L75.4791 16.9149L73.3236 11.0913H74.6035L76.0965 15.7H76.1895L77.6772 11.0913H78.9235L76.7035 17.1333C76.1946 18.5451 75.6316 18.9981 74.4176 18.9981C74.3194 18.9981 74.0404 18.9874 73.9307 18.9717Z" fill="white"/>
<path d="M79.8375 15.2467H81.0076C81.1226 15.7582 81.6146 16.0249 82.303 16.0249C83.0856 16.0249 83.566 15.689 83.566 15.1668C83.566 14.6074 83.1347 14.3407 82.303 14.3407H81.4118V13.451H82.2875C82.9978 13.451 83.3594 13.1849 83.3594 12.6998C83.3594 12.2738 83.0094 11.9486 82.2875 11.9486C81.6301 11.9486 81.1497 12.2204 81.0734 12.6784H79.9408C80.0255 12.1521 80.3188 11.6792 80.7577 11.3614C81.1965 11.0436 81.7458 10.9063 82.2875 10.979C83.7029 10.979 84.5127 11.6025 84.5127 12.5828C84.5193 12.8557 84.4295 13.1227 84.2584 13.3389C84.0873 13.5551 83.8451 13.7075 83.5725 13.7707V13.8613C83.8971 13.9021 84.195 14.0575 84.4098 14.2982C84.6245 14.5388 84.7411 14.8479 84.7374 15.1668C84.7374 16.2698 83.774 16.9996 82.303 16.9996C81.0024 16.9995 79.946 16.4188 79.8375 15.2467Z" fill="white"/>
<path d="M86.4319 16.8931V11.0908H87.5968V15.0817H87.6898L90.4342 11.0908H91.5991V16.8931H90.4342V12.8808H90.3464L87.5968 16.8931L86.4319 16.8931Z" fill="white"/>
<path d="M98.0152 12.0561H96.14V16.8945H94.9634V12.0561H93.0881V11.0923H98.0152V12.0561Z" fill="white"/>
<path d="M104.34 15.3291C104.18 15.8594 103.834 16.318 103.362 16.6248C102.89 16.9316 102.322 17.0672 101.758 17.0078C101.366 17.0179 100.976 16.9446 100.616 16.7932C100.255 16.6418 99.9332 16.4157 99.6715 16.1308C99.4098 15.8458 99.2148 15.5088 99.1002 15.1431C98.9855 14.7774 98.9539 14.3917 99.0076 14.0129C98.9553 13.6329 98.9875 13.2465 99.1019 12.8796C99.2162 12.5128 99.4102 12.1742 99.6705 11.8868C99.9309 11.5994 100.252 11.3698 100.611 11.2136C100.97 11.0574 101.36 10.9783 101.753 10.9815C103.41 10.9815 104.411 12.0845 104.411 13.9065V14.3061H100.206V14.3703C100.187 14.5833 100.215 14.7977 100.286 14.9998C100.358 15.2018 100.472 15.3871 100.621 15.5436C100.771 15.7002 100.952 15.8246 101.154 15.9087C101.355 15.9929 101.573 16.0351 101.792 16.0325C102.073 16.0652 102.358 16.0158 102.61 15.8906C102.862 15.7653 103.07 15.5699 103.207 15.3291L104.34 15.3291ZM100.206 13.4592H103.213C103.227 13.2646 103.2 13.0691 103.133 12.8853C103.066 12.7014 102.96 12.5333 102.822 12.3918C102.684 12.2503 102.517 12.1384 102.332 12.0633C102.147 11.9883 101.948 11.9518 101.748 11.9561C101.545 11.9535 101.343 11.9905 101.155 12.0651C100.966 12.1397 100.795 12.2503 100.651 12.3904C100.508 12.5306 100.394 12.6973 100.318 12.8809C100.241 13.0645 100.203 13.2611 100.206 13.4592H100.206Z" fill="white"/>
<path d="M109.333 11.0913H112.018C113.183 11.0913 113.866 11.6664 113.866 12.5667C113.868 12.8524 113.769 13.13 113.586 13.3531C113.402 13.5762 113.146 13.7313 112.86 13.7923V13.8829C113.208 13.9043 113.534 14.0551 113.771 14.304C114.008 14.5529 114.137 14.881 114.133 15.2205C114.133 16.2329 113.352 16.8935 112.045 16.8935H109.333V11.0913ZM110.498 11.9703V13.4727H111.663C112.373 13.4727 112.713 13.2066 112.713 12.7158C112.713 12.2634 112.417 11.9703 111.793 11.9703L110.498 11.9703ZM110.498 14.3146V16.0146H111.891C112.586 16.0146 112.958 15.7157 112.958 15.1671C112.958 14.5864 112.537 14.3146 111.744 14.3146L110.498 14.3146Z" fill="white"/>
</svg>
