<svg width="50" height="50" viewBox="0 0 50 50" fill="none" xmlns="http://www.w3.org/2000/svg">
<path d="M9.5 45.5V46.5H8.66235L8.51549 45.6753L9.5 45.5ZM3 9L2.01549 9.17532L1.80619 8H3V9ZM18 37L18.054 37.9985L17.1391 38.048L17.01 37.141L18 37ZM36.5 45.5H37.5V46.5H36.5V45.5ZM11 19.5L11.7018 18.7876L11 19.5ZM8.07302 16.9165L7.32045 16.258L8.07302 16.9165ZM8.08819 17.0664L8.6916 16.269L8.08819 17.0664ZM29.1222 36.3988L29.1761 37.3973L29.1222 36.3988ZM8.51549 45.6753L2.01549 9.17532L3.98451 8.82468L10.4845 45.3247L8.51549 45.6753ZM3 8H4.48074V10H3V8ZM17.946 36.0015L29.0682 35.4003L29.1761 37.3973L18.054 37.9985L17.946 36.0015ZM37.5 43.3886V45.5H35.5V43.3886H37.5ZM36.5 46.5H9.5V44.5H36.5V46.5ZM8.6916 16.269C9.07253 16.5573 10.7007 17.8015 11.7018 18.7876L10.2982 20.2124C9.40433 19.3318 7.87946 18.1625 7.48478 17.8639L8.6916 16.269ZM11.7018 18.7876C14.5192 21.563 16.3257 26.1566 17.4259 29.9054C17.9836 31.8054 18.3736 33.5385 18.6244 34.7965C18.7499 35.4261 18.8408 35.9382 18.9005 36.2945C18.9304 36.4727 18.9525 36.612 18.9673 36.7076C18.9747 36.7555 18.9802 36.7924 18.984 36.8178C18.9859 36.8305 18.9873 36.8404 18.9883 36.8473C18.9888 36.8507 18.9892 36.8534 18.9895 36.8554C18.9896 36.8564 18.9897 36.8572 18.9898 36.8578C18.9899 36.8581 18.9899 36.8584 18.9899 36.8585C18.99 36.8588 18.99 36.859 18 37C17.01 37.141 17.01 37.1411 17.01 37.1412C17.01 37.1411 17.01 37.1412 17.01 37.1411C17.01 37.141 17.0099 37.1406 17.0099 37.1401C17.0097 37.1391 17.0095 37.1373 17.0091 37.1348C17.0084 37.1298 17.0072 37.1219 17.0056 37.1111C17.0024 37.0895 16.9975 37.0566 16.9907 37.0128C16.9772 36.9253 16.9565 36.7945 16.9281 36.6253C16.8713 36.2869 16.784 35.795 16.6629 35.1875C16.4205 33.9714 16.0438 32.298 15.5069 30.4687C14.4181 26.7588 12.7245 22.6025 10.2982 20.2124L11.7018 18.7876ZM8.8256 17.5751C9.16608 17.1859 9.1093 16.5851 8.6916 16.269L7.48478 17.8639C6.97168 17.4756 6.9012 16.7372 7.32045 16.258L8.8256 17.5751ZM29.0682 35.4003C33.6495 35.1526 37.5 38.8006 37.5 43.3886H35.5C35.5 39.9476 32.6121 37.2116 29.1761 37.3973L29.0682 35.4003ZM4.48074 8C9.44093 8 12.0919 13.8421 8.8256 17.5751L7.32045 16.258C9.45523 13.8183 7.72261 10 4.48074 10V8Z" fill="white"/>
<path d="M24 29.5L24.0322 30.4995L23.122 30.5288L23.0079 29.6253L24 29.5ZM18.5 16L17.7098 16.6129L18.5 16ZM15.7188 12.2977L14.9711 11.6336L15.7188 12.2977ZM15.7147 12.418L14.9255 13.0322L15.7147 12.418ZM34.5695 29.159L34.6018 30.1585L34.5695 29.159ZM11.5 4H12.4398V6H11.5V4ZM23.9678 28.5005L34.5373 28.1596L34.6018 30.1585L24.0322 30.4995L23.9678 28.5005ZM42.2385 33.2232L46.9304 45.1335L45.0696 45.8665L40.3777 33.9563L42.2385 33.2232ZM16.5038 11.8037C16.8098 12.1968 18.5035 14.3729 19.2902 15.3871L17.7098 16.6129C16.9245 15.6003 15.232 13.4259 14.9255 13.0322L16.5038 11.8037ZM19.2902 15.3871C21.6585 18.4406 23.0784 21.9409 23.9063 24.6495C24.3218 26.0088 24.592 27.1813 24.7588 28.0168C24.8422 28.4349 24.8999 28.7694 24.9371 29.0018C24.9556 29.118 24.9691 29.2087 24.9781 29.2716C24.9825 29.3031 24.9859 29.3276 24.9882 29.3449C24.9894 29.3535 24.9903 29.3603 24.9909 29.3653C24.9912 29.3678 24.9915 29.3699 24.9917 29.3714C24.9918 29.3722 24.9919 29.3729 24.992 29.3734C24.992 29.3737 24.992 29.374 24.9921 29.3742C24.9921 29.3745 24.9921 29.3747 24 29.5C23.0079 29.6253 23.0079 29.6255 23.0079 29.6257C23.0079 29.6257 23.0079 29.6258 23.008 29.6259C23.008 29.626 23.008 29.6259 23.0079 29.6258C23.0079 29.6255 23.0078 29.6247 23.0077 29.6235C23.0073 29.6211 23.0068 29.6169 23.006 29.6108C23.0044 29.5988 23.0017 29.5796 22.998 29.5536C22.9906 29.5015 22.9789 29.422 22.9621 29.3175C22.9287 29.1084 22.8755 28.7992 22.7975 28.4083C22.6413 27.6259 22.3865 26.5192 21.9937 25.2341C21.205 22.6539 19.8749 19.4043 17.7098 16.6129L19.2902 15.3871ZM16.4665 12.9617C16.7535 12.6385 16.7746 12.1516 16.5038 11.8037L14.9255 13.0322C14.5989 12.6126 14.6236 12.0248 14.9711 11.6336L16.4665 12.9617ZM34.5373 28.1596C37.9164 28.0506 40.9993 30.0776 42.2385 33.2232L40.3777 33.9563C39.4483 31.597 37.1361 30.0768 34.6018 30.1585L34.5373 28.1596ZM12.4398 4C17.0855 4 19.5515 9.48809 16.4665 12.9617L14.9711 11.6336C16.9104 9.44999 15.3602 6 12.4398 6V4Z" fill="white"/>
</svg>
