<svg width="180" height="50" viewBox="0 0 180 50" fill="none" xmlns="http://www.w3.org/2000/svg">
<path fill-rule="evenodd" clip-rule="evenodd" d="M0 8C0 5.79086 1.79086 4 4 4H64C66.2091 4 68 5.79086 68 8V42C68 44.2091 66.2091 46 64 46H4C1.79086 46 0 44.2091 0 42V8ZM4 6C2.89543 6 2 6.89543 2 8V42C2 43.1046 2.89543 44 4 44H64C65.1046 44 66 43.1046 66 42V8C66 6.89543 65.1046 6 64 6H4Z" fill="white"/>
<path d="M11.97 31H14.418V17.734L10.026 18.796V20.686L11.97 20.38V31ZM22.2646 31.198C25.2166 31.198 26.9626 29.182 26.9626 24.556C26.9626 19.93 25.2166 17.788 22.2646 17.788C19.3126 17.788 17.5846 19.93 17.5846 24.556C17.5846 29.2 19.3126 31.198 22.2646 31.198ZM22.2646 29.182C20.5906 29.182 20.0686 27.67 20.0686 24.556C20.0686 21.514 20.5906 19.804 22.2646 19.804C23.9386 19.804 24.4786 21.514 24.4786 24.556C24.4786 27.67 23.9386 29.182 22.2646 29.182ZM29.1004 31.306H31.5484V28.84H29.1004V31.306ZM33.6322 31H41.2822L42.0922 28.966H36.9802L38.3122 27.598C40.4542 25.456 41.5522 23.692 41.5522 21.622C41.5522 19.012 40.0942 17.788 37.1062 17.788C36.0622 17.788 34.6942 18.094 33.7402 18.472V20.434C35.0002 20.02 35.9902 19.84 36.8542 19.84C38.5102 19.84 39.0682 20.452 39.0682 21.748C39.0682 23.116 38.2042 24.664 36.5842 26.266L33.6322 29.164V31ZM49.0324 26.932C49.0324 28.246 48.5104 29.056 46.9984 29.056C45.7744 29.056 44.6404 28.912 43.1284 28.534V30.514C44.4784 30.928 45.8464 31.162 47.2144 31.162C50.0764 31.162 51.5704 29.686 51.5704 26.932C51.5704 23.962 50.0224 22.63 47.0164 22.63C46.6024 22.63 46.3504 22.63 46.0084 22.684L46.2064 19.984H50.6704L51.4804 17.914H44.0284L43.5784 24.898C44.4604 24.772 45.4504 24.7 46.2964 24.7C48.3124 24.7 49.0324 25.15 49.0324 26.932ZM55.2679 22H57.3019L58.9219 17.806H56.3119L55.2679 22ZM52.2439 22H54.2779L55.8979 17.806H53.2879L52.2439 22Z" fill="white"/>
</svg>
