<svg width="180" height="50" viewBox="0 0 180 50" fill="none" xmlns="http://www.w3.org/2000/svg">
<g clip-path="url(#clip0)">
<path fill-rule="evenodd" clip-rule="evenodd" d="M3.31853 18.0259C3.31404 18.0288 3.31261 18.0297 3.31378 18.0285C2.14152 19.2554 0.858947 23.1047 3.79967 26.705C6.78638 30.3616 14.317 33.9999 31.3796 33.9999C48.4263 33.9999 56.3713 30.3684 59.7387 26.6649C63.0776 22.9929 62.0295 19.1745 60.9345 18.0285C60.9356 18.0297 60.9342 18.0288 60.9297 18.0259C60.8987 18.0062 60.7213 17.8932 60.2416 17.7454C59.7483 17.5934 59.0721 17.4438 58.2212 17.3012C56.5235 17.0165 54.2288 16.7757 51.5193 16.5818C46.1062 16.1945 39.1205 16 32.1241 16C25.1277 16 18.1419 16.1945 12.7289 16.5819C10.0194 16.7758 7.72473 17.0166 6.02701 17.3012C5.17608 17.4438 4.49995 17.5935 4.00658 17.7455C3.52696 17.8932 3.34957 18.0062 3.31853 18.0259ZM60.8305 15.8341C61.3881 16.0059 61.999 16.2476 62.3805 16.6468C64.2637 18.6178 65.201 23.6305 61.2185 28.0104C57.2646 32.3588 48.5816 35.9999 31.3796 35.9999C14.1937 35.9999 5.8408 32.3655 2.2507 27.9702C-1.38538 23.5186 0.0619169 18.5368 1.86775 16.6468C2.24925 16.2476 2.86018 16.0059 3.41777 15.8341C4.03101 15.6452 4.80421 15.4783 5.69635 15.3287C7.48477 15.0289 9.85119 14.7827 12.5861 14.587C18.062 14.1951 25.0983 14 32.1241 14C39.1498 14 46.1862 14.1951 51.662 14.5869C54.397 14.7827 56.7634 15.0289 58.5519 15.3287C59.444 15.4782 60.2172 15.6452 60.8305 15.8341ZM11.9998 24.9999C13.1044 24.9999 13.9998 24.1045 13.9998 22.9999C13.9998 21.8954 13.1044 20.9999 11.9998 20.9999C10.8953 20.9999 9.99985 21.8954 9.99985 22.9999C9.99985 24.1045 10.8953 24.9999 11.9998 24.9999ZM11.9998 26.9999C14.209 26.9999 15.9998 25.2091 15.9998 22.9999C15.9998 20.7908 14.209 18.9999 11.9998 18.9999C9.79071 18.9999 7.99985 20.7908 7.99985 22.9999C7.99985 25.2091 9.79071 26.9999 11.9998 26.9999ZM28.9998 23.9999C28.9998 26.2091 27.209 27.9999 24.9998 27.9999C22.7907 27.9999 20.9998 26.2091 20.9998 23.9999C20.9998 21.7908 22.7907 19.9999 24.9998 19.9999C27.209 19.9999 28.9998 21.7908 28.9998 23.9999ZM30.9998 23.9999C30.9998 27.3136 28.3136 29.9999 24.9998 29.9999C21.6861 29.9999 18.9998 27.3136 18.9998 23.9999C18.9998 20.6862 21.6861 17.9999 24.9998 17.9999C28.3136 17.9999 30.9998 20.6862 30.9998 23.9999ZM38.9998 27.9999C41.209 27.9999 42.9998 26.2091 42.9998 23.9999C42.9998 21.7908 41.209 19.9999 38.9998 19.9999C36.7907 19.9999 34.9998 21.7908 34.9998 23.9999C34.9998 26.2091 36.7907 27.9999 38.9998 27.9999ZM38.9998 29.9999C42.3136 29.9999 44.9998 27.3136 44.9998 23.9999C44.9998 20.6862 42.3136 17.9999 38.9998 17.9999C35.6861 17.9999 32.9998 20.6862 32.9998 23.9999C32.9998 27.3136 35.6861 29.9999 38.9998 29.9999ZM53.9998 22.9999C53.9998 24.1045 53.1044 24.9999 51.9998 24.9999C50.8953 24.9999 49.9998 24.1045 49.9998 22.9999C49.9998 21.8954 50.8953 20.9999 51.9998 20.9999C53.1044 20.9999 53.9998 21.8954 53.9998 22.9999ZM55.9998 22.9999C55.9998 25.2091 54.209 26.9999 51.9998 26.9999C49.7907 26.9999 47.9998 25.2091 47.9998 22.9999C47.9998 20.7908 49.7907 18.9999 51.9998 18.9999C54.209 18.9999 55.9998 20.7908 55.9998 22.9999Z" fill="white"/>
</g>
</svg>
