<svg width="209" height="38" viewBox="0 0 209 38" fill="none" xmlns="http://www.w3.org/2000/svg">
<path d="M104.04 18.7692C104.04 24.1538 95.5999 28.4615 85.3187 28.4615C75.0375 28.4615 66.5977 24.1538 66.5977 18.7692C66.5977 13.3846 75.0375 9.07692 85.3187 9.07692C95.7533 9.07692 104.04 13.3846 104.04 18.7692ZM209 34.3077V31.3846C209 29.8462 207.926 28.4615 206.391 28.4615C205.931 28.4615 178.156 28.4615 172.786 28.4615C169.41 28.4615 167.875 27.6923 167.875 23.8462V2.30769C167.875 1.23077 167.261 0 165.88 0C164.96 0 160.816 0 158.822 0H158.054H154.678C153.144 0 152.07 0.923077 152.07 2.30769V17.8462C152.07 20.7692 151.763 22.4615 150.228 23.8462C148.694 25.3846 145.011 27.3846 141.328 28C139.794 28.3077 137.492 28.6154 134.883 28.6154C132.275 28.6154 129.973 28.3077 128.438 28C124.756 27.2308 120.919 25.5385 119.538 24C118.617 23.0769 117.697 21.3846 117.697 18.7692V1.84615C117.697 1.07692 117.083 0.153846 116.009 0.153846C114.935 0.153846 111.252 0.153846 110.638 0.153846C110.024 0.153846 108.95 0.769231 108.95 1.84615V7.84615C108.95 8.30769 108.49 8.15385 108.336 8C103.119 3.38461 94.6792 0.307692 85.0117 0.307692C85.0117 0.307692 81.9427 0.461538 81.6358 0.461538C76.8789 0.769231 72.5822 1.84615 68.8994 3.53846L68.5925 3.69231C68.2856 3.84615 68.1322 3.69231 68.1322 3.38462V1.69231C68.1322 1.07692 67.6718 0 66.4442 0C65.2166 0 57.5441 0.153846 57.5441 0.153846C52.3267 0.307692 46.3421 1.38461 38.6696 10.3077C38.3627 10.7692 38.0558 11.0769 37.5954 11.5385C28.6953 22.6154 22.4038 27.8462 14.4244 28.6154C13.8106 28.6154 12.2761 28.7692 11.9692 28.7692C11.9692 28.7692 4.29662 28.7692 2.76211 28.7692C0.767254 28.7692 0 29.8462 0 31.3846C0 32.4615 0 34.1538 0 34.7692C0 36 0.920705 37.3846 2.91557 37.3846C4.60352 37.3846 10.4347 37.3846 10.4347 37.3846C23.6314 37.6923 31.304 31.3846 37.2885 24.6154C44.6542 16.9231 49.4112 8.76923 57.851 8.61538C57.851 8.61538 60.4596 8.61538 60.92 8.61538C61.3803 8.61538 61.3803 8.92308 61.2269 9.07692C58.3113 12 56.7768 15.3846 56.7768 19.0769C56.7768 29.3846 69.6667 37.6923 85.4721 37.6923C94.6792 37.6923 102.965 34.7692 108.183 30.4615C108.49 30.3077 108.95 29.8462 108.95 29.8462C109.257 29.5385 110.178 28.4615 110.485 28.1538C110.638 28 111.098 28 111.252 28.1538C112.019 29.2308 113.554 30.7692 113.554 30.7692C118.311 35.0769 125.369 37.6923 133.195 38H135.19H137.185C145.011 37.6923 152.223 35.2308 156.827 30.9231C157.287 30.6154 157.594 30.1538 157.901 29.8462V33.0769C157.901 36.1538 159.896 37.5385 163.118 37.5385C163.579 37.5385 205.317 37.5385 206.391 37.5385C208.079 37.2308 209 35.8461 209 34.3077Z" fill="white"/>
</svg>
