<svg width="54" height="50" viewBox="0 0 54 50" fill="none" xmlns="http://www.w3.org/2000/svg">
<g clip-path="url(#clip0)">
<path d="M20.4823 39.9999L17.9348 31.097L15.3873 39.9999H11.4428L8.4844 30.3091H0V28.0243H10.7032L13.4972 37.3999L16.2091 28.0243H19.8249L22.4546 37.3999L25.2486 28.0243H28.1249L24.509 39.9999H20.4823Z" fill="white"/>
<path d="M32.235 31.6481H29.6875V39.9207H32.235V31.6481Z" fill="white"/>
<path d="M38.6447 39.9999C38.0695 39.9999 37.412 39.9211 36.6725 39.8423C36.015 39.7636 35.2754 39.606 34.618 39.4484H34.5358V37.5575H34.618C35.3576 37.7151 36.0972 37.7939 36.6725 37.8727C37.3299 37.9514 37.9051 38.0302 38.5625 38.0302C39.3021 38.0302 39.7952 37.8727 40.1239 37.6363C40.4526 37.3999 40.617 36.9272 40.617 36.3757C40.617 36.1393 40.5348 35.9818 40.4526 35.8242C40.3704 35.6666 40.2061 35.5878 40.0417 35.4303C39.8774 35.3515 39.6308 35.1939 39.3021 35.1151C39.0556 35.0363 38.6447 34.9575 38.2338 34.8787C37.5764 34.7212 37.0833 34.5636 36.5903 34.406C36.0972 34.2484 35.6863 33.9333 35.3576 33.6969C35.0289 33.3818 34.7824 33.0666 34.5358 32.6727C34.3715 32.2788 34.2893 31.806 34.2893 31.2545C34.2893 30.2303 34.618 29.3636 35.3576 28.8121C36.0972 28.2606 37.1655 27.9455 38.7269 27.9455C39.3021 27.9455 39.8774 28.0243 40.5348 28.103C41.1922 28.1818 41.8496 28.3394 42.5071 28.497H42.5892V30.3879H42.5071C41.8496 30.2303 41.2744 30.1515 40.617 30.0727C40.0417 29.9939 39.4665 29.9939 39.0556 29.9939C38.7269 29.9939 38.4804 29.9939 38.1516 30.0727C37.9051 30.0727 37.6586 30.1515 37.4942 30.2303C37.3299 30.3091 37.1655 30.4667 37.0833 30.6242C37.0012 30.7818 36.919 31.0182 36.919 31.2545C36.919 31.4909 36.919 31.7273 37.0012 31.8848C37.0833 32.0424 37.2477 32.2 37.4121 32.2788C37.5764 32.4363 37.8229 32.5151 38.1516 32.5939C38.4804 32.6727 38.8091 32.7515 39.3021 32.9091C39.9596 33.0666 40.4526 33.2242 40.9457 33.3818C41.4388 33.5394 41.8496 33.7757 42.1784 34.0121C42.5071 34.2484 42.7536 34.5636 42.918 34.9575C43.0823 35.3515 43.1645 35.7454 43.1645 36.2969C43.1645 37.5575 42.7536 38.503 41.9318 39.1333C41.1922 39.7636 40.0417 39.9999 38.7269 39.9999H38.6447Z" fill="white"/>
<path d="M45.1367 39.9213V28.0244H53.6832V29.9941H47.6842V32.8304H53.5188L52.6971 34.8789H47.6842V37.8728H53.6832V39.9213H45.1367Z" fill="white"/>
<path d="M32.235 28.0243H29.6875V30.4667H32.235V28.0243Z" fill="white"/>
<path d="M20.8946 19.7515H23.1956C23.853 19.7515 24.4282 19.5939 24.7569 19.2787C25.0856 18.9636 25.25 18.4121 25.25 17.703C25.25 16.9939 25.0856 16.4424 24.7569 16.206C24.4282 15.8909 23.9352 15.7333 23.1956 15.7333H20.8946V19.7515ZM25.4965 25.6605L23.1134 21.5636H20.8946V25.6605H18.6758V14H23.3599C24.0173 14 24.6747 14.0788 25.1678 14.2364C25.6609 14.3939 26.1539 14.5515 26.4827 14.8667C26.8114 15.1818 27.0579 15.5757 27.2223 16.0485C27.3866 16.4424 27.4688 17.0727 27.4688 17.7818C27.4688 19.1212 27.1401 20.1454 26.4827 20.6969C26.2361 20.9333 25.9074 21.0909 25.4965 21.2484H25.4143L28.044 25.6605H25.4965Z" fill="white"/>
<path d="M32.0709 14H29.8521V25.6605H32.0709V14Z" fill="white"/>
<path d="M37.3303 25.6605L33.3857 14H35.6867L38.8095 23.6908L41.9322 14H44.151L40.2887 25.6605H37.3303Z" fill="white"/>
<path d="M45.2964 25.6605V14H53.7607V15.7333H47.5974V18.8848H53.3499L52.6103 20.6181H47.5974V23.8484H53.7607V25.6605H45.2964Z" fill="white"/>
<path d="M16.62 17.3091C16.4556 16.6 16.2091 16.0485 15.8804 15.5757C15.5517 15.103 14.9764 14.7091 14.4012 14.4727C13.7438 14.1576 12.922 14 11.9358 14H7.49826V22.1151H9.71705V15.7333H11.7715C12.3467 15.7333 12.8398 15.8121 13.1685 16.0485C13.5794 16.206 13.8259 16.5212 13.9903 16.8363C14.1546 17.1515 14.319 17.6242 14.4012 18.0969C14.4834 18.5697 14.4834 19.1212 14.4834 19.6727C14.4834 20.2242 14.4834 20.7757 14.4012 21.3272C14.319 21.8787 14.2368 22.2727 13.9903 22.6666C13.8259 23.0605 13.4972 23.3757 13.1685 23.612C12.7576 23.8484 12.3467 23.9272 11.6893 23.9272H0V25.6605H11.9358C12.922 25.6605 13.7438 25.5029 14.4012 25.1878C15.0586 24.8726 15.5517 24.4787 15.8804 23.9272C16.2091 23.3757 16.4556 22.7454 16.62 22.0363C16.7843 21.3272 16.7843 20.5393 16.7843 19.5939C16.7843 18.7272 16.7843 17.9394 16.62 17.3091Z" fill="white"/>
</g>
<defs>
<clipPath id="clip0">
<rect width="54" height="50" fill="white"/>
</clipPath>
</defs>
</svg>
