<svg width="20" height="20" viewBox="0 0 20 20" fill="none" xmlns="http://www.w3.org/2000/svg">
<path d="M2 2V2.49485C2 3.69732 2.36435 4.86331 3.05357 5.86672C3.66543 6.75744 4.50379 7.47965 5.4903 7.97143C5.64678 10.0268 7.33715 11.6851 9.47826 11.9195V14.1936C7.63784 14.395 6.09092 15.6493 5.62077 17.3818L5.45297 18H14.547L14.3792 17.3818C13.9091 15.6493 12.3622 14.395 10.5217 14.1936V11.9195C12.6629 11.6851 14.3533 10.0268 14.5097 7.97143C15.4962 7.47965 16.3346 6.75744 16.9464 5.86672C17.6357 4.86331 18 3.69732 18 2.49485V2H2ZM3.06859 2.98969H5.47826V6.81435C4.12014 5.95032 3.2265 4.54189 3.06859 2.98969ZM14.5217 6.81435V2.98969H16.9314C16.7735 4.54189 15.8799 5.95032 14.5217 6.81435Z" fill="#F59000"/>
</svg>
