<svg width="46" height="44" viewBox="0 0 46 44" fill="none" xmlns="http://www.w3.org/2000/svg">
<path fill-rule="evenodd" clip-rule="evenodd" d="M37.1189 12.8013C34.8563 9.06257 37.4927 4 42.1301 4H43.5H44.6938L44.4845 5.17532L37.9845 41.6753L37.8377 42.5H37H3H2V41.5V39.2799C2 34.7387 5.77574 31.1081 10.3135 31.286L27.6559 31.9661C27.7118 31.6478 27.7846 31.2531 27.8756 30.7965C28.1264 29.5385 28.5164 27.8054 29.0741 25.9054C30.1743 22.1566 31.9808 17.563 34.7982 14.7876C35.3801 14.2144 36.1637 13.5629 36.7828 13.0677C36.9005 12.9736 37.0133 12.8843 37.1189 12.8013ZM38.5 13L39.0986 13.801L39.0985 13.8011L39.0977 13.8017L39.0941 13.8044L39.0791 13.8157L39.0189 13.861C38.9662 13.9009 38.8891 13.9595 38.793 14.0333C38.6006 14.181 38.3328 14.389 38.032 14.6296C37.4228 15.1169 36.7064 15.7153 36.2018 16.2124C33.7755 18.6025 32.0819 22.7588 30.9931 26.4687C30.4562 28.298 30.0795 29.9714 29.8371 31.1875C29.716 31.795 29.6287 32.2869 29.5719 32.6253C29.5435 32.7945 29.5228 32.9253 29.5093 33.0128C29.5025 33.0566 29.4976 33.0895 29.4944 33.1111L29.4909 33.1348L29.4901 33.1401L29.49 33.141L29.49 33.1411L29.49 33.1412L29.3628 34.0346L28.4608 33.9992L10.2351 33.2845C6.8318 33.151 4 35.874 4 39.2799V40.5H36.1623L42.3062 6H42.1301C38.845 6 37.0893 9.86921 39.2526 12.3415L38.5 13Z" fill="white"/>
<rect x="8.92089" y="2.0779" width="18" height="21" rx="8" transform="rotate(14.5 8.92089 2.0779)" stroke="white" stroke-width="2"/>
<circle cx="33" cy="36" r="2.25" stroke="white" stroke-width="1.5"/>
</svg>
