<svg width="46" height="42" viewBox="0 0 46 42" fill="none" xmlns="http://www.w3.org/2000/svg">
<path fill-rule="evenodd" clip-rule="evenodd" d="M0.984131 4C0.984131 1.79086 2.77499 0 4.98413 0H41.0157C43.2249 0 45.0157 1.79086 45.0157 4V38C45.0157 40.2091 43.2248 42 41.0157 42H4.98413C2.77499 42 0.984131 40.2091 0.984131 38V4ZM4.98413 2C3.87956 2 2.98413 2.89543 2.98413 4V38C2.98413 39.1046 3.87956 40 4.98413 40H41.0157C42.1203 40 43.0157 39.1046 43.0157 38V4C43.0157 2.89543 42.1203 2 41.0157 2H4.98413Z" fill="white"/>
<path d="M21.6349 27.195C24.3649 27.195 25.7749 25.845 25.7749 24.03C25.7749 22.68 24.8899 21.825 23.8399 21.345C24.7399 20.76 25.3849 19.95 25.3849 18.885C25.3849 17.13 24.0049 15.96 21.6199 15.96C19.2049 15.96 17.8699 17.13 17.8699 18.885C17.8699 20.01 18.5299 20.805 19.3849 21.36C18.4399 21.87 17.5849 22.71 17.5849 24.03C17.5849 25.89 18.9199 27.195 21.6349 27.195ZM21.6349 25.515C20.3149 25.515 19.5799 24.93 19.5799 24.03C19.5799 23.07 20.4199 22.38 21.6349 22.155C22.8349 22.38 23.7049 23.055 23.7049 24.03C23.7049 24.93 23.0149 25.515 21.6349 25.515ZM19.9549 18.885C19.9549 18.105 20.5249 17.625 21.6199 17.625C22.7599 17.625 23.3449 18.105 23.3449 18.885C23.3449 19.785 22.7749 20.19 21.6349 20.595C20.4499 20.19 19.9549 19.77 19.9549 18.885Z" fill="white"/>
<path d="M28.9549 19.5H30.6499L31.9999 16.005H29.8249L28.9549 19.5ZM26.4349 19.5H28.1299L29.4799 16.005H27.3049L26.4349 19.5Z" fill="white"/>
</svg>
