<svg width="42" height="42" viewBox="0 0 42 42" fill="none" xmlns="http://www.w3.org/2000/svg">
<path d="M41 21C41 32.0457 32.0457 41 21 41C9.9543 41 1 32.0457 1 21C1 9.9543 9.9543 1 21 1C32.0457 1 41 9.9543 41 21Z" stroke="white" stroke-width="2"/>
<path d="M11.5695 18.1361C10.844 17.907 10.109 17.8115 9.4981 17.8115C7.77992 17.8115 7.04492 18.5179 7.04492 19.7111C7.04492 20.9615 7.84674 21.4961 9.24992 21.8302C10.1758 22.0592 10.6054 22.1833 10.6054 22.737C10.6054 23.4624 10.2426 23.7583 9.3931 23.7583C8.70583 23.7583 8.0281 23.6533 7.17856 23.4911V24.5124C7.91356 24.732 8.71538 24.8561 9.40265 24.8656C10.9776 24.8943 11.9226 24.1688 11.9226 22.7179C11.9226 21.4865 11.159 21.0761 9.75583 20.7229C8.73447 20.4652 8.37174 20.3411 8.37174 19.7015C8.37174 19.0143 8.94447 18.9188 9.59356 18.9188C10.1663 18.9188 10.8345 18.9761 11.5695 19.167V18.1361Z" fill="white"/>
<path d="M12.5322 18.9862H14.6609V24.8185H15.9781V18.9862H17.9063L18.3359 17.8789H12.5322V18.9862Z" fill="white"/>
<path d="M22.6416 24.8185H23.978L21.7348 17.8789H20.1121L17.8594 24.8185H19.1957L19.7207 23.148H22.1166L22.6416 24.8185ZM20.9235 19.3775L21.7635 22.0503H20.0739L20.9235 19.3775Z" fill="white"/>
<path d="M28.5255 24.8185H30.0051L28.5446 22.203C28.7642 22.1171 28.9455 22.0121 29.0983 21.8689C29.4896 21.5157 29.6805 20.9335 29.6805 20.1221C29.6805 18.4803 28.9169 17.8789 27.3323 17.8789H24.6787V24.8185H25.9864V22.3939H27.1892L28.5255 24.8185ZM25.9864 21.2866V18.9862H27.2464C28.0101 18.9862 28.3633 19.2821 28.3633 20.1221C28.3633 20.9335 28.0101 21.2866 27.2464 21.2866H25.9864Z" fill="white"/>
<path d="M30.2061 18.9862H32.3347V24.8185H33.652V18.9862H35.5801L36.0097 17.8789H30.2061V18.9862Z" fill="white"/>
</svg>
