<svg width="317" height="70" viewBox="0 0 317 70" fill="none" xmlns="http://www.w3.org/2000/svg">
<path d="M270.977 70H151.073C141.214 70 134.535 65.6828 133.898 65.3745L74.1053 28.6784H52.478C52.16 28.6784 51.8419 28.0617 52.478 28.0617L116.088 2.77533C116.406 2.77533 122.449 0.61674 128.174 0.61674H163.795C164.113 0.61674 164.113 0.92511 163.795 0.92511L105.274 24.6696C105.274 24.6696 157.116 54.2731 161.887 56.7401C166.657 59.207 170.474 60.1322 175.881 60.1322H243.625C244.261 60.1322 249.668 57.3568 251.258 56.4317C252.849 55.5066 253.803 54.5815 255.393 53.348C256.665 52.1145 258.574 49.3392 259.528 47.1806C260.482 45.3304 259.21 44.7137 258.255 44.4053H183.196C182.242 43.7885 173.018 39.7797 171.746 35.4626C171.428 34.5374 171.428 33.304 172.064 32.6872C174.609 28.37 184.468 15.4185 184.786 14.8018L185.104 14.4934H316.458L303.736 24.6696H216.273L208.64 35.1542C208.64 35.1542 287.198 35.1542 292.923 35.1542C297.375 35.1542 298.966 37.3128 297.693 40.3965C297.057 41.9383 296.421 43.4802 294.513 47.1806C293.241 49.3392 291.969 51.4978 289.742 54.5815C287.516 57.9736 284.653 61.0573 282.109 62.9075C280.201 64.7577 271.295 69.6916 270.977 70Z" fill="white"/>
<path d="M35.3034 53.6564H0L31.1688 0H66.4722L35.3034 53.6564Z" fill="white"/>
</svg>
