<svg width="172" height="51" viewBox="0 0 172 51" fill="none" xmlns="http://www.w3.org/2000/svg">
<path d="M165.63 50.5H6.37037C3.08592 50.5 0.5 47.7982 0.5 44.625V6.375C0.5 3.08728 3.20033 0.5 6.37037 0.5H165.63C168.914 0.5 171.5 3.20177 171.5 6.375V44.625C171.5 47.7982 168.914 50.5 165.63 50.5Z" stroke="#CDD0D2"/>
<path d="M86.7653 27.797C83.7075 27.797 81.2867 30.092 81.2867 33.2795C81.2867 36.3395 83.7075 38.762 86.7653 38.762C89.823 38.762 92.2438 36.467 92.2438 33.2795C92.2438 29.9645 89.823 27.797 86.7653 27.797ZM86.7653 36.467C85.109 36.467 83.7075 35.0645 83.7075 33.152C83.7075 31.2395 85.109 29.837 86.7653 29.837C88.4215 29.837 89.823 31.112 89.823 33.152C89.823 35.0645 88.4215 36.467 86.7653 36.467ZM74.9164 27.797C71.8586 27.797 69.4378 30.092 69.4378 33.2795C69.4378 36.3395 71.8586 38.762 74.9164 38.762C77.9741 38.762 80.3949 36.467 80.3949 33.2795C80.3949 29.9645 77.9741 27.797 74.9164 27.797ZM74.9164 36.467C73.2601 36.467 71.8586 35.0645 71.8586 33.152C71.8586 31.2395 73.2601 29.837 74.9164 29.837C76.5727 29.837 77.9741 31.112 77.9741 33.152C77.9741 35.0645 76.5727 36.467 74.9164 36.467ZM60.7741 29.4545V31.7495H66.2527C66.1252 33.0245 65.6156 34.0445 64.9786 34.682C64.2141 35.447 62.9401 36.3395 60.7741 36.3395C57.3341 36.3395 54.786 33.662 54.786 30.2195C54.786 26.777 57.4615 24.0995 60.7741 24.0995C62.5578 24.0995 63.9593 24.8645 64.9786 25.757L66.6349 24.0995C65.2334 22.8245 63.4497 21.8045 60.9015 21.8045C56.3149 21.8045 52.3652 25.6295 52.3652 30.2195C52.3652 34.8095 56.3149 38.6345 60.9015 38.6345C63.4497 38.6345 65.2334 37.8695 66.7623 36.212C68.2912 34.682 68.8008 32.5145 68.8008 30.857C68.8008 30.347 68.8008 29.837 68.6734 29.4545H60.7741ZM118.617 31.2395C118.107 29.9645 116.833 27.797 114.03 27.797C111.227 27.797 108.934 29.9645 108.934 33.2795C108.934 36.3395 111.227 38.762 114.285 38.762C116.706 38.762 118.235 37.232 118.745 36.3395L116.961 35.0645C116.324 35.957 115.559 36.5945 114.285 36.5945C113.011 36.5945 112.247 36.0845 111.61 34.937L118.872 31.877L118.617 31.2395ZM111.227 33.0245C111.227 30.9845 112.884 29.837 114.03 29.837C114.922 29.837 115.814 30.347 116.069 30.9845L111.227 33.0245ZM105.239 38.252H107.66V22.3145H105.239V38.252ZM101.417 28.9445C100.78 28.307 99.7608 27.6695 98.4867 27.6695C95.8112 27.6695 93.263 30.092 93.263 33.152C93.263 36.212 95.6838 38.507 98.4867 38.507C99.7608 38.507 100.78 37.8695 101.29 37.232H101.417V37.997C101.417 40.037 100.27 41.1845 98.4867 41.1845C97.0853 41.1845 96.066 40.1645 95.8112 39.272L93.7727 40.1645C94.4097 41.567 95.9386 43.352 98.6141 43.352C101.417 43.352 103.71 41.6945 103.71 37.742V28.052H101.417V28.9445ZM98.6141 36.467C96.9579 36.467 95.5564 35.0645 95.5564 33.152C95.5564 31.2395 96.9579 29.837 98.6141 29.837C100.27 29.837 101.545 31.2395 101.545 33.152C101.545 35.0645 100.27 36.467 98.6141 36.467ZM129.702 22.3145H123.968V38.252H126.389V32.2595H129.702C132.377 32.2595 134.925 30.347 134.925 27.287C134.925 24.227 132.377 22.3145 129.702 22.3145ZM129.829 29.9645H126.389V24.482H129.829C131.613 24.482 132.632 26.012 132.632 27.1595C132.505 28.562 131.485 29.9645 129.829 29.9645ZM144.481 27.6695C142.697 27.6695 140.913 28.4345 140.276 30.092L142.442 30.9845C142.952 30.092 143.716 29.837 144.608 29.837C145.882 29.837 147.029 30.602 147.156 31.877V32.0045C146.774 31.7495 145.755 31.367 144.736 31.367C142.442 31.367 140.149 32.642 140.149 34.937C140.149 37.1045 142.06 38.507 144.099 38.507C145.755 38.507 146.519 37.742 147.156 36.977H147.284V38.252H149.577V32.132C149.322 29.327 147.156 27.6695 144.481 27.6695ZM144.226 36.467C143.462 36.467 142.315 36.0845 142.315 35.0645C142.315 33.7895 143.716 33.407 144.863 33.407C145.882 33.407 146.392 33.662 147.029 33.917C146.774 35.447 145.5 36.467 144.226 36.467ZM157.604 28.052L154.928 34.937H154.801L151.998 28.052H149.45L153.654 37.742L151.233 43.097H153.654L160.152 28.052H157.604ZM136.199 38.252H138.62V22.3145H136.199V38.252Z" fill="black"/>
<path d="M13.2484 9.56204C12.8661 9.94454 12.6113 10.582 12.6113 11.347V39.5245C12.6113 40.2896 12.8661 40.9271 13.2484 41.3096L13.3758 41.437L29.1743 25.627V25.4995V25.372L13.2484 9.56204Z" fill="url(#paint0_linear)"/>
<path d="M34.3975 30.983L29.1738 25.7555V25.5005V25.373L34.3975 20.1454L34.5249 20.2729L40.7679 23.843C42.5516 24.863 42.5516 26.5205 40.7679 27.5405L34.3975 30.983Z" fill="url(#paint1_linear)"/>
<path d="M34.5231 30.8554L29.172 25.5004L13.2461 41.4379C13.8831 42.0754 14.775 42.0754 15.9216 41.5654L34.5231 30.8554Z" fill="url(#paint2_linear)"/>
<path d="M34.5231 20.1455L15.9216 9.56295C14.775 8.92545 13.8831 9.05295 13.2461 9.69045L29.172 25.5005L34.5231 20.1455Z" fill="url(#paint3_linear)"/>
<path opacity="0.2" d="M34.3957 30.7283L15.9216 41.1833C14.9024 41.8208 14.0105 41.6933 13.3735 41.1833L13.2461 41.3108L13.3735 41.4383C14.0105 41.9483 14.9024 42.0758 15.9216 41.4383L34.3957 30.7283Z" fill="#05141F"/>
<path opacity="0.12" d="M13.2492 41.1832C12.8675 40.8007 12.7402 40.1632 12.7402 39.3982V39.5257C12.7402 40.2907 12.9947 40.9282 13.3764 41.3107V41.1832H13.2492Z" fill="#05141F"/>
<path opacity="0.12" d="M40.7708 27.1575L34.4004 30.7275L34.5278 30.855L40.7708 27.285C41.6626 26.775 42.0448 26.1375 42.0448 25.5C42.0448 26.1375 41.5352 26.6475 40.7708 27.1575Z" fill="#05141F"/>
<path opacity="0.25" d="M15.9254 9.69047L40.7699 23.843C41.5343 24.353 42.0439 24.863 42.0439 25.5005C42.0439 24.863 41.6617 24.2255 40.7699 23.7155L15.9254 9.56297C14.1417 8.54297 12.7402 9.43547 12.7402 11.4755V11.603C12.7402 9.56297 14.1417 8.67047 15.9254 9.69047Z" fill="white"/>
<path d="M53.636 18.2321H52.7441V15.6821H53.5086C54.1456 15.1721 54.5278 14.1521 54.5278 12.7496V8.92462H59.6241V15.6821H60.516V18.2321H59.6241V16.5746H53.7634V18.2321H53.636ZM55.4197 12.7496C55.4197 13.8971 55.1649 14.9171 54.6553 15.6821H58.4775V9.94462H55.2923V12.7496H55.4197Z" fill="black" stroke="white" stroke-width="0.2" stroke-miterlimit="10"/>
<path d="M68.0319 15.553C67.2675 16.318 66.3756 16.7005 65.2289 16.7005C64.0823 16.7005 63.1904 16.318 62.426 15.553C61.6615 14.788 61.2793 13.8955 61.2793 12.748C61.2793 11.6005 61.6615 10.708 62.426 9.943C63.1904 9.178 64.0823 8.7955 65.2289 8.7955C66.3756 8.7955 67.2675 9.178 68.0319 9.943C68.7963 10.708 69.1786 11.6005 69.1786 12.748C69.1786 13.8955 68.7963 14.788 68.0319 15.553ZM63.1904 14.9155C63.7 15.4255 64.4645 15.808 65.2289 15.808C65.9934 15.808 66.7578 15.553 67.2675 14.9155C67.7771 14.4055 68.1593 13.6405 68.1593 12.748C68.1593 11.8555 67.9045 11.0905 67.2675 10.5805C66.7578 10.0705 65.9934 9.688 65.2289 9.688C64.4645 9.688 63.7 9.943 63.1904 10.5805C62.6808 11.0905 62.2986 11.8555 62.2986 12.748C62.2986 13.6405 62.5534 14.4055 63.1904 14.9155Z" fill="black" stroke="white" stroke-width="0.2" stroke-miterlimit="10"/>
<path d="M74.1489 16.7005C73.0022 16.7005 72.1103 16.318 71.3459 15.553C70.5814 14.788 70.1992 13.8955 70.1992 12.748C70.1992 11.6005 70.5814 10.708 71.3459 9.943C72.1103 9.178 73.0022 8.7955 74.1489 8.7955C75.2955 8.7955 76.1874 9.178 76.9518 10.0705L76.3148 10.708C75.8052 10.0705 75.0407 9.688 74.1489 9.688C73.257 9.688 72.62 9.943 71.9829 10.5805C71.3459 11.0905 71.0911 11.8555 71.0911 12.748C71.0911 13.6405 71.3459 14.4055 71.9829 14.9155C72.4926 15.4255 73.257 15.808 74.1489 15.808C75.0407 15.808 75.8052 15.4255 76.4422 14.6605L77.0792 15.298C76.697 15.6805 76.3148 16.063 75.8052 16.318C75.2955 16.573 74.7859 16.7005 74.1489 16.7005Z" fill="black" stroke="white" stroke-width="0.2" stroke-miterlimit="10"/>
<path d="M81.1539 16.5747H80.1347V9.81724H77.9688V8.92474H83.1925V9.81724H81.0265V16.5747H81.1539Z" fill="black" stroke="white" stroke-width="0.2" stroke-miterlimit="10"/>
<path d="M89.9437 8.92474L87.0133 15.4272C86.6311 16.3197 85.9941 16.8297 85.2296 16.8297C84.9748 16.8297 84.72 16.8297 84.4652 16.7022L84.72 15.8097C84.8474 15.9372 85.1022 15.9372 85.2296 15.9372C85.4844 15.9372 85.6118 15.9372 85.7392 15.8097C85.8666 15.6822 85.994 15.5547 86.1215 15.2997L86.3763 14.6622L83.8281 9.05224H84.9748L86.8859 13.3872L88.6696 9.05224H89.9437V8.92474Z" fill="black" stroke="white" stroke-width="0.2" stroke-miterlimit="10"/>
<path d="M91.0957 16.5747V8.92474H96.5742V16.5747H95.5549V9.81724H91.9875V16.5747H91.0957Z" fill="black" stroke="white" stroke-width="0.2" stroke-miterlimit="10"/>
<path d="M98.3555 16.5747V8.92474H99.3747V12.2397H103.197V8.92474H104.216V16.5747H103.197V13.1322H99.3747V16.5747H98.3555Z" fill="black" stroke="white" stroke-width="0.2" stroke-miterlimit="10"/>
<path d="M112.241 15.553C111.476 16.318 110.585 16.7005 109.438 16.7005C108.291 16.7005 107.399 16.318 106.635 15.553C105.87 14.788 105.488 13.8955 105.488 12.748C105.488 11.6005 105.87 10.708 106.635 9.943C107.399 9.178 108.291 8.7955 109.438 8.7955C110.585 8.7955 111.476 9.178 112.241 9.943C113.005 10.708 113.388 11.6005 113.388 12.748C113.26 13.8955 112.878 14.788 112.241 15.553ZM107.272 14.9155C107.782 15.4255 108.546 15.808 109.311 15.808C110.075 15.808 110.839 15.553 111.349 14.9155C111.859 14.4055 112.241 13.6405 112.241 12.748C112.241 11.8555 111.986 11.0905 111.349 10.5805C110.839 10.0705 110.075 9.688 109.311 9.688C108.546 9.688 107.782 9.943 107.272 10.5805C106.762 11.0905 106.38 11.8555 106.38 12.748C106.38 13.6405 106.762 14.4055 107.272 14.9155Z" fill="black" stroke="white" stroke-width="0.2" stroke-miterlimit="10"/>
<path d="M117.338 16.5747V8.92474H120.141C120.778 8.92474 121.288 9.17974 121.67 9.56224C122.052 9.94474 122.307 10.4547 122.307 11.0922C122.307 11.4747 122.179 11.7297 122.052 12.1122C121.925 12.3672 121.67 12.6222 121.288 12.7497C121.67 12.8772 121.925 13.1322 122.179 13.3872C122.434 13.6422 122.562 14.0247 122.562 14.5347C122.562 15.1722 122.307 15.6822 121.925 16.0647C121.415 16.4472 120.905 16.7022 120.268 16.7022H117.338V16.5747ZM118.357 12.2397H120.141C120.523 12.2397 120.778 12.1122 121.033 11.8572C121.288 11.6022 121.415 11.3472 121.415 11.0922C121.415 10.8372 121.288 10.5822 121.033 10.3272C120.778 10.0722 120.523 9.94474 120.141 9.94474H118.357V12.2397ZM118.357 15.6822H120.396C120.778 15.6822 121.033 15.5547 121.288 15.2997C121.542 15.0447 121.67 14.7897 121.67 14.4072C121.67 14.1522 121.542 13.7697 121.288 13.5147C121.033 13.2597 120.778 13.1322 120.396 13.1322H118.485V15.6822H118.357Z" fill="black" stroke="white" stroke-width="0.2" stroke-miterlimit="10"/>
<defs>
<linearGradient id="paint0_linear" x1="27.7724" y1="11.1044" x2="6.37487" y2="32.4864" gradientUnits="userSpaceOnUse">
<stop stop-color="#00A0FF"/>
<stop offset="0.00657445" stop-color="#00A1FF"/>
<stop offset="0.2601" stop-color="#00BEFF"/>
<stop offset="0.5122" stop-color="#00D2FF"/>
<stop offset="0.7604" stop-color="#00DFFF"/>
<stop offset="1" stop-color="#00E3FF"/>
</linearGradient>
<linearGradient id="paint1_linear" x1="43.1051" y1="25.5022" x2="12.2764" y2="25.5022" gradientUnits="userSpaceOnUse">
<stop stop-color="#FFE000"/>
<stop offset="0.4087" stop-color="#FFBD00"/>
<stop offset="0.7754" stop-color="#FFA500"/>
<stop offset="1" stop-color="#FF9C00"/>
</linearGradient>
<linearGradient id="paint2_linear" x1="31.6272" y1="28.428" x2="2.61032" y2="57.4237" gradientUnits="userSpaceOnUse">
<stop stop-color="#FF3A44"/>
<stop offset="1" stop-color="#C31162"/>
</linearGradient>
<linearGradient id="paint3_linear" x1="9.29303" y1="0.225109" x2="22.2503" y2="13.1729" gradientUnits="userSpaceOnUse">
<stop stop-color="#32A071"/>
<stop offset="0.0685" stop-color="#2DA771"/>
<stop offset="0.4762" stop-color="#15CF74"/>
<stop offset="0.8009" stop-color="#06E775"/>
<stop offset="1" stop-color="#00F076"/>
</linearGradient>
</defs>
</svg>
