<svg width="172" height="51" viewBox="0 0 172 51" fill="none" xmlns="http://www.w3.org/2000/svg">
<path fill-rule="evenodd" clip-rule="evenodd" d="M6.37037 50H165.63C168.631 50 171 47.529 171 44.625V6.375C171 3.47105 168.631 1 165.63 1H6.37037C3.4703 1 1 3.36956 1 6.375V44.625C1 47.529 3.36889 50 6.37037 50ZM6.37037 51H165.63C169.197 51 172 48.0675 172 44.625V6.375C172 2.9325 169.197 0 165.63 0H6.37037C2.93037 0 0 2.805 0 6.375V44.625C0 48.0675 2.80296 51 6.37037 51Z" fill="#CDD0D2"/>
<path d="M31.5599 25.8829C31.5736 24.8187 31.8561 23.7753 32.381 22.8497C32.906 21.9241 33.6563 21.1464 34.5623 20.589C33.9868 19.7664 33.2275 19.0895 32.3448 18.6119C31.4621 18.1344 30.4803 17.8694 29.4773 17.838C27.3378 17.6133 25.2637 19.1191 24.1735 19.1191C23.0621 19.1191 21.3835 17.8603 19.576 17.8975C18.4068 17.9353 17.2673 18.2756 16.2686 18.8851C15.2699 19.4946 14.446 20.3526 13.8771 21.3755C11.4131 25.6448 13.251 31.9191 15.6114 35.37C16.7923 37.0598 18.1725 38.9474 19.9785 38.8804C21.7457 38.8071 22.4057 37.7527 24.5389 37.7527C26.6523 37.7527 27.2715 38.8804 29.1141 38.8379C31.0104 38.8071 32.2051 37.1406 33.3447 35.4347C34.1932 34.2307 34.8461 32.8999 35.2792 31.4918C34.1775 31.0255 33.2374 30.245 32.576 29.2476C31.9146 28.2501 31.5612 27.0799 31.5599 25.8829Z" fill="black"/>
<path d="M28.0797 15.5669C29.1137 14.3248 29.623 12.7283 29.4997 11.1164C27.9201 11.2824 26.4609 12.0379 25.413 13.2324C24.9006 13.8159 24.5082 14.4948 24.2582 15.2301C24.0082 15.9655 23.9054 16.743 23.9558 17.5181C24.7459 17.5263 25.5276 17.3549 26.2419 17.0169C26.9562 16.6789 27.5846 16.1832 28.0797 15.5669Z" fill="black"/>
<path d="M53.9005 34.5963H47.8698L46.4216 38.8757H43.8672L49.5794 23.0428H52.2333L57.9455 38.8757H55.3475L53.9005 34.5963ZM48.4944 32.6215H53.2747L50.9182 25.6763H50.8522L48.4944 32.6215Z" fill="black"/>
<path d="M70.2798 33.1085C70.2798 36.6957 68.3612 39.0004 65.466 39.0004C64.7325 39.0388 64.0031 38.8697 63.3613 38.5125C62.7194 38.1553 62.191 37.6245 61.8366 36.9808H61.7818V42.6983H59.4141V27.3361H61.7059V29.2561H61.7495C62.1202 28.6155 62.6575 28.0874 63.3043 27.728C63.951 27.3687 64.683 27.1915 65.4224 27.2154C68.35 27.2154 70.2798 29.5313 70.2798 33.1085ZM67.8461 33.1085C67.8461 30.7714 66.6392 29.2349 64.7978 29.2349C62.9887 29.2349 61.7719 30.8038 61.7719 33.1085C61.7719 35.4344 62.9887 36.992 64.7978 36.992C66.6392 36.992 67.8461 35.4667 67.8461 33.1085Z" fill="black"/>
<path d="M82.979 33.1085C82.979 36.6957 81.0605 39.0003 78.1652 39.0003C77.4317 39.0387 76.7023 38.8697 76.0605 38.5125C75.4186 38.1553 74.8902 37.6245 74.5358 36.9808H74.481V42.6983H72.1133V27.3361H74.4051V29.2561H74.4487C74.8194 28.6154 75.3567 28.0874 76.0034 27.728C76.6502 27.3687 77.3822 27.1915 78.1216 27.2154C81.0493 27.2154 82.979 29.5313 82.979 33.1085ZM80.5453 33.1085C80.5453 30.7714 79.3385 29.2349 77.497 29.2349C75.6879 29.2349 74.4711 30.8038 74.4711 33.1085C74.4711 35.4343 75.6879 36.992 77.497 36.992C79.3385 36.992 80.5454 35.4667 80.5454 33.1085H80.5453Z" fill="black"/>
<path d="M91.3632 34.4661C91.5387 36.0362 93.0628 37.0671 95.1456 37.0671C97.1413 37.0671 98.5772 36.0361 98.5772 34.6204C98.5772 33.3915 97.7112 32.6557 95.6607 32.1514L93.6103 31.6571C90.705 30.9548 89.3563 29.5951 89.3563 27.3888C89.3563 24.657 91.7352 22.7806 95.1133 22.7806C98.4564 22.7806 100.748 24.657 100.825 27.3888H98.4353C98.2922 25.8088 96.987 24.855 95.0797 24.855C93.1723 24.855 91.8671 25.82 91.8671 27.2245C91.8671 28.3438 92.7007 29.0025 94.74 29.5067L96.4831 29.935C99.7293 30.7033 101.078 32.0082 101.078 34.324C101.078 37.2862 98.7202 39.1414 94.9702 39.1414C91.4615 39.1414 89.0925 37.3297 88.9395 34.466L91.3632 34.4661Z" fill="black"/>
<path d="M106.195 24.6021V27.3339H108.388V29.2102H106.195V35.574C106.195 36.5626 106.634 37.0233 107.598 37.0233C107.859 37.0188 108.119 37.0005 108.377 36.9685V38.8337C107.944 38.9148 107.503 38.9515 107.062 38.9433C104.727 38.9433 103.816 38.0655 103.816 35.8267V29.2102H102.139V27.3339H103.816V24.6021H106.195Z" fill="black"/>
<path d="M109.654 33.1063C109.654 29.4743 111.792 27.192 115.125 27.192C118.47 27.192 120.597 29.4743 120.597 33.1063C120.597 36.7483 118.481 39.0206 115.125 39.0206C111.771 39.0206 109.654 36.7483 109.654 33.1063ZM118.185 33.1063C118.185 30.6148 117.044 29.1444 115.125 29.1444C113.207 29.1444 112.067 30.626 112.067 33.1063C112.067 35.6077 113.207 37.067 115.125 37.067C117.044 37.067 118.185 35.6077 118.185 33.1063H118.185Z" fill="black"/>
<path d="M122.555 27.336H124.813V29.3008H124.868C125.021 28.6872 125.38 28.1449 125.885 27.7651C126.39 27.3853 127.011 27.1911 127.642 27.2152C127.915 27.2143 128.187 27.2439 128.454 27.3036V29.5199C128.109 29.4146 127.75 29.3662 127.39 29.3768C127.046 29.3628 126.703 29.4235 126.384 29.5547C126.066 29.6858 125.78 29.8844 125.546 30.1367C125.311 30.389 125.134 30.6891 125.027 31.0164C124.919 31.3436 124.883 31.6903 124.922 32.0326V38.8795H122.555L122.555 27.336Z" fill="black"/>
<path d="M139.37 35.487C139.052 37.5825 137.012 39.0206 134.403 39.0206C131.048 39.0206 128.965 36.7707 128.965 33.1611C128.965 29.5403 131.059 27.192 134.304 27.192C137.495 27.192 139.502 29.3859 139.502 32.8859V33.6977H131.355V33.8409C131.317 34.2657 131.371 34.6937 131.511 35.0964C131.651 35.4991 131.876 35.8673 132.169 36.1766C132.463 36.4858 132.819 36.729 133.213 36.8901C133.608 37.0511 134.032 37.1263 134.458 37.1106C135.018 37.163 135.579 37.0334 136.059 36.7408C136.539 36.4483 136.912 36.0085 137.122 35.4869L139.37 35.487ZM131.366 32.0417H137.133C137.154 31.6597 137.096 31.2775 136.963 30.9189C136.83 30.5604 136.624 30.2333 136.358 29.9582C136.092 29.6831 135.773 29.4659 135.419 29.3203C135.066 29.1747 134.686 29.1038 134.304 29.112C133.918 29.1097 133.536 29.1838 133.179 29.3301C132.822 29.4764 132.498 29.692 132.225 29.9643C131.952 30.2367 131.735 30.5605 131.588 30.9171C131.441 31.2736 131.365 31.6559 131.366 32.0417V32.0417Z" fill="black"/>
<path d="M46.8076 14.3481H47.8241C47.9991 14.3699 48.1767 14.3552 48.3458 14.3049C48.5148 14.2546 48.6716 14.1698 48.8062 14.0559C48.9409 13.9419 49.0505 13.8013 49.1282 13.6429C49.2058 13.4844 49.2499 13.3116 49.2575 13.1353C49.2575 12.4337 48.7299 11.9805 47.8353 11.9805C47.6561 11.9554 47.4736 11.9666 47.2987 12.0132C47.1238 12.0599 46.96 12.1412 46.817 12.2522C46.674 12.3633 46.5546 12.5019 46.4661 12.6599C46.3775 12.8179 46.3214 12.992 46.3012 13.1721H45.1851C45.2043 12.8453 45.2906 12.526 45.4384 12.234C45.5863 11.942 45.7927 11.6836 46.0447 11.4749C46.2966 11.2661 46.5889 11.1116 46.9032 11.0208C47.2174 10.9299 47.547 10.9049 47.8714 10.947C49.3682 10.947 50.4221 11.7856 50.4221 12.9928C50.4256 13.3972 50.2904 13.7905 50.039 14.1072C49.7877 14.4239 49.4354 14.6447 49.041 14.7328V14.8225C49.5086 14.8432 49.9489 15.0484 50.2658 15.3931C50.5826 15.7378 50.7502 16.1941 50.7319 16.6621C50.6973 16.9986 50.5959 17.3247 50.4337 17.6215C50.2715 17.9182 50.0517 18.1796 49.7873 18.3902C49.5229 18.6009 49.2191 18.7566 48.8937 18.8482C48.5683 18.9399 48.228 18.9656 47.8926 18.9239C47.5565 18.9697 47.2146 18.9474 46.8873 18.8582C46.5599 18.769 46.2539 18.6148 45.9875 18.4047C45.721 18.1946 45.4995 17.933 45.3363 17.6354C45.173 17.3379 45.0712 17.0105 45.0371 16.6727H46.1706C46.239 17.4005 46.9072 17.8699 47.8926 17.8699C48.878 17.8699 49.5213 17.3426 49.5213 16.5993C49.5213 15.8454 48.9153 15.3809 47.8565 15.3809H46.8076V14.3481Z" fill="black"/>
<path d="M52.0176 17.1178C52.0176 16.0844 52.7877 15.4886 54.1514 15.4039L55.7054 15.3143V14.8187C55.7054 14.2124 55.306 13.87 54.5309 13.87C53.8988 13.87 53.4621 14.1022 53.3352 14.5081H52.239C52.3548 13.5219 53.2829 12.8894 54.5844 12.8894C56.0227 12.8894 56.8339 13.606 56.8339 14.8187V18.7415H55.7428V17.9346H55.6532C55.4713 18.224 55.216 18.46 54.9133 18.6184C54.6105 18.7767 54.2712 18.8518 53.9299 18.8361C53.6891 18.8611 53.4457 18.8354 53.2154 18.7606C52.9851 18.6857 52.773 18.5634 52.5928 18.4015C52.4126 18.2397 52.2684 18.0418 52.1693 17.8207C52.0702 17.5996 52.0185 17.3601 52.0176 17.1178ZM55.7054 16.6273V16.1473L54.3044 16.2369C53.5143 16.2898 53.156 16.5588 53.156 17.0649C53.156 17.5816 53.6039 17.8823 54.2198 17.8823C54.4003 17.9006 54.5826 17.8824 54.7559 17.8287C54.9292 17.7751 55.0899 17.6871 55.2285 17.57C55.3671 17.4529 55.4808 17.3091 55.5627 17.1471C55.6446 16.9852 55.6932 16.8084 55.7054 16.6273Z" fill="black"/>
<path d="M59.8393 13.9521V18.7395H58.707V12.9983H62.4845V13.952L59.8393 13.9521Z" fill="black"/>
<path d="M69.3439 15.8686C69.3439 17.6927 68.422 18.8363 66.9737 18.8363C66.6182 18.8606 66.2631 18.7827 65.9503 18.6119C65.6375 18.4411 65.38 18.1843 65.2082 17.872H65.1186V20.6504H63.9863V13.0005H65.0763V13.9493H65.1609C65.3358 13.626 65.5967 13.3574 65.9146 13.1731C66.2326 12.9889 66.5952 12.8962 66.9625 12.9052C68.4219 12.9052 69.3439 14.0438 69.3439 15.8686ZM68.1793 15.8686C68.1793 14.6558 67.6057 13.9231 66.6465 13.9231C65.6935 13.9231 65.0974 14.6714 65.0974 15.8736C65.0974 17.0701 65.6934 17.819 66.6415 17.819C67.6057 17.819 68.1793 17.0863 68.1793 15.8686Z" fill="black"/>
<path d="M70.8544 20.7959V19.8203C70.9769 19.8359 71.1003 19.843 71.2238 19.8415C71.4651 19.8593 71.7044 19.7875 71.8959 19.6396C72.0874 19.4917 72.2176 19.2783 72.2615 19.0402L72.3461 18.7607L70.2695 12.9983H71.5025L72.9409 17.5585H73.0305L74.4638 12.9983H75.6645L73.5257 18.9767C73.0355 20.3738 72.493 20.822 71.3234 20.822C71.2289 20.822 70.9601 20.8114 70.8544 20.7959Z" fill="black"/>
<path d="M76.5449 17.11H77.6722C77.7829 17.6162 78.257 17.8801 78.9201 17.8801C79.6741 17.8801 80.137 17.5477 80.137 17.031C80.137 16.4775 79.7214 16.2136 78.9201 16.2136H78.0616V15.3333H78.9052C79.5895 15.3333 79.9379 15.0699 79.9379 14.5899C79.9379 14.1685 79.6007 13.8466 78.9052 13.8466C78.2719 13.8466 77.809 14.1156 77.7356 14.5688H76.6445C76.726 14.048 77.0086 13.5801 77.4314 13.2656C77.8541 12.9511 78.3834 12.8153 78.9052 12.8873C80.2688 12.8873 81.049 13.5042 81.049 14.4742C81.0553 14.7443 80.9689 15.0084 80.804 15.2223C80.6391 15.4362 80.4058 15.5871 80.1432 15.6495V15.7392C80.4559 15.7796 80.7429 15.9334 80.9498 16.1715C81.1567 16.4096 81.269 16.7155 81.2655 17.031C81.2655 18.1224 80.3373 18.8445 78.9201 18.8445C77.6672 18.8445 76.6494 18.2698 76.5449 17.11Z" fill="black"/>
<path d="M82.8984 18.7391V12.9979H84.0207V16.9468H84.1103L86.7543 12.9979H87.8765V18.7391H86.7543V14.7691H86.6696L84.0207 18.7391L82.8984 18.7391Z" fill="black"/>
<path d="M94.0573 13.9528H92.2507V18.7403H91.1172V13.9528H89.3105V12.9991H94.0573V13.9528Z" fill="black"/>
<path d="M100.15 17.1914C99.9958 17.7161 99.6622 18.1699 99.2076 18.4735C98.753 18.777 98.2063 18.9112 97.6629 18.8524C97.285 18.8624 96.9093 18.7899 96.5621 18.6401C96.215 18.4902 95.9045 18.2666 95.6524 17.9846C95.4002 17.7027 95.2124 17.3692 95.1019 17.0073C94.9915 16.6454 94.9611 16.2638 95.0127 15.889C94.9624 15.513 94.9934 15.1306 95.1036 14.7677C95.2138 14.4047 95.4006 14.0697 95.6514 13.7853C95.9023 13.5008 96.2112 13.2737 96.5574 13.1191C96.9036 12.9646 97.2789 12.8863 97.6579 12.8895C99.2543 12.8895 100.219 13.9809 100.219 15.7838V16.1791H96.1674V16.2426C96.1494 16.4534 96.1758 16.6655 96.2446 16.8655C96.3135 17.0654 96.4234 17.2487 96.5673 17.4036C96.7112 17.5585 96.8859 17.6816 97.0802 17.7649C97.2744 17.8482 97.484 17.8899 97.6953 17.8874C97.9659 17.9198 98.2401 17.8709 98.4829 17.747C98.7257 17.623 98.9262 17.4296 99.0589 17.1914L100.15 17.1914ZM96.1673 15.3412H99.0639C99.0782 15.1486 99.0521 14.9551 98.9873 14.7732C98.9224 14.5913 98.8203 14.425 98.6874 14.285C98.5546 14.1449 98.3939 14.0342 98.2157 13.96C98.0376 13.8857 97.8459 13.8496 97.6529 13.8539C97.4571 13.8512 97.2626 13.8879 97.0812 13.9617C96.8997 14.0355 96.7348 14.1449 96.5963 14.2836C96.4578 14.4223 96.3485 14.5873 96.2749 14.7689C96.2012 14.9506 96.1646 15.1452 96.1674 15.3412H96.1673Z" fill="black"/>
<path d="M104.961 12.9983H107.548C108.67 12.9983 109.328 13.5673 109.328 14.4582C109.33 14.7409 109.235 15.0156 109.058 15.2363C108.882 15.4571 108.635 15.6105 108.359 15.6709V15.7606C108.694 15.7818 109.008 15.9309 109.236 16.1772C109.465 16.4235 109.59 16.7482 109.586 17.0841C109.586 18.0858 108.833 18.7395 107.574 18.7395H104.961V12.9983ZM106.083 13.868V15.3547H107.206C107.89 15.3547 108.217 15.0913 108.217 14.6057C108.217 14.1581 107.932 13.868 107.331 13.868L106.083 13.868ZM106.083 16.1877V17.8698H107.426C108.095 17.8698 108.454 17.5741 108.454 17.0313C108.454 16.4566 108.048 16.1877 107.284 16.1877L106.083 16.1877Z" fill="black"/>
</svg>
