<svg width="285" height="80" viewBox="0 0 285 80" fill="none" xmlns="http://www.w3.org/2000/svg">
<path d="M94.4139 54.9295C94.4139 55.2203 94.4973 55.3789 94.6919 55.3789C94.8309 55.3789 94.9421 55.326 95.0812 55.2467L145.236 24.2423C146.125 23.6872 146.931 23.3965 148.127 23.3965H159.164C160.86 23.3965 162 24.4802 162 26.0925V46.1013C162 48.5066 161.444 49.9075 159.164 51.2026L145.792 58.8414C145.625 58.9471 145.458 59 145.347 59C145.18 59 145.041 58.8943 145.041 58.4449V35.0793C145.041 34.815 144.958 34.63 144.763 34.63C144.624 34.63 144.513 34.6828 144.374 34.7621L107.703 57.4141C106.674 58.0485 105.84 58.2335 104.895 58.2335H80.5686C78.8727 58.2335 77.7329 57.1498 77.7329 55.5374V26.7269C77.7329 26.5154 77.6217 26.3304 77.4548 26.3304C77.3158 26.3304 77.2046 26.3833 77.0656 26.4626L52.8781 40.2863C52.6279 40.4185 52.5723 40.5507 52.5723 40.6564C52.5723 40.7621 52.6001 40.8414 52.7947 41L70.0596 57.4141C70.282 57.6255 70.4488 57.8106 70.4488 57.9692C70.4488 58.1542 70.1986 58.2599 69.8928 58.2599H54.2682C53.0449 58.2599 52.0996 58.0749 51.4324 57.4405L40.9511 47.4758C40.8399 47.37 40.7565 47.3172 40.6453 47.3172C40.5619 47.3172 40.4229 47.37 40.3117 47.4229L22.7966 57.4405C21.7401 58.0485 21.0173 58.2335 19.9608 58.2335H3.83578C2.13987 58.2335 1 57.1498 1 55.5374V35.8987C1 33.467 1.55604 32.0925 3.83578 30.7974L17.2918 23.1057C17.4308 23.0264 17.542 23 17.6533 23C17.8479 23 17.9591 23.2115 17.9591 23.6344V49.9075C17.9591 50.1718 18.0425 50.304 18.2371 50.304C18.3483 50.304 18.4873 50.2247 18.6263 50.1454L64.0822 24.163C65.1665 23.5551 65.8337 23.37 67.0848 23.37H91.5503C93.2462 23.37 94.3861 24.4537 94.3861 26.0661L94.4139 54.9295Z" fill="white"/>
<path d="M199.323 58.3086H193V23.2766H215.857V28.347H199.323V38.073H212.86V43.2817H199.323V58.3086Z" fill="white"/>
<path d="M227.302 58.3086H221.26V23H227.302V58.3086Z" fill="white"/>
<path d="M232.468 45.2177C232.468 42.79 232.968 40.6082 233.967 38.6722C234.998 36.7055 236.418 35.1844 238.23 34.1088C240.072 33.0026 242.18 32.4494 244.553 32.4494C248.269 32.4494 251.141 33.6172 253.171 35.9526C255.232 38.2574 256.262 41.4379 256.262 45.4942V47.799H238.417C238.635 49.9193 239.369 51.5634 240.618 52.7311C241.867 53.8681 243.553 54.4366 245.677 54.4366C247.332 54.4366 248.877 54.1447 250.314 53.5608C251.75 52.977 253.155 51.9936 254.529 50.6108V56.2804C253.405 57.1408 252.047 57.8015 250.454 58.2625C248.893 58.7542 247.222 59 245.443 59C242.695 59 240.337 58.4622 238.37 57.3867C236.434 56.2804 234.966 54.7593 233.967 52.8233C232.968 50.8873 232.468 48.6594 232.468 46.1396V45.2177ZM250.267 43.2817C250.267 41.2843 249.736 39.7324 248.674 38.6261C247.644 37.4891 246.255 36.9206 244.506 36.9206C242.882 36.9206 241.493 37.5045 240.337 38.6722C239.213 39.8399 238.589 41.3764 238.464 43.2817H250.267Z" fill="white"/>
<path d="M265.068 58.3086H258.839L268.347 45.1255L259.869 33.1408H266.661L271.86 40.8387L277.34 33.1408H283.429L274.951 44.895L284.459 58.3086H277.434L271.298 49.3662L265.068 58.3086Z" fill="white"/>
</svg>
