<svg width="345" height="15" viewBox="0 0 345 15" fill="none" xmlns="http://www.w3.org/2000/svg">
<path d="M4.81114 0.268886C4.81114 0.268886 3.19782 0.297695 2.01665 0.412932C0.835467 0.528169 0.0864277 0.960307 0.0576184 1.82458C0.0576184 2.68886 0.0576184 4.47503 0.0576184 4.47503C0.0576184 4.47503 0.115237 5.68502 1.32522 6.00192C2.56402 6.31882 3.22663 6.46287 4.17734 6.60691C5.12804 6.75096 21.2324 8.70999 22.7017 8.91165C24.1709 9.11332 24.2285 9.40141 24.2285 9.57426V10.669C24.2285 10.669 24.1421 11.4469 23.5659 11.4757C23.0474 11.5045 2.76568 11.5045 0.259283 11.5045C0.115237 11.5045 0 11.6197 0 11.7638V14.0685C0 14.2125 0.115237 14.3278 0.259283 14.3278H26.879C26.879 14.3278 29.2125 14.2702 29.6447 14.2125C30.0768 14.1837 31.3444 13.7516 31.4885 13.0314C31.6325 12.3111 31.6325 11.274 31.6325 10.669C31.6325 10.064 31.6037 9.08451 31.5173 8.82522C31.4309 8.56594 31.2868 7.93214 30.3649 7.67285C29.443 7.41357 28.2618 7.09667 27.1959 6.92381C26.13 6.75096 9.42061 4.84955 9.42061 4.84955C9.42061 4.84955 8.38348 4.70551 7.98015 4.61908C7.57682 4.53265 7.23111 4.30218 7.23111 4.0717C7.23111 3.87004 7.23111 3.35147 7.23111 3.35147C7.23111 3.35147 7.37516 2.89052 7.83611 2.89052C8.26825 2.86172 28.2042 2.89052 30.653 2.89052C30.7971 2.89052 30.8835 2.77529 30.8835 2.63124V0.556978C30.8835 0.412932 30.7682 0.297695 30.6242 0.297695L4.81114 0.268886Z" fill="white"/>
<path d="M4.81114 0.268886C4.81114 0.268886 3.19782 0.297695 2.01665 0.412932C0.835467 0.528169 0.0864277 0.960307 0.0576184 1.82458C0.0576184 2.68886 0.0576184 4.47503 0.0576184 4.47503C0.0576184 4.47503 0.115237 5.68502 1.32522 6.00192C2.56402 6.31882 3.22663 6.46287 4.17734 6.60691C5.12804 6.75096 21.2324 8.70999 22.7017 8.91165C24.1709 9.11332 24.2285 9.40141 24.2285 9.57426V10.669C24.2285 10.669 24.1421 11.4469 23.5659 11.4757C23.0474 11.5045 2.76568 11.5045 0.259283 11.5045C0.115237 11.5045 0 11.6197 0 11.7638V14.0685C0 14.2125 0.115237 14.3278 0.259283 14.3278H26.879C26.879 14.3278 29.2125 14.2702 29.6447 14.2125C30.0768 14.1837 31.3444 13.7516 31.4885 13.0314C31.6325 12.3111 31.6325 11.274 31.6325 10.669C31.6325 10.064 31.6037 9.08451 31.5173 8.82522C31.4309 8.56594 31.2868 7.93214 30.3649 7.67285C29.443 7.41357 28.2618 7.09667 27.1959 6.92381C26.13 6.75096 9.42061 4.84955 9.42061 4.84955C9.42061 4.84955 8.38348 4.70551 7.98015 4.61908C7.57682 4.53265 7.23111 4.30218 7.23111 4.0717C7.23111 3.87004 7.23111 3.35147 7.23111 3.35147C7.23111 3.35147 7.37516 2.89052 7.83611 2.89052C8.26825 2.86172 28.2042 2.89052 30.653 2.89052C30.7971 2.89052 30.8835 2.77529 30.8835 2.63124V0.556978C30.8835 0.412932 30.7682 0.297695 30.6242 0.297695L4.81114 0.268886Z" fill="white"/>
<path d="M127.481 7.32714H111.348C111.06 7.32714 110.829 7.09667 110.858 6.80858L110.915 3.38028C110.915 3.09219 111.146 2.89052 111.405 2.89052H127.538C127.538 2.89052 129.699 2.91933 129.786 4.12932C129.872 5.33931 129.786 6.08835 129.786 6.08835C129.786 6.08835 130.074 7.32714 127.481 7.32714ZM137.42 13.9245L134.078 9.94878C134.078 9.94878 133.819 9.80474 133.905 9.48784C133.992 9.17093 133.848 9.40141 134.741 8.96927C135.634 8.53713 136.21 7.67285 136.239 6.69334C136.268 5.68502 136.325 3.46671 135.864 1.79577C135.461 0.326504 131.917 0.297695 131.917 0.297695H104.52C104.376 0.297695 104.289 0.412932 104.289 0.528169L104.318 14.0973C104.318 14.2414 104.433 14.3566 104.577 14.3566H110.656C110.8 14.3566 110.915 14.2414 110.915 14.0973V11.0147C110.915 10.4385 111.376 9.94878 111.981 9.94878H127.164L130.794 14.3278H137.247C137.449 14.3278 137.564 14.0685 137.42 13.9245Z" fill="white"/>
<path d="M127.481 7.32714H111.348C111.06 7.32714 110.829 7.09667 110.858 6.80858L110.915 3.38028C110.915 3.09219 111.146 2.89052 111.405 2.89052H127.538C127.538 2.89052 129.699 2.91933 129.786 4.12932C129.872 5.33931 129.786 6.08835 129.786 6.08835C129.786 6.08835 130.074 7.32714 127.481 7.32714ZM137.42 13.9245L134.078 9.94878C134.078 9.94878 133.819 9.80474 133.905 9.48784C133.992 9.17093 133.848 9.40141 134.741 8.96927C135.634 8.53713 136.21 7.67285 136.239 6.69334C136.268 5.68502 136.325 3.46671 135.864 1.79577C135.461 0.326504 131.917 0.297695 131.917 0.297695H104.52C104.376 0.297695 104.289 0.412932 104.289 0.528169L104.318 14.0973C104.318 14.2414 104.433 14.3566 104.577 14.3566H110.656C110.8 14.3566 110.915 14.2414 110.915 14.0973V11.0147C110.915 10.4385 111.376 9.94878 111.981 9.94878H127.164L130.794 14.3278H137.247C137.449 14.3278 137.564 14.0685 137.42 13.9245Z" fill="white"/>
<path d="M77.8713 9.45903C77.8713 11.5909 75.6818 11.7926 74.9328 11.9078C74.2125 12.023 67.9898 12.0807 67.9898 12.0807C67.9898 12.0807 61.767 12.023 61.0467 11.9078C60.3265 11.7926 58.1082 11.6197 58.1082 9.45903C58.1082 7.32714 58.0794 5.97311 58.1082 5.16645C58.1946 2.89052 60.2977 2.83291 61.0467 2.71767C61.767 2.60243 67.9898 2.54481 67.9898 2.54481C67.9898 2.54481 74.2125 2.60243 74.9328 2.71767C75.653 2.83291 77.7849 2.89052 77.8713 5.16645C77.9001 5.97311 77.8713 7.32714 77.8713 9.45903ZM84.3246 3.63956C84.2093 2.4872 83.9212 0.614597 80.176 0.268886C76.2292 -0.0768246 68.0186 0.00960308 68.0186 0.00960308C68.0186 0.00960308 59.8079 -0.0768246 55.8611 0.268886C52.1159 0.585787 51.8278 2.4872 51.7125 3.63956C51.6261 4.53265 51.5397 7.29833 51.5397 7.29833C51.5397 7.29833 51.6261 10.0928 51.7125 10.9571C51.8278 12.1095 52.1159 13.9821 55.8611 14.3278C59.8079 14.6735 68.0186 14.5871 68.0186 14.5871C68.0186 14.5871 76.2292 14.6735 80.176 14.3278C83.9212 14.0109 84.2093 12.1095 84.3246 10.9571C84.411 10.064 84.4974 7.29833 84.4974 7.29833C84.4974 7.29833 84.411 4.53265 84.3246 3.63956Z" fill="white"/>
<path d="M77.8713 9.45903C77.8713 11.5909 75.6818 11.7926 74.9328 11.9078C74.2125 12.023 67.9898 12.0807 67.9898 12.0807C67.9898 12.0807 61.767 12.023 61.0467 11.9078C60.3265 11.7926 58.1082 11.6197 58.1082 9.45903C58.1082 7.32714 58.0794 5.97311 58.1082 5.16645C58.1946 2.89052 60.2977 2.83291 61.0467 2.71767C61.767 2.60243 67.9898 2.54481 67.9898 2.54481C67.9898 2.54481 74.2125 2.60243 74.9328 2.71767C75.653 2.83291 77.7849 2.89052 77.8713 5.16645C77.9001 5.97311 77.8713 7.32714 77.8713 9.45903ZM84.3246 3.63956C84.2093 2.4872 83.9212 0.614597 80.176 0.268886C76.2292 -0.0768246 68.0186 0.00960308 68.0186 0.00960308C68.0186 0.00960308 59.8079 -0.0768246 55.8611 0.268886C52.1159 0.585787 51.8278 2.4872 51.7125 3.63956C51.6261 4.53265 51.5397 7.29833 51.5397 7.29833C51.5397 7.29833 51.6261 10.0928 51.7125 10.9571C51.8278 12.1095 52.1159 13.9821 55.8611 14.3278C59.8079 14.6735 68.0186 14.5871 68.0186 14.5871C68.0186 14.5871 76.2292 14.6735 80.176 14.3278C83.9212 14.0109 84.2093 12.1095 84.3246 10.9571C84.411 10.064 84.4974 7.29833 84.4974 7.29833C84.4974 7.29833 84.411 4.53265 84.3246 3.63956Z" fill="white"/>
<path d="M187.433 12.1383H165.653C162.743 12.1383 162.743 11.3604 162.743 11.3604V9.66069C162.743 9.17093 163.464 9.14213 163.464 9.14213H187.029C187.202 9.14213 187.375 8.96927 187.375 8.79641V7.78809C187.404 7.78809 187.404 7.78809 187.375 7.78809V7.67285C187.404 7.67285 187.404 7.67285 187.375 7.67285V6.63572C187.375 6.46287 187.202 6.29001 187.029 6.29001H163.464C163.464 6.29001 162.743 6.2612 162.743 5.77145V4.0717C162.743 4.0717 162.743 3.29385 165.653 3.29385H187.433C187.606 3.29385 187.721 3.14981 187.721 3.00576V0.989116C187.721 0.816261 187.606 0.701024 187.433 0.701024C184.696 0.701024 163.896 0.729833 162.254 0.729833C160.496 0.729833 156.492 0.643406 156.204 3.32266C156.088 4.33099 156.088 5.45455 156.06 7.67285C156.06 7.70166 156.06 7.70166 156.06 7.73047C156.06 7.75928 156.06 7.75928 156.06 7.78809C156.088 10.0064 156.088 11.13 156.204 12.1383C156.492 14.8175 160.496 14.7311 162.254 14.7311C163.896 14.7311 184.696 14.7599 187.433 14.7599C187.606 14.7599 187.721 14.6159 187.721 14.4718V12.4264C187.75 12.2535 187.606 12.1383 187.433 12.1383Z" fill="white"/>
<path d="M187.433 12.1383H165.653C162.743 12.1383 162.743 11.3604 162.743 11.3604V9.66069C162.743 9.17093 163.464 9.14213 163.464 9.14213H187.029C187.202 9.14213 187.375 8.96927 187.375 8.79641V7.78809C187.404 7.78809 187.404 7.78809 187.375 7.78809V7.67285C187.404 7.67285 187.404 7.67285 187.375 7.67285V6.63572C187.375 6.46287 187.202 6.29001 187.029 6.29001H163.464C163.464 6.29001 162.743 6.2612 162.743 5.77145V4.0717C162.743 4.0717 162.743 3.29385 165.653 3.29385H187.433C187.606 3.29385 187.721 3.14981 187.721 3.00576V0.989116C187.721 0.816261 187.606 0.701024 187.433 0.701024C184.696 0.701024 163.896 0.729833 162.254 0.729833C160.496 0.729833 156.492 0.643406 156.204 3.32266C156.088 4.33099 156.088 5.45455 156.06 7.67285C156.06 7.70166 156.06 7.70166 156.06 7.73047C156.06 7.75928 156.06 7.75928 156.06 7.78809C156.088 10.0064 156.088 11.13 156.204 12.1383C156.492 14.8175 160.496 14.7311 162.254 14.7311C163.896 14.7311 184.696 14.7599 187.433 14.7599C187.606 14.7599 187.721 14.6159 187.721 14.4718V12.4264C187.75 12.2535 187.606 12.1383 187.433 12.1383Z" fill="white"/>
<path d="M207.887 14.3854V1.04673C207.887 0.84507 208.031 0.701024 208.233 0.701024H214.427C214.427 0.701024 215.637 0.585787 217.711 1.76697C219.497 2.77529 230.848 8.85403 234.046 10.5826C234.421 10.7843 234.882 10.4962 234.882 10.064V1.04673C234.882 0.84507 235.026 0.701024 235.227 0.701024H240.96C241.162 0.701024 241.306 0.84507 241.306 1.04673V14.3854C241.306 14.5871 241.162 14.7311 240.96 14.7311H236.898C236.898 14.7311 235.659 14.8752 234.075 14.0397C232.663 13.3195 218.864 5.82906 215.262 3.87004C214.888 3.66837 214.427 3.95647 214.427 4.3886V14.3854C214.427 14.5871 214.283 14.7311 214.081 14.7311H208.233C208.031 14.7311 207.887 14.5871 207.887 14.3854Z" fill="white"/>
<path d="M207.887 14.3854V1.04673C207.887 0.84507 208.031 0.701024 208.233 0.701024H214.427C214.427 0.701024 215.637 0.585787 217.711 1.76697C219.497 2.77529 230.848 8.85403 234.046 10.5826C234.421 10.7843 234.882 10.4962 234.882 10.064V1.04673C234.882 0.84507 235.026 0.701024 235.227 0.701024H240.96C241.162 0.701024 241.306 0.84507 241.306 1.04673V14.3854C241.306 14.5871 241.162 14.7311 240.96 14.7311H236.898C236.898 14.7311 235.659 14.8752 234.075 14.0397C232.663 13.3195 218.864 5.82906 215.262 3.87004C214.888 3.66837 214.427 3.95647 214.427 4.3886V14.3854C214.427 14.5871 214.283 14.7311 214.081 14.7311H208.233C208.031 14.7311 207.887 14.5871 207.887 14.3854Z" fill="white"/>
<path d="M260.003 0.701024H292.125C292.356 0.701024 292.529 0.87388 292.529 1.10435V3.14981C292.529 3.38028 292.356 3.55314 292.125 3.55314H280.285C279.91 3.55314 279.593 3.87004 279.593 4.24456V14.3854C279.593 14.6159 279.421 14.7887 279.19 14.7887H273.457C273.227 14.7887 273.054 14.6159 273.054 14.3854V4.24456C273.054 3.87004 272.737 3.55314 272.362 3.55314H260.003C259.773 3.55314 259.6 3.38028 259.6 3.14981V1.07554C259.6 0.87388 259.773 0.701024 260.003 0.701024Z" fill="white"/>
<path d="M260.003 0.701024H292.125C292.356 0.701024 292.529 0.87388 292.529 1.10435V3.14981C292.529 3.38028 292.356 3.55314 292.125 3.55314H280.285C279.91 3.55314 279.593 3.87004 279.593 4.24456V14.3854C279.593 14.6159 279.421 14.7887 279.19 14.7887H273.457C273.227 14.7887 273.054 14.6159 273.054 14.3854V4.24456C273.054 3.87004 272.737 3.55314 272.362 3.55314H260.003C259.773 3.55314 259.6 3.38028 259.6 3.14981V1.07554C259.6 0.87388 259.773 0.701024 260.003 0.701024Z" fill="white"/>
<path d="M337.471 9.86236C337.471 11.9942 335.282 12.1959 334.533 12.3111C333.812 12.4264 327.59 12.484 327.59 12.484C327.59 12.484 321.367 12.4264 320.647 12.3111C319.926 12.1959 317.708 12.023 317.708 9.86236C317.708 7.73047 317.679 6.37644 317.708 5.56978C317.794 3.29385 319.898 3.23624 320.647 3.121C321.367 3.00576 327.59 2.94814 327.59 2.94814C327.59 2.94814 333.812 3.00576 334.533 3.121C335.253 3.23624 337.385 3.29385 337.471 5.56978C337.5 6.37644 337.471 7.73047 337.471 9.86236ZM343.924 4.04289C343.809 2.89052 343.521 1.01793 339.776 0.672215C335.829 0.326504 327.618 0.412932 327.618 0.412932C327.618 0.412932 319.408 0.326504 315.461 0.672215C311.716 0.989116 311.428 2.89052 311.312 4.04289C311.226 4.93598 311.14 7.70166 311.14 7.70166C311.14 7.70166 311.226 10.4962 311.312 11.3604C311.428 12.5128 311.716 14.3854 315.461 14.7311C319.408 15.0768 327.618 14.9904 327.618 14.9904C327.618 14.9904 335.829 15.0768 339.776 14.7311C343.521 14.4142 343.809 12.5128 343.924 11.3604C344.011 10.4674 344.097 7.70166 344.097 7.70166C344.097 7.70166 344.011 4.93598 343.924 4.04289Z" fill="white"/>
<path d="M337.471 9.86236C337.471 11.9942 335.282 12.1959 334.533 12.3111C333.812 12.4264 327.59 12.484 327.59 12.484C327.59 12.484 321.367 12.4264 320.647 12.3111C319.926 12.1959 317.708 12.023 317.708 9.86236C317.708 7.73047 317.679 6.37644 317.708 5.56978C317.794 3.29385 319.898 3.23624 320.647 3.121C321.367 3.00576 327.59 2.94814 327.59 2.94814C327.59 2.94814 333.812 3.00576 334.533 3.121C335.253 3.23624 337.385 3.29385 337.471 5.56978C337.5 6.37644 337.471 7.73047 337.471 9.86236ZM343.924 4.04289C343.809 2.89052 343.521 1.01793 339.776 0.672215C335.829 0.326504 327.618 0.412932 327.618 0.412932C327.618 0.412932 319.408 0.326504 315.461 0.672215C311.716 0.989116 311.428 2.89052 311.312 4.04289C311.226 4.93598 311.14 7.70166 311.14 7.70166C311.14 7.70166 311.226 10.4962 311.312 11.3604C311.428 12.5128 311.716 14.3854 315.461 14.7311C319.408 15.0768 327.618 14.9904 327.618 14.9904C327.618 14.9904 335.829 15.0768 339.776 14.7311C343.521 14.4142 343.809 12.5128 343.924 11.3604C344.011 10.4674 344.097 7.70166 344.097 7.70166C344.097 7.70166 344.011 4.93598 343.924 4.04289Z" fill="white"/>
</svg>
