<svg width="54" height="26" viewBox="0 0 54 26" fill="none" xmlns="http://www.w3.org/2000/svg">
<path d="M20.4823 25.9999L17.9348 17.097L15.3873 25.9999H11.4428L8.4844 16.3091H0V14.0243H10.7032L13.4972 23.3999L16.2091 14.0243H19.8249L22.4546 23.3999L25.2486 14.0243H28.1249L24.509 25.9999H20.4823Z" fill="white"/>
<path d="M32.235 17.6481H29.6875V25.9207H32.235V17.6481Z" fill="white"/>
<path d="M38.6447 25.9999C38.0695 25.9999 37.412 25.9211 36.6725 25.8423C36.015 25.7636 35.2754 25.606 34.618 25.4484H34.5358V23.5575H34.618C35.3576 23.7151 36.0972 23.7939 36.6725 23.8727C37.3299 23.9514 37.9051 24.0302 38.5625 24.0302C39.3021 24.0302 39.7952 23.8727 40.1239 23.6363C40.4526 23.3999 40.617 22.9272 40.617 22.3757C40.617 22.1393 40.5348 21.9818 40.4526 21.8242C40.3704 21.6666 40.2061 21.5878 40.0417 21.4303C39.8774 21.3515 39.6308 21.1939 39.3021 21.1151C39.0556 21.0363 38.6447 20.9575 38.2338 20.8787C37.5764 20.7212 37.0833 20.5636 36.5903 20.406C36.0972 20.2484 35.6863 19.9333 35.3576 19.6969C35.0289 19.3818 34.7824 19.0666 34.5358 18.6727C34.3715 18.2788 34.2893 17.806 34.2893 17.2545C34.2893 16.2303 34.618 15.3636 35.3576 14.8121C36.0972 14.2606 37.1655 13.9455 38.7269 13.9455C39.3021 13.9455 39.8774 14.0243 40.5348 14.103C41.1922 14.1818 41.8496 14.3394 42.5071 14.497H42.5892V16.3879H42.5071C41.8496 16.2303 41.2744 16.1515 40.617 16.0727C40.0417 15.9939 39.4665 15.9939 39.0556 15.9939C38.7269 15.9939 38.4804 15.9939 38.1516 16.0727C37.9051 16.0727 37.6586 16.1515 37.4942 16.2303C37.3299 16.3091 37.1655 16.4667 37.0833 16.6242C37.0012 16.7818 36.919 17.0182 36.919 17.2545C36.919 17.4909 36.919 17.7273 37.0012 17.8848C37.0833 18.0424 37.2477 18.2 37.4121 18.2788C37.5764 18.4363 37.8229 18.5151 38.1516 18.5939C38.4804 18.6727 38.8091 18.7515 39.3021 18.9091C39.9596 19.0666 40.4526 19.2242 40.9457 19.3818C41.4388 19.5394 41.8496 19.7757 42.1784 20.0121C42.5071 20.2484 42.7536 20.5636 42.918 20.9575C43.0823 21.3515 43.1645 21.7454 43.1645 22.2969C43.1645 23.5575 42.7536 24.503 41.9318 25.1333C41.1922 25.7636 40.0417 25.9999 38.7269 25.9999H38.6447Z" fill="white"/>
<path d="M45.1367 25.9213V14.0244H53.6832V15.9941H47.6842V18.8304H53.5188L52.6971 20.8789H47.6842V23.8728H53.6832V25.9213H45.1367Z" fill="white"/>
<path d="M32.235 14.0243H29.6875V16.4667H32.235V14.0243Z" fill="white"/>
<path d="M20.8946 5.75147H23.1956C23.853 5.75147 24.4282 5.5939 24.7569 5.27875C25.0856 4.9636 25.25 4.41209 25.25 3.703C25.25 2.99392 25.0856 2.44241 24.7569 2.20604C24.4282 1.89089 23.9352 1.73332 23.1956 1.73332H20.8946V5.75147ZM25.4965 11.6605L23.1134 7.56358H20.8946V11.6605H18.6758V0H23.3599C24.0173 0 24.6747 0.0787873 25.1678 0.236362C25.6609 0.393936 26.1539 0.551511 26.4827 0.86666C26.8114 1.18181 27.0579 1.57575 27.2223 2.04847C27.3866 2.44241 27.4688 3.0727 27.4688 3.78179C27.4688 5.12117 27.1401 6.14541 26.4827 6.69692C26.2361 6.93328 25.9074 7.09085 25.4965 7.24843H25.4143L28.044 11.6605H25.4965Z" fill="white"/>
<path d="M32.0709 0H29.8521V11.6605H32.0709V0Z" fill="white"/>
<path d="M37.3303 11.6605L33.3857 0H35.6867L38.8095 9.69084L41.9322 0H44.151L40.2887 11.6605H37.3303Z" fill="white"/>
<path d="M45.2964 11.6605V0H53.7607V1.73332H47.5974V4.88481H53.3499L52.6103 6.61813H47.5974V9.84841H53.7607V11.6605H45.2964Z" fill="white"/>
<path d="M16.62 3.30907C16.4556 2.59998 16.2091 2.04847 15.8804 1.57575C15.5517 1.10302 14.9764 0.709086 14.4012 0.472724C13.7438 0.157575 12.922 0 11.9358 0H7.49826V8.11509H9.71705V1.73332H11.7715C12.3467 1.73332 12.8398 1.81211 13.1685 2.04847C13.5794 2.20604 13.8259 2.52119 13.9903 2.83634C14.1546 3.15149 14.319 3.62421 14.4012 4.09694C14.4834 4.56966 14.4834 5.12117 14.4834 5.67268C14.4834 6.2242 14.4834 6.77571 14.4012 7.32722C14.319 7.87873 14.2368 8.27267 13.9903 8.6666C13.8259 9.06054 13.4972 9.37569 13.1685 9.61205C12.7576 9.84841 12.3467 9.9272 11.6893 9.9272H0V11.6605H11.9358C12.922 11.6605 13.7438 11.5029 14.4012 11.1878C15.0586 10.8726 15.5517 10.4787 15.8804 9.9272C16.2091 9.37569 16.4556 8.74539 16.62 8.0363C16.7843 7.32722 16.7843 6.53934 16.7843 5.5939C16.7843 4.72724 16.7843 3.93936 16.62 3.30907Z" fill="white"/>
</svg>
