<svg width="50" height="48" viewBox="0 0 50 48" fill="none" xmlns="http://www.w3.org/2000/svg">
<path fill-rule="evenodd" clip-rule="evenodd" d="M26.7071 2.82843L21.4142 8.12132L20 6.70711L26.7071 0L33.4142 6.70711L32 8.12132L26.7071 2.82843Z" fill="white"/>
<path fill-rule="evenodd" clip-rule="evenodd" d="M26.7071 45L21.4142 39.7071L20 41.1213L26.7071 47.8284L33.4142 41.1213L32 39.7071L26.7071 45Z" fill="white"/>
<path d="M35.544 22.5392H32.769V30.4142H34.629V25.5092L35.634 30.1442H37.719L38.754 25.4792V30.4142H40.599V22.5392H37.824L36.684 27.7292L35.544 22.5392Z" fill="white"/>
<path d="M44.9922 22.5392H42.2172V30.4142H44.0772V25.5092L45.0822 30.1442H47.1672L48.2022 25.4792V30.4142H50.0472V22.5392H47.2722L46.1322 27.7292L44.9922 22.5392Z" fill="white"/>
<path d="M1.96939 30.9999H4.41739V17.7339L0.0253906 18.7959V20.6859L1.96939 20.3799V30.9999Z" fill="white"/>
<path d="M12.12 31.2339C15.396 31.2339 17.088 29.6139 17.088 27.4359C17.088 25.8159 16.026 24.7899 14.766 24.2139C15.846 23.5119 16.62 22.5399 16.62 21.2619C16.62 19.1559 14.964 17.7519 12.102 17.7519C9.20398 17.7519 7.60198 19.1559 7.60198 21.2619C7.60198 22.6119 8.39398 23.5659 9.41998 24.2319C8.28598 24.8439 7.25998 25.8519 7.25998 27.4359C7.25998 29.6679 8.86198 31.2339 12.12 31.2339ZM12.12 29.2179C10.536 29.2179 9.65398 28.5159 9.65398 27.4359C9.65398 26.2839 10.662 25.4559 12.12 25.1859C13.56 25.4559 14.604 26.2659 14.604 27.4359C14.604 28.5159 13.776 29.2179 12.12 29.2179ZM10.104 21.2619C10.104 20.3259 10.788 19.7499 12.102 19.7499C13.47 19.7499 14.172 20.3259 14.172 21.2619C14.172 22.3419 13.488 22.8279 12.12 23.3139C10.698 22.8279 10.104 22.3239 10.104 21.2619Z" fill="white"/>
<path d="M23.928 30.9999H26.232V28.4439H27.798L28.572 26.3919H26.232V17.9139H23.586L18.132 26.5899V28.4439H23.928V30.9999ZM20.814 26.3919L23.928 21.3519V26.3919H20.814Z" fill="white"/>
</svg>
