<svg width="413" height="36" viewBox="0 0 413 36" fill="none" xmlns="http://www.w3.org/2000/svg">
<path d="M412.98 27.0218C412.98 18.3629 412.68 14.4813 412.83 15.2278C412.68 14.332 412.23 13.7348 411.48 12.9884C406.228 7.16601 406.528 7.76318 404.278 7.91247H355.964C355.814 7.91247 355.214 7.91247 354.764 8.21105C354.464 8.50963 354.464 9.1068 354.464 8.95751C354.464 9.55468 354.464 12.5405 354.464 24.6332C354.464 25.5289 355.064 26.1261 355.964 26.1261C359.565 26.1261 363.166 26.1261 366.917 26.1261C367.068 26.1261 367.368 26.1261 367.668 26.1261C368.418 25.9768 368.418 25.3796 368.418 24.6332C368.418 16.87 368.118 15.9742 368.868 14.7799C369.318 14.0334 370.368 14.0334 371.419 14.0334C384.922 14.0334 394.525 14.0334 394.975 14.0334C395.425 14.0334 396.025 14.1827 396.326 14.6306C398.576 16.7207 399.026 17.3179 399.026 18.5122C399.026 26.1261 399.026 26.1261 398.876 26.4247C398.726 26.7232 398.426 27.0218 398.276 27.3204C396.626 28.9626 395.725 29.5598 395.725 29.5598C395.425 29.7091 395.275 29.7091 394.975 29.7091C394.825 29.7091 379.821 29.7091 356.265 29.7091C355.364 29.7091 354.764 30.3062 354.764 31.202C354.764 35.9793 354.464 35.83 356.265 35.83H404.578C405.178 35.83 405.628 35.83 406.228 35.6807C407.129 35.3822 407.579 34.9343 408.179 34.3371C413.58 28.9626 412.98 29.2612 412.98 27.0218Z" fill="white"/>
<path d="M325.956 7.76318H279.143C277.493 7.76318 275.692 7.76318 274.342 9.1068C273.142 10.3011 273.142 12.2419 273.142 13.8841C273.142 20.7516 273.142 27.4697 273.142 34.3371C273.142 34.6357 273.142 34.785 273.142 35.0836C273.292 35.83 273.892 35.83 274.642 35.83H325.956C326.856 35.83 327.457 35.2329 327.457 34.3371V31.202C327.457 30.3062 326.856 29.7091 325.956 29.7091H288.446C287.546 29.7091 286.945 29.1119 286.945 28.2162V26.5739C286.945 25.5289 287.396 25.081 288.446 25.081H325.956C327.007 25.081 327.457 24.6332 327.457 23.5881V20.453C327.457 19.8558 327.457 19.2586 326.706 18.9601C326.406 18.9601 326.256 18.8108 325.956 18.8108H288.446C287.546 18.8108 286.945 18.2136 286.945 17.3179C286.945 13.7348 288.596 14.1827 289.946 14.1827H325.956C326.856 14.1827 327.457 13.5856 327.457 12.6898V9.25609C327.457 8.36034 326.856 7.76318 325.956 7.76318Z" fill="white"/>
<path d="M208.474 14.0334H244.484C245.984 14.0334 245.984 14.1827 245.984 9.40539C245.984 8.50963 245.384 7.91247 244.484 7.91247H197.671C196.021 7.91247 194.22 7.91247 193.02 9.1068C191.669 10.3011 191.669 12.3912 191.669 14.0334C191.669 20.9009 191.669 27.619 191.669 34.4864C191.669 34.785 191.669 35.0836 191.819 35.2329C191.969 35.9793 192.57 35.9793 193.17 35.9793H244.484C245.984 35.9793 245.984 36.5765 245.984 31.3513C245.984 30.4555 245.384 29.8584 244.484 29.8584H206.974C206.073 29.8584 205.473 29.2612 205.473 28.3654V26.7232C205.473 25.8275 205.923 25.2303 206.974 25.2303H244.484C245.984 25.2303 245.984 25.8275 245.984 20.6023C245.984 20.0051 245.984 19.4079 245.234 19.1094C244.934 19.1094 244.634 18.9601 244.484 19.1094H206.974C205.773 19.1094 205.323 18.2136 205.473 16.4221C205.773 14.332 206.974 13.8841 208.474 14.0334Z" fill="white"/>
<path d="M163.011 7.76318C163.312 7.76318 163.912 7.76318 163.011 7.76318V7.76318Z" fill="white"/>
<path d="M163.312 7.76318C163.011 7.76318 163.011 7.76318 163.011 7.76318C162.111 7.76318 159.26 7.76318 151.608 7.76318H116.199C113.048 7.76318 110.647 8.50963 110.347 11.7941C110.197 13.1377 110.047 33.8892 110.347 34.9343C110.497 35.3822 110.647 35.5315 111.097 35.6808C111.247 35.6808 111.547 35.6808 111.697 35.6808C128.802 35.6808 145.907 35.6808 163.011 35.6808C163.912 35.6808 164.512 35.0836 164.512 34.1878V31.0527C164.512 30.1569 163.912 29.5598 163.011 29.5598H125.501C125.201 29.5598 124.901 29.5598 124.601 29.4105C124.001 29.1119 124.001 28.5147 124.001 27.9176C124.001 21.1994 124.001 16.7207 124.001 16.4221C124.001 15.8249 124.151 15.3771 124.301 14.9292C124.901 13.8841 125.951 13.8841 127.002 13.8841C139.005 13.8841 151.008 13.8841 163.011 13.8841C163.161 13.8841 163.462 13.8841 163.762 13.8841C164.512 13.7348 164.512 13.1377 164.512 12.3912C164.512 8.21105 164.662 8.50963 164.212 8.06176C163.912 7.91247 163.612 7.76318 163.312 7.76318Z" fill="white"/>
<path d="M79.5885 32.0977C77.638 32.0977 75.9875 32.0977 74.3371 32.0977C67.7353 32.0977 63.9842 32.0977 63.234 31.9485C62.4838 31.7992 58.2827 29.2612 52.8812 26.1261C51.2307 25.2303 49.5803 24.1853 47.7798 23.1402C46.8795 22.6924 46.2794 22.6924 45.3791 23.1402C43.5786 24.1853 41.9282 25.081 40.5778 25.9768C34.126 29.7091 30.5251 31.7992 29.6248 31.9485C29.0246 32.0977 26.4739 32.0977 23.023 32.0977C21.6726 32.0977 20.1722 32.0977 18.6718 32.0977C17.0213 32.0977 15.2208 32.0977 13.5704 32.0977H12.9702L38.1772 17.6164L13.5704 3.583H14.0205C15.671 3.583 17.3214 3.583 18.9719 3.583C22.2728 3.583 25.5737 3.583 28.8746 3.583C29.4748 3.583 30.0749 3.7323 30.5251 3.88159C31.2753 4.18017 35.9265 6.86742 40.8779 9.70397C42.3783 10.5997 44.0288 11.4955 45.3791 12.2419C46.2794 12.6898 46.8795 12.6898 47.7798 12.2419L61.5836 4.32946C62.4838 3.88159 63.234 3.583 64.2843 3.583H79.5885L54.8317 17.7657L80.0387 32.247H79.5885V32.0977ZM92.9422 35.3822L62.0337 17.7657L92.4921 0.298584C92.4921 0.298584 92.6421 0.149292 92.4921 0.149292C92.4921 0.149292 92.4921 0 92.342 0H64.2843C62.6339 0 61.1335 0.447876 59.7831 1.19433L46.5795 8.80822C44.929 7.91247 43.4286 7.01672 42.0782 6.12097C36.0766 2.68725 32.3256 0.447876 30.9752 0.149292C29.6248 0 21.2225 0 10.7196 0C7.56875 0 4.1178 0 0.66685 0C0.66685 0 0.516809 0 0.516809 0.149292V0.298584L30.9752 17.7657L0.066685 35.3822C0.066685 35.3822 -0.0833562 35.5315 0.066685 35.5315C0.066685 35.5315 0.066685 35.6807 0.216726 35.6807C3.36759 35.6807 6.51846 35.6807 9.66932 35.6807C15.821 35.6807 22.1227 35.6807 28.4245 35.6807C29.9249 35.6807 31.4253 35.2329 32.7757 34.4864C35.9265 32.6949 38.9274 30.9034 41.9282 29.2612C43.4286 28.3654 44.929 27.4697 46.4294 26.5739C47.9298 27.4697 49.5803 28.3654 51.0807 29.2612C54.0815 30.9034 57.2324 32.6949 60.2332 34.4864C61.5836 35.2329 63.084 35.6807 64.7345 35.6807H92.9422C92.9422 35.6807 93.0922 35.6807 93.0922 35.5315C93.0922 35.5315 93.0922 35.5315 92.9422 35.3822Z" fill="white"/>
</svg>
