<svg width="50" height="50" viewBox="0 0 50 50" fill="none" xmlns="http://www.w3.org/2000/svg">
<path d="M9 24.5V10H27.5625H36V20.0532V45H9V38.5" stroke="#05141F" stroke-width="2"/>
<path d="M15 10V5H41V42H35" stroke="#05141F" stroke-width="2"/>
<path d="M14 31C16.5491 31 18.8934 30.7141 20.6316 30.2313C21.4937 29.9918 22.2638 29.6885 22.8417 29.309C23.3788 28.9562 24 28.366 24 27.5C24 26.634 23.3788 26.0438 22.8417 25.691C22.2638 25.3115 21.4937 25.0082 20.6316 24.7687C18.8934 24.2859 16.5491 24 14 24C11.4509 24 9.10661 24.2859 7.3684 24.7687C6.50632 25.0082 5.7362 25.3115 5.15832 25.691C4.62116 26.0438 4 26.634 4 27.5C4 28.366 4.62116 28.9562 5.15832 29.309C5.7362 29.6885 6.50632 29.9918 7.3684 30.2313C9.10661 30.7141 11.4509 31 14 31Z" stroke="#05141F" stroke-width="2"/>
<path d="M24 32C24 33.6569 19.5228 35 14 35C8.47715 35 4 33.6569 4 32" stroke="#05141F" stroke-width="2"/>
<path d="M24 36C24 37.6569 19.5228 39 14 39C8.47715 39 4 37.6569 4 36" stroke="#05141F" stroke-width="2"/>
</svg>
