<svg width="50" height="50" viewBox="0 0 50 50" fill="none" xmlns="http://www.w3.org/2000/svg">
<path d="M33 20V7H23.3125H2V44H33V31.5" stroke="#05141F" stroke-width="2"/>
<path d="M9.19624 19.4449C9.42684 19.4449 11.2141 18.9633 12.223 18.8669C16.325 18.0445 20.5709 18 24.9064 18C27.253 18 29.6723 18.6903 31.8247 19.5894C33.9329 20.47 35.8709 22.368 38.1664 22.6237C39.4636 22.7682 43.211 23.4906 44.364 23.7796C45.5171 24.0686 46.3819 24.6465 46.9584 25.08C48.2821 26.0752 47.9673 29.1246 47.9673 30.5706C47.9673 31.8178 44.3096 31.5467 43.4993 31.582C43.211 32.3045 42.3462 33.8939 40.1843 33.8939C38.0223 33.8939 36.9173 32.2082 36.7251 31.4376L17.2675 31.2931C16.9793 32.3045 16.0022 33.7494 13.8084 33.7494C11.5023 33.7494 10.6375 31.7747 10.4934 30.8596H9.91689L6.89015 30.2816C3.96182 25.8782 9.19624 19.4449 9.19624 19.4449Z" stroke="#05141F" stroke-width="2"/>
<path d="M36.7252 31.2927C36.4369 29.9923 37.0711 27.1025 40.1843 27.1025C43.2975 27.1025 43.9317 30.1368 43.4993 31.4372" stroke="#05141F" stroke-width="2"/>
<path d="M10.4927 30.7148C10.3485 29.7033 11.0692 27.1025 13.9518 27.1025C16.8344 27.1025 17.555 29.8478 17.2668 31.2927" stroke="#05141F" stroke-width="2"/>
</svg>
