<svg width="50" height="50" viewBox="0 0 50 50" fill="none" xmlns="http://www.w3.org/2000/svg">
<path d="M25 3C12.856 3 3 12.856 3 25C3 37.144 12.856 47 25 47C37.144 47 47 37.144 47 25C47 12.856 37.144 3 25 3ZM25 7.84C32.304 7.84 38.552 12.416 41.016 18.84C41.192 19.368 41.28 20.072 41.016 20.6C40.752 21.216 40.312 21.48 39.608 21.392L35.472 20.776C34.416 20.6 33.36 20.072 32.744 19.192C30.984 16.816 28.168 15.32 25 15.32C21.832 15.32 19.016 16.816 17.256 19.192C16.64 20.072 15.584 20.6 14.528 20.776L10.392 21.392C9.424 21.568 8.456 20.864 8.72 19.544C11.008 12.768 17.432 7.84 25 7.84ZM8.72 30.456C8.544 29.84 8.632 29.136 9.16 28.784C9.512 28.52 9.864 28.432 10.304 28.52L15.76 29.84C16.376 30.016 16.904 30.28 17.256 30.808C17.96 31.688 18.752 32.48 19.72 33.096C20.336 33.448 20.688 34.064 20.864 34.768L21.656 38.904C21.92 40.048 21.128 41.104 20.072 41.456C14.704 39.784 10.48 35.648 8.72 30.456ZM29.752 41.456C28.52 41.28 27.64 40.136 27.904 38.904L28.696 35.032C28.872 34.328 29.312 33.624 29.928 33.272C30.984 32.656 31.952 31.776 32.744 30.72C33.096 30.28 33.624 29.928 34.24 29.752L39.696 28.344C40.224 28.256 40.664 28.432 41.016 28.784C41.368 29.136 41.456 29.752 41.28 30.192C39.52 35.736 35.208 39.872 29.752 41.456Z" stroke="black" stroke-width="1.5" stroke-miterlimit="10"/>
</svg>
