<svg width="50" height="50" viewBox="0 0 50 50" fill="none" xmlns="http://www.w3.org/2000/svg">
<path fill-rule="evenodd" clip-rule="evenodd" d="M44 25.4999H6V41.074H44V25.4999ZM4 23.574V42.9999H46V23.574H4Z" fill="#05141F"/>
<path d="M10 32H12V42H10V32Z" fill="#05141F"/>
<path d="M23 6H25V25H23V6Z" fill="#05141F"/>
<path d="M34 6H36V25H34V6Z" fill="#05141F"/>
<path d="M29 6H31V19H29V6Z" fill="#05141F"/>
<path d="M40 6H42V19H40V6Z" fill="#05141F"/>
<path d="M31 18L31 20L23 20L23 18L31 18Z" fill="#05141F"/>
<path d="M42 18L42 20L34 20L34 18L42 18Z" fill="#05141F"/>
<path d="M31 6L31 8L23 8L23 6L31 6Z" fill="#05141F"/>
<path d="M42 6L42 8L34 8L34 6L42 6Z" fill="#05141F"/>
<path d="M17 32H19V43H17V32Z" fill="#05141F"/>
<path d="M5 34V32H44V34H5Z" fill="#05141F"/>
</svg>
