<svg width="222" height="23" viewBox="0 0 222 23" fill="none" xmlns="http://www.w3.org/2000/svg">
<g clip-path="url(#clip0_8252:41557)">
<path d="M44.0156 22.9078C43.8143 22.9904 43.5623 23.0013 43.3113 22.9987H4.89851C3.89552 23.0091 2.88708 22.9651 2.08261 22.6354C1.2783 22.3058 0.677843 21.6909 0.356052 20.867C0.0343438 20.043 -0.00886682 19.0103 0.00130038 17.9829V1.25432C-0.00124143 0.997451 0.00951886 0.739021 0.0900093 0.533353C0.1705 0.327339 0.320465 0.173391 0.521692 0.0910368C0.722748 0.00876956 0.97481 -0.00233829 1.2256 0.000351895H43.3113C43.5623 -0.00233829 43.8143 0.00876956 44.0156 0.0910368C44.2167 0.173391 44.3668 0.327339 44.4473 0.533353C44.5277 0.739021 44.5384 0.997451 44.5358 1.25432V3.84687C44.5384 4.10375 44.5277 4.36191 44.4473 4.56801C44.3668 4.77395 44.2167 4.9277 44.0156 5.00999C43.8143 5.09241 43.5623 5.10345 43.3113 5.10083H12.6081C12.3574 5.09823 12.1053 5.10934 11.9043 5.19178C11.7031 5.27422 11.5531 5.42782 11.4726 5.63391C11.3921 5.83977 11.3814 6.09793 11.3839 6.35481V15.3902C11.3788 15.9039 11.4004 16.4204 11.5614 16.8322C11.7221 17.2442 12.0223 17.5517 12.4245 17.7164C12.8268 17.8812 13.3309 17.9033 13.8325 17.8981H43.3113C43.5623 17.8955 43.8143 17.9065 44.0156 17.9889C44.2167 18.0713 44.3668 18.2252 44.4473 18.431C44.5277 18.637 44.5384 18.8953 44.5358 19.1521V21.7447C44.5384 22.0016 44.5277 22.2598 44.4473 22.4657C44.3668 22.6719 44.2167 22.8254 44.0156 22.9078ZM102.067 22.9078C101.866 22.9904 101.614 23.0013 101.363 22.9987H62.9497C61.9468 23.0091 60.9384 22.9651 60.1339 22.6354C59.3297 22.3058 58.7291 21.6909 58.4074 20.867C58.0857 20.043 58.0424 19.0103 58.0525 17.9829V1.25432C58.0502 0.997451 58.0608 0.739021 58.1415 0.533353C58.2219 0.327339 58.3718 0.173391 58.5731 0.0910368C58.7742 0.00876956 59.0262 -0.00233829 59.2769 0.000351895H101.363C101.614 -0.00233829 101.866 0.00876956 102.067 0.0910368C102.268 0.173391 102.418 0.327339 102.498 0.533353C102.579 0.739021 102.59 0.997451 102.587 1.25432V3.84687C102.59 4.10375 102.579 4.36191 102.498 4.56801C102.418 4.77395 102.268 4.9277 102.067 5.00999C101.866 5.09241 101.614 5.10345 101.363 5.10083H70.6595C70.4087 5.09823 70.1567 5.10934 69.9556 5.19178C69.7548 5.27422 69.6044 5.42782 69.524 5.63391C69.4435 5.83977 69.4329 6.09793 69.4353 6.35481V7.69513C69.4329 7.95198 69.4435 8.21042 69.524 8.41627C69.6044 8.62218 69.7548 8.77596 69.9556 8.8584C70.1567 8.94085 70.4087 8.95169 70.6595 8.94909H101.363C101.614 8.94676 101.866 8.9576 102.067 9.04004C102.268 9.12248 102.418 9.27608 102.498 9.48218C102.579 9.68803 102.59 9.94619 102.587 10.2031V12.7959C102.59 13.0527 102.579 13.3109 102.498 13.5168C102.418 13.7229 102.268 13.8767 102.067 13.9589C101.866 14.0413 101.614 14.0524 101.363 14.0498H70.6595C70.4087 14.0472 70.1567 14.0583 69.9556 14.1405C69.7548 14.223 69.6044 14.3767 69.524 14.5827C69.4435 14.7888 69.4329 15.0469 69.4353 15.3038V15.3902C69.4301 15.9039 69.4517 16.4204 69.6127 16.8322C69.7734 17.2442 70.0736 17.5517 70.4762 17.7164C70.8781 17.8812 71.3822 17.9033 71.8838 17.8981H101.363C101.614 17.8955 101.866 17.9065 102.067 17.9889C102.268 18.0713 102.418 18.2252 102.498 18.431C102.579 18.637 102.59 18.8953 102.587 19.1521V21.7447C102.59 22.0016 102.579 22.2598 102.498 22.4657C102.418 22.6719 102.268 22.8254 102.067 22.9078ZM221.926 16.8802C221.857 17.2412 221.726 17.582 221.538 17.8957C221.349 18.2095 221.104 18.4963 220.85 18.7763C219.915 19.8186 218.944 20.8251 217.933 21.7925C217.66 22.0576 217.378 22.3155 217.067 22.5135C216.759 22.711 216.422 22.8487 216.065 22.9209C215.709 22.9933 215.331 23.0002 214.954 22.9987H175.38C175.129 23.0013 174.877 22.9904 174.676 22.9078C174.475 22.8254 174.325 22.6719 174.244 22.4657C174.164 22.2598 174.153 22.0016 174.156 21.7447V9.26957C174.153 9.01269 174.164 8.75428 174.244 8.54843C174.325 8.34249 174.475 8.18871 174.676 8.10629C174.877 8.02385 175.129 8.01299 175.38 8.01561H184.314C184.565 8.01299 184.817 8.02385 185.018 8.10629C185.219 8.18871 185.369 8.34249 185.449 8.54843C185.53 8.75428 185.541 9.01269 185.538 9.26957V15.3902C185.533 15.9039 185.554 16.4204 185.715 16.8322C185.876 17.2442 186.176 17.5517 186.579 17.7164C186.981 17.8812 187.485 17.9033 187.987 17.8981H206.924C207.088 17.8987 207.253 17.896 207.411 17.8675C207.568 17.8393 207.718 17.7853 207.859 17.7074C208 17.6297 208.132 17.5281 208.261 17.4232C208.848 16.9501 209.411 16.4471 209.948 15.9165C210.095 15.7726 210.237 15.6242 210.347 15.4589C210.456 15.2936 210.533 15.1113 210.573 14.9163C210.614 14.7215 210.618 14.5138 210.617 14.306V8.6931C210.618 8.48507 210.614 8.27742 210.573 8.08259C210.533 7.8876 210.456 7.70537 210.347 7.54004C210.237 7.37473 210.095 7.22633 209.948 7.08246C209.411 6.55207 208.848 6.0489 208.261 5.57578C208.132 5.47096 208 5.36942 207.859 5.29157C207.718 5.21366 207.568 5.15986 207.411 5.13146C207.253 5.10301 207.088 5.10023 206.924 5.10083H175.38C175.129 5.10345 174.877 5.09241 174.676 5.00999C174.475 4.9277 174.325 4.77395 174.244 4.56801C174.164 4.36191 174.153 4.10375 174.156 3.84687V1.25432C174.153 0.997451 174.164 0.739021 174.244 0.533353C174.325 0.327339 174.475 0.173391 174.676 0.0910368C174.877 0.00876956 175.129 -0.00233829 175.38 0.000351895H214.954C215.331 -0.00121014 215.709 0.00573225 216.065 0.0781066C216.422 0.150307 216.759 0.287853 217.067 0.485798C217.378 0.683482 217.66 0.941479 217.933 1.20642C218.944 2.17401 219.915 3.18022 220.85 4.22262C221.104 4.50276 221.349 4.78957 221.538 5.10327C221.726 5.41698 221.857 5.75801 221.926 6.11877C221.993 6.4796 222.002 6.86055 222 7.24171V15.7572C222.002 16.1386 221.993 16.5193 221.926 16.8802ZM160.118 22.9078C159.917 22.9904 159.665 23.0013 159.414 22.9987H121.001C119.998 23.0091 118.99 22.9651 118.185 22.6354C117.381 22.3058 116.78 21.6909 116.459 20.867C116.137 20.043 116.094 19.0103 116.104 17.9829V1.25432C116.101 0.997451 116.112 0.739021 116.193 0.533353C116.273 0.327339 116.423 0.173391 116.624 0.0910368C116.825 0.00876956 117.078 -0.00233829 117.328 0.000351895H159.414C159.665 -0.00233829 159.917 0.00876956 160.118 0.0910368C160.319 0.173391 160.469 0.327339 160.55 0.533353C160.63 0.739021 160.641 0.997451 160.639 1.25432V3.84687C160.641 4.10375 160.63 4.36191 160.55 4.56801C160.469 4.77395 160.319 4.9277 160.118 5.00999C159.917 5.09241 159.665 5.10345 159.414 5.10083H128.711C128.46 5.09823 128.208 5.10934 128.007 5.19178C127.806 5.27422 127.656 5.42782 127.575 5.63391C127.495 5.83977 127.484 6.09793 127.487 6.35481V7.69513C127.484 7.95198 127.495 8.21042 127.575 8.41627C127.656 8.62218 127.806 8.77596 128.007 8.8584C128.208 8.94085 128.46 8.95169 128.711 8.94909H159.414C159.665 8.94676 159.917 8.9576 160.118 9.04004C160.319 9.12248 160.469 9.27608 160.55 9.48218C160.63 9.68803 160.641 9.94619 160.639 10.2031V12.7959C160.641 13.0527 160.63 13.3109 160.55 13.5168C160.469 13.7229 160.319 13.8767 160.118 13.9589C159.917 14.0413 159.665 14.0524 159.414 14.0498H128.711C128.46 14.0472 128.208 14.0583 128.007 14.1405C127.806 14.223 127.656 14.3767 127.575 14.5827C127.495 14.7888 127.484 15.0469 127.487 15.3038V15.3902C127.481 15.9039 127.503 16.4204 127.664 16.8322C127.825 17.2442 128.125 17.5517 128.527 17.7164C128.93 17.8812 129.434 17.9033 129.935 17.8981H159.414C159.665 17.8955 159.917 17.9065 160.118 17.9889C160.319 18.0713 160.469 18.2252 160.55 18.431C160.63 18.637 160.641 18.8953 160.639 19.1521V21.7447C160.641 22.0016 160.63 22.2598 160.55 22.4657C160.469 22.6719 160.319 22.8254 160.118 22.9078Z" fill="white"/>
</g>
<defs>
<clipPath id="clip0_8252:41557">
<rect width="222" height="23" fill="white"/>
</clipPath>
</defs>
</svg>
