<svg width="38" height="44" viewBox="0 0 38 44" fill="none" xmlns="http://www.w3.org/2000/svg">
<path fill-rule="evenodd" clip-rule="evenodd" d="M2 2V10H4V2H2ZM1 0C0.447715 0 0 0.447715 0 1V11C0 11.5523 0.447715 12 1 12H5C5.55228 12 6 11.5523 6 11V7H16.1707C16.472 7.85241 17.1476 8.52801 18 8.82929V35.1707C17.1476 35.472 16.472 36.1476 16.1707 37H6V33C6 32.4477 5.55228 32 5 32H1C0.447715 32 0 32.4477 0 33V43C0 43.5523 0.447715 44 1 44H5C5.55228 44 6 43.5523 6 43V39H16.1707C16.5825 40.1652 17.6938 41 19 41C20.3062 41 21.4175 40.1652 21.8293 39H32V43C32 43.5523 32.4477 44 33 44H37C37.5523 44 38 43.5523 38 43V33C38 32.4477 37.5523 32 37 32H33C32.4477 32 32 32.4477 32 33V37H21.8293C21.528 36.1476 20.8524 35.472 20 35.1707V8.82929C20.8524 8.52801 21.528 7.85241 21.8293 7H32V11C32 11.5523 32.4477 12 33 12H37C37.5523 12 38 11.5523 38 11V1C38 0.447715 37.5523 0 37 0H33C32.4477 0 32 0.447715 32 1V5H21.8293C21.4175 3.83481 20.3062 3 19 3C17.6938 3 16.5825 3.83481 16.1707 5H6V1C6 0.447715 5.55228 0 5 0H1ZM34 10H36V2H34V10ZM2 34V42H4V34H2ZM36 42H34V34H36V42Z" fill="white"/>
</svg>
