<svg width="150" height="30" viewBox="0 0 150 30" fill="none" xmlns="http://www.w3.org/2000/svg">
<g clip-path="url(#clip0)">
<path d="M0 0.0270486V25.1261H14.3231V5.24982C14.3231 5.24982 39.287 5.24982 42.0487 5.24982C44.8105 5.24982 45.6227 6.68547 45.6227 7.99735C45.6227 9.28448 44.5397 10.6706 41.8863 10.6706C39.2329 10.6706 16.056 10.6706 16.056 10.6706C16.056 10.6706 45.2978 26.8092 48.195 28.3439C51.1191 29.8538 52.6354 30.0271 55.7762 30.0271C59.4585 30.0271 63.6011 30.0023 65.4422 30.0271C66.8773 30.0518 67.0939 29.1112 66.1191 28.5914C65.713 28.3686 62.9783 26.8587 59.4856 25.0023C52.6354 21.3637 42.9693 16.2894 42.9693 16.2894C42.9693 16.2894 45.6498 16.2894 46.7599 16.2894C49.0072 16.2894 50.7401 16.3142 52.9061 15.9924C55.0722 15.6954 57.6715 14.433 58.3484 12.0815C59.0253 9.73002 59.0253 6.53695 58.5921 4.70527C58.1859 2.87358 56.8863 1.63596 55.0181 0.967643C53.2581 0.348831 52.2022 0.225068 49.6841 0.126059C46.2996 -0.0472088 0 0.0270486 0 0.0270486Z" fill="white"/>
<path d="M82.8506 2.05469H68.9336V24.9507H82.8506V2.05469Z" fill="white"/>
<path d="M149.756 6.93103C149.35 4.25776 147.536 2.92112 145.505 2.52508C138.926 1.1637 105.704 1.80726 100.478 2.07954C94.5758 2.37657 91.8952 3.11914 91.2454 6.93103C90.8393 9.1835 91.0017 17.2033 91.2454 20.0251C91.4891 22.8469 94.5758 24.7528 97.7436 24.9756C100.911 25.1984 139.386 25.3716 142.771 24.9756C147.347 24.431 148.673 23.3419 149.35 21.238C150.108 18.9112 150.162 9.60429 149.756 6.93103ZM135.081 17.5251C134.756 18.7875 134.079 19.233 131.778 19.53C130.072 19.7528 110.686 19.6538 109.088 19.53C107.491 19.4063 105.948 18.3914 105.812 16.8815C105.677 15.3716 105.623 11.0894 105.812 9.87657C106.137 7.84687 107.491 7.42607 110.469 7.27756C113.096 7.12905 129.801 6.98053 133.159 7.52508C134.215 7.69835 135.081 8.46568 135.298 9.87657C135.514 11.3122 135.433 16.2627 135.081 17.5251Z" fill="white"/>
</g>
</svg>
