<svg width="30" height="30" viewBox="0 0 30 30" fill="none" xmlns="http://www.w3.org/2000/svg">
<g clip-path="url(#clip0_17005_73852)">
<path d="M15.0002 30C23.2845 30 30.0002 23.2843 30.0002 15C30.0002 6.71573 23.2845 0 15.0002 0C6.71597 0 0.000244141 6.71573 0.000244141 15C0.000244141 23.2843 6.71597 30 15.0002 30Z" fill="#F8F8F8"/>
<mask id="mask0_17005_73852" style="mask-type:alpha" maskUnits="userSpaceOnUse" x="0" y="0" width="31" height="30">
<path d="M15.0002 30C23.2845 30 30.0002 23.2843 30.0002 15C30.0002 6.71573 23.2845 0 15.0002 0C6.71597 0 0.000244141 6.71573 0.000244141 15C0.000244141 23.2843 6.71597 30 15.0002 30Z" fill="#F8F8F8"/>
</mask>
<g mask="url(#mask0_17005_73852)">
<path d="M24.4436 22.6845C23.5991 21.9309 22.5286 21.3178 21.6947 20.9003C20.9358 20.5223 20.373 20.3053 20.3625 20.3012C19.0669 19.8453 18.6047 19.3803 18.4455 19.0706L18.3803 18.8842C18.3636 18.8245 18.3494 18.7689 18.335 18.715C18.32 18.7164 18.3053 18.7195 18.2897 18.7214C18.0189 18.9975 17.6466 19.1589 17.248 19.1589H16.2555C15.4466 19.1589 14.7886 18.5009 14.7886 17.692C14.7886 16.8839 15.4466 16.2264 16.2555 16.2264H17.248C17.5786 16.2264 17.893 16.337 18.1466 16.5339C18.4475 16.4937 18.7369 16.4295 19.0144 16.352C19.073 16.2187 19.1297 16.0851 19.1786 15.9501L19.2111 15.9006C19.5803 15.532 19.7797 14.5978 19.7808 14.5889C20.0522 13.8284 19.5987 13.2478 19.5148 13.1147L19.4803 13.0606L19.5003 13C19.5281 12.9175 20.5166 11.2198 19.6383 9.73561L19.6225 9.69589C19.62 9.68256 19.2916 8.31089 17.6816 7.70367C17.0755 7.33617 16.0608 7.15479 15.1436 7.15479C15.1164 7.15479 15.0903 7.15479 15.0636 7.15534C15.0364 7.15506 15.0103 7.15479 14.9828 7.15479C14.065 7.15479 13.0505 7.33562 12.4439 7.70367C10.8347 8.31145 10.5064 9.68284 10.5036 9.69589L10.4878 9.73561C9.60976 11.2198 10.4731 12.9175 10.5003 13C10.5003 13 10.5234 13.0358 10.5203 13.0606C10.5173 13.0854 10.57 12.9817 10.4859 13.1147C10.4017 13.2478 10.0736 13.8284 10.345 14.5889C10.3461 14.5978 10.5455 15.532 10.9147 15.9006L10.9478 15.9501C11.18 16.5937 11.5289 17.2223 11.9572 17.7698L11.9533 17.8123L11.7958 18.6975C11.7797 18.7564 11.7639 18.8181 11.7455 18.8842L11.6811 19.0706C11.5208 19.38 11.0583 19.8453 9.76337 20.3012C9.75254 20.3056 9.19032 20.5223 8.43087 20.9003C7.59726 21.3178 6.52671 21.9309 5.68199 22.6845C5.66365 22.6978 4.0656 23.907 4.20254 27.1231C4.21088 27.3567 4.22921 27.5973 4.25865 27.8512C4.25865 28.1073 4.34088 28.3136 4.83588 28.4681C4.8756 28.4834 9.1642 30 14.848 30C14.918 30 14.9911 29.9978 15.0622 29.9978C15.1333 29.9978 15.2058 30 15.2764 30C20.9608 30 25.2486 28.4825 25.2894 28.4678C25.7839 28.3139 25.8661 28.107 25.8661 27.8509C25.8958 27.597 25.9136 27.3564 25.9222 27.1228C26.0605 23.907 24.4616 22.6978 24.4436 22.6845Z" fill="#9BA1A5"/>
<path d="M17.8759 17.2864C17.742 17.0817 17.5114 16.945 17.2478 16.945H16.2553C15.8414 16.945 15.5067 17.2797 15.5067 17.6919C15.5067 18.1053 15.8414 18.4405 16.2553 18.4405H17.2478C17.5375 18.4405 17.7839 18.275 17.9081 18.0364C19.292 17.9278 20.4964 17.5044 21.3412 16.8803C21.5353 17.005 21.7648 17.0789 22.0134 17.0789H22.075C22.7653 17.0789 23.3231 16.5197 23.3231 15.8294V13.3344C23.3231 12.8372 23.032 12.4094 22.6117 12.2097C22.4289 8.20416 19.1125 5 15.062 5C11.0114 5 7.6951 8.20416 7.51343 12.21C7.09232 12.4097 6.80066 12.8375 6.80066 13.3347V15.8297C6.80066 16.52 7.35982 17.0792 8.04871 17.0792H8.11121C8.8001 17.0792 9.35926 16.52 9.35926 15.8297V13.3347C9.35926 12.8453 9.07649 12.4228 8.66538 12.2178C8.84288 8.84361 11.6439 6.1525 15.062 6.1525C18.4806 6.1525 21.2817 8.84361 21.4595 12.2175C21.0484 12.4225 20.7656 12.845 20.7656 13.3344V15.8294C20.7656 15.9939 20.7978 16.1486 20.8545 16.2925C20.1267 16.8136 19.0684 17.185 17.8759 17.2864Z" fill="#9BA1A5"/>
</g>
</g>
<defs>
<clipPath id="clip0_17005_73852">
<rect width="30" height="30" fill="white" transform="translate(0.000244141)"/>
</clipPath>
</defs>
</svg>
