<svg width="140" height="29" viewBox="0 0 140 29" fill="none" xmlns="http://www.w3.org/2000/svg">
<g clip-path="url(#clip0)">
<path d="M92.5098 13.7211L92.5943 12.4275C92.7638 12.5082 93.0176 12.5082 93.2716 12.5082C94.4569 12.5082 94.5414 10.8103 94.5414 5.95845H100.129V13.7211H98.4358V7.25231H96.0654C96.0654 11.4572 95.8961 13.8021 93.6951 13.8021C93.2716 13.8828 92.8485 13.8021 92.5098 13.7211ZM102.076 6.0394H103.684V8.86951C103.684 9.67811 103.6 11.1336 103.6 11.8613L107.071 6.03917H108.848V13.8021H107.24V10.972C107.24 10.1634 107.324 8.70783 107.324 7.98018L103.853 13.8021H102.076V6.0394H102.076ZM110.202 13.6402L110.372 12.2656C110.964 12.5889 111.726 12.6699 112.404 12.6699C113.165 12.6699 114.096 12.5082 114.096 11.5377C114.096 10.4865 112.911 10.4055 112.149 10.4055C111.98 10.4055 111.811 10.4055 111.557 10.4055V9.19263C111.726 9.19263 111.896 9.19263 111.98 9.19263C112.742 9.19263 114.012 9.03096 114.012 8.06045C114.012 7.25185 113.165 7.09017 112.488 7.09017C111.896 7.09017 111.049 7.25185 110.541 7.41352L110.371 6.20062C111.049 6.03895 111.98 5.87727 112.742 5.87727C114.35 5.87727 115.62 6.44325 115.62 7.89878C115.62 8.70738 115.028 9.35431 114.096 9.59671C115.112 9.75838 115.789 10.5672 115.789 11.4565C115.789 13.1547 114.435 13.8014 112.573 13.8014C111.726 13.9638 110.88 13.8021 110.202 13.6402ZM117.398 6.0394H119.007V8.86951C119.007 9.67811 118.922 11.1336 118.922 11.8613L122.393 6.03917H124.171V13.8021H122.562V10.972C122.562 10.1634 122.647 8.70783 122.647 7.98018L119.176 13.8021H117.398V6.0394ZM126.202 6.0394H127.895V9.11213H131.112V6.0394H132.805V13.8021H131.112V10.4058H127.895V13.8021H126.202V6.0394H126.202ZM134.668 6.0394H139.408V7.33325H136.276V13.8021H134.583V6.0394H134.668ZM73.6318 25.4459H77.2719C78.6265 25.4459 79.473 25.1225 80.0655 24.3946C80.3193 24.0713 80.7428 23.4244 80.7428 22.2115C80.7428 20.9985 80.3195 20.1897 79.473 19.543C78.965 19.2197 78.2877 18.977 77.1872 18.977H73.547V25.4459H73.6318ZM68.8068 29.3274V6.0394H84.7217L83.3674 9.92074H73.632V15.0957H77.6109C80.7431 15.0957 82.4364 15.8236 83.5369 16.7129C84.3834 17.4408 85.907 19.0578 85.907 22.2117C85.907 25.3651 84.3834 27.0633 83.0289 27.9529C81.5051 28.9231 79.8968 29.2465 76.6796 29.2465H68.8071V29.3274H68.8068ZM54.754 29.3274V9.92074H47.7275V6.0394H67.3673L66.013 9.92074H59.7487V29.3274H54.754ZM35.1143 15.3383H37.8231C38.6699 15.3383 39.0929 15.3383 39.5162 15.2576C40.6167 14.9343 41.3785 13.9638 41.3785 12.6701C41.3785 11.1339 40.6167 10.406 39.5162 10.0826C39.0929 9.92097 38.6697 9.84002 37.7384 9.84002H35.1988V15.3386H35.1143V15.3383ZM35.199 19.3816V25.5268H38.5851C39.6012 25.5268 40.5325 25.4461 41.2095 24.8799C41.8865 24.3137 42.1405 23.5053 42.1405 22.535C42.1405 21.8074 41.8868 21.0797 41.548 20.5135C40.8707 19.7047 39.9397 19.4623 38.4159 19.4623H35.199V19.3816ZM42.9873 16.9558C43.9184 17.3598 44.7651 17.926 45.2729 18.2494C46.7122 19.3816 47.3047 20.8369 47.3047 22.7777C47.3047 25.9311 45.5269 28.2762 42.6486 29.0038C41.802 29.2465 40.8707 29.3274 39.0929 29.3274H30.2891V6.0394H38.0774C39.6857 6.0394 40.7862 6.12035 41.7175 6.36275C44.5109 7.09063 46.3734 8.95023 46.3734 11.8613C46.3734 13.3975 45.7809 14.7724 44.8499 15.6619C44.5109 16.066 43.9184 16.5512 42.9873 16.9558Z" fill="#263975"/>
<path d="M25.2963 4.26029H4.64074L6.16454 0.70253H26.8201L25.2963 4.26029ZM24.5345 6.0394H3.87895L2.35514 9.59716H23.0109L24.5345 6.0394ZM22.3334 11.2953H1.67787L0.154297 14.8531H20.8099L22.3334 11.2953Z" fill="#009FDF"/>
</g>
<defs>
<clipPath id="clip0">
<rect width="139.256" height="28.4275" fill="white" transform="translate(0.152344 0.318375)"/>
</clipPath>
</defs>
</svg>
