<svg width="128" height="24" viewBox="0 0 128 24" fill="none" xmlns="http://www.w3.org/2000/svg">
<g clip-path="url(#clip0)">
<path d="M6.40958 13.2413C4.59109 13.2413 3.16097 12.8574 2.11923 12.0897C0.0403019 10.5587 0.291601 7.22593 1.15744 5.11801C2.38195 2.10035 5.31986 0.709115 8.53419 0.709115C10.8324 0.709115 14.161 1.25496 14.161 4.13283C14.161 7.87828 10.0488 8.34868 7.07895 8.34868C6.31201 8.35175 5.5455 8.31323 4.78299 8.2333C4.48143 10.0528 5.6831 10.288 7.27999 10.3102C8.45617 10.291 9.62308 10.1041 10.7433 9.75545C11.054 9.67335 11.2482 9.62453 11.4287 9.9152L12.3197 11.7191C12.4545 11.941 12.3494 12.1185 12.0044 12.2672C10.3093 12.9972 8.21436 13.2479 6.40729 13.2479L6.40958 13.2413ZM22.1706 3.25194C21.0055 3.25194 20.1145 3.74009 19.902 4.89612L18.8397 10.4655C19.5616 10.5764 20.2907 10.6372 21.0215 10.6474C22.1957 10.6474 24.149 10.3346 24.149 8.8213C24.149 7.60092 22.3465 7.6808 21.4806 7.6808C21.1174 7.6808 20.8295 7.6453 20.9072 7.22371L21.1083 6.12759C21.1974 5.6461 21.5926 5.61504 22.0221 5.57953C22.7531 5.52184 23.9731 5.25558 23.9731 4.32365C23.9776 3.46051 22.8308 3.24306 22.1706 3.24306V3.25194ZM15.7739 4.87171C16.3382 1.65213 19.4565 0.658081 22.4264 0.658081C24.3363 0.658081 27.875 1.12404 27.9664 3.62471C28.0098 4.82956 27.1006 5.82361 25.9857 6.22744V6.34061C27.2719 6.69562 28.3388 7.45004 28.3388 8.85015C28.3388 12.3426 23.6898 13.2324 20.9324 13.2324C18.9814 13.2324 16.7814 13.0793 14.9629 12.3449C14.6111 12.2029 14.506 12.0209 14.5608 11.6615L15.7739 4.87171ZM32.2499 17.2574C32.1837 17.6346 31.9369 17.6457 31.5897 17.6457H28.6952C28.3776 17.6457 28.1126 17.6346 28.1789 17.2574L30.8198 2.37549C30.8552 2.20738 30.9381 2.05216 31.0591 1.92717C31.1802 1.80217 31.3346 1.71232 31.5052 1.66767C33.4173 0.968723 35.5876 0.753493 37.6186 0.753493C41.139 0.753493 43.8805 2.02934 43.7868 5.82139C43.6726 10.4211 40.7415 13.1947 36.1017 13.1947C35.0714 13.2015 34.043 13.1101 33.0312 12.9218L32.2499 17.2574ZM36.7893 3.60918C36.0641 3.60738 35.3414 3.69158 34.6373 3.85991L33.5453 10.0905C34.2782 10.2624 35.0301 10.3466 35.7841 10.3412C38.3885 10.3412 39.6313 8.37531 39.6313 6.02774C39.6313 4.26152 38.4844 3.60918 36.7893 3.60918ZM52.6348 3.5182C50.878 3.5182 49.7609 4.70974 49.3337 6.28069C48.8219 8.16452 48.9179 10.4344 51.4583 10.4344C53.9987 10.4344 54.9605 7.90935 54.9605 5.80142C54.9605 4.32809 54.1609 3.5182 52.6348 3.5182ZM53.0072 0.711334C56.3792 0.711334 59.1754 2.09813 59.1754 5.71045C59.1754 10.6408 55.7486 13.2901 50.9945 13.2413C47.7596 13.208 44.8514 12.0742 44.8514 8.51732C44.8317 7.38065 45.0365 6.25085 45.4545 5.18901C46.7316 2.10035 49.7723 0.709115 53.0095 0.709115L53.0072 0.711334ZM67.1347 3.44942C66.5105 3.43784 65.8862 3.47568 65.2683 3.56258L63.6691 12.5778C63.6006 12.9661 63.379 12.9883 63.0089 12.9883H60.1601C59.8425 12.9883 59.5455 12.9573 59.6141 12.5778L61.3663 2.78598C61.5673 1.66101 62.2687 1.11739 63.4041 0.937658C64.7356 0.761852 66.0792 0.687663 67.4226 0.715771C69.899 0.715771 73.3624 1.01754 74.0249 3.87766C74.1944 4.78835 74.1843 5.72202 73.9952 6.62906L72.9626 12.5867C72.8941 12.9772 72.6725 12.9972 72.3024 12.9972H69.4307C69.1109 12.9972 68.8184 12.9661 68.8847 12.5867L69.9767 6.42714C70.1024 5.72376 70.1892 4.79627 69.6911 4.20827C69.1132 3.50267 67.9663 3.44942 67.1347 3.44942ZM98.7641 3.5182C97.0553 3.5182 95.8605 4.56773 95.3053 6.08544C94.4121 8.52619 94.8233 10.5054 97.8754 10.4566C98.5443 10.4408 99.2091 10.3492 99.8561 10.1837C100.196 8.02029 100.555 5.84136 101.033 3.70237C100.444 3.60484 99.8496 3.54775 99.253 3.53152C99.0611 3.52042 98.8966 3.5182 98.7641 3.5182ZM98.9583 0.733523C100.908 0.739094 102.852 0.94587 104.756 1.35037C105.238 1.45244 105.389 1.61885 105.302 2.08038C104.672 5.38205 104.08 8.7037 103.61 12.032C103.597 12.141 103.548 12.243 103.47 12.3229C103.393 12.4029 103.291 12.4565 103.18 12.4758C101.199 13.0085 99.1501 13.2699 97.0941 13.2524C93.6673 13.2524 90.7522 12.214 90.7522 8.59276C90.7361 7.4794 90.9169 6.37162 91.2868 5.31771C92.4748 2.06041 95.5977 0.733523 98.9583 0.733523ZM88.4494 12.2295L88.3923 12.5579V12.5756C88.3192 12.9528 88.109 12.9906 87.7367 12.9906H84.897C84.4766 12.9906 84.3259 12.8419 84.3807 12.5335L85.9364 3.70015H82.5439C82.1578 5.29552 81.8014 6.9042 81.3103 8.47072C80.3965 11.3708 78.6396 12.7465 75.6561 13.4454C75.3591 13.5142 74.9707 13.5275 74.8245 13.1725L74.162 11.5305C73.9929 11.109 74.1962 10.9425 74.5915 10.8005C76.3368 10.1726 77.1204 9.45368 77.7624 7.59427C78.2855 6.081 78.578 4.14171 79.0394 2.35552C79.3113 1.30599 79.9533 1.00866 81.0201 1.00866H88.7875C89.8453 1.00866 90.3867 1.31265 90.1948 2.39546V2.42208L88.4494 12.2295ZM109.552 12.5335C109.479 12.9573 109.275 12.9906 108.866 12.9906H106.059C105.638 12.9906 105.46 12.8397 105.513 12.5335L107.493 1.43912C107.546 1.14845 107.77 0.995349 108.154 0.995349H110.966C111.352 0.995349 111.583 0.995349 111.512 1.43912L110.852 5.34211H116.019L116.705 1.43912C116.755 1.14845 116.992 0.995349 117.39 0.995349H120.204C120.586 0.995349 120.826 0.995349 120.75 1.43912L118.77 12.5335C118.694 12.9551 118.53 12.9906 118.11 12.9906H115.302C114.881 12.9906 114.703 12.8397 114.756 12.5335L115.56 7.94707H110.365L109.552 12.5335ZM8.30346 3.47161C6.70428 3.47161 5.5049 4.39022 5.17365 5.91236C6.19595 5.99413 7.22389 5.98298 8.24406 5.87908C9.0802 5.78589 10.1379 5.5751 10.1379 4.56773C10.1402 3.62471 9.04364 3.47161 8.30346 3.47161Z" fill="#005B95"/>
<path d="M120.24 17.0232C91.7377 11.7423 64.6751 14.8043 35.7826 23.4712C34.9716 23.7153 34.8688 24.0193 35.9151 23.8019C62.5642 18.2281 91.5001 16.3775 120.137 17.589C120.715 17.6134 121.551 17.6312 121.549 17.4914C121.546 17.3516 121.286 17.2118 120.24 17.0188" fill="#F56920"/>
<path d="M125.001 1.2803C125.359 1.2803 125.708 1.38336 126.006 1.57646C126.303 1.76956 126.535 2.04402 126.672 2.36514C126.809 2.68625 126.845 3.03959 126.775 3.38048C126.705 3.72137 126.533 4.0345 126.28 4.28027C126.027 4.52604 125.705 4.69341 125.354 4.76122C125.003 4.82903 124.639 4.79423 124.308 4.66122C123.978 4.52821 123.695 4.30296 123.496 4.01397C123.297 3.72498 123.191 3.38521 123.191 3.03764C123.192 2.57175 123.383 2.1251 123.722 1.79566C124.061 1.46622 124.521 1.28088 125.001 1.2803ZM125.001 1.05841C124.598 1.05841 124.204 1.17449 123.869 1.39197C123.533 1.60945 123.272 1.91857 123.118 2.28022C122.964 2.64188 122.923 3.03984 123.002 3.42377C123.081 3.8077 123.275 4.16037 123.56 4.43717C123.845 4.71397 124.208 4.90247 124.603 4.97884C124.998 5.05521 125.408 5.01602 125.781 4.86621C126.153 4.71641 126.471 4.46273 126.695 4.13725C126.919 3.81176 127.039 3.4291 127.039 3.03764C127.038 2.5131 126.823 2.01025 126.441 1.63955C126.059 1.26885 125.541 1.06063 125.001 1.06063V1.05841Z" fill="#005B95"/>
<path d="M125.347 3.09977C125.423 3.12028 125.49 3.16381 125.539 3.22403C125.581 3.28442 125.613 3.35114 125.633 3.4215L125.82 4.08717C125.824 4.09714 125.824 4.10825 125.82 4.11823C125.82 4.11823 125.804 4.13376 125.786 4.13376H125.61H125.58C125.58 4.13376 125.562 4.12045 125.557 4.10492L125.386 3.5036C125.371 3.44753 125.346 3.3943 125.313 3.34606C125.286 3.30806 125.252 3.27561 125.212 3.25065C125.173 3.22686 125.13 3.21031 125.085 3.20184C125.035 3.19234 124.984 3.18788 124.934 3.18852H124.433V4.09826C124.436 4.10352 124.437 4.10918 124.437 4.1149C124.437 4.12062 124.436 4.12629 124.433 4.13154C124.422 4.1351 124.41 4.1351 124.399 4.13154H124.237C124.226 4.13495 124.214 4.13495 124.203 4.13154C124.2 4.12629 124.199 4.12062 124.199 4.1149C124.199 4.10918 124.2 4.10352 124.203 4.09826V2.10128C124.2 2.0625 124.211 2.02397 124.235 1.99255C124.25 1.97844 124.269 1.96775 124.289 1.96124C124.309 1.95472 124.33 1.95254 124.351 1.95483H125.075C125.169 1.9533 125.262 1.96834 125.35 1.99921C125.427 2.02709 125.498 2.07014 125.557 2.12569C125.615 2.1796 125.66 2.2446 125.69 2.31651C125.721 2.3928 125.736 2.47416 125.736 2.55615C125.737 2.67307 125.704 2.78796 125.64 2.88676C125.575 2.98434 125.477 3.05721 125.363 3.09311L125.347 3.09977ZM125.468 2.56502C125.469 2.51535 125.461 2.46594 125.446 2.41858C125.43 2.37157 125.404 2.3284 125.37 2.2921C125.329 2.25589 125.281 2.22864 125.228 2.21222C125.164 2.18848 125.096 2.17717 125.027 2.17894H124.438V2.96886H125.009C125.071 2.97427 125.134 2.96721 125.193 2.94813C125.253 2.92904 125.307 2.89834 125.354 2.85791C125.393 2.81909 125.422 2.77313 125.442 2.7228C125.462 2.67246 125.471 2.6188 125.468 2.56502Z" fill="#005B95"/>
</g>
<defs>
<clipPath id="clip0">
<rect width="126.524" height="23.2094" fill="white" transform="translate(0.519531 0.66568)"/>
</clipPath>
</defs>
</svg>
