<svg width="384" height="23" viewBox="0 0 384 23" fill="none" xmlns="http://www.w3.org/2000/svg">
<g clip-path="url(#clip0_8262:45565)">
<path d="M45.0051 0.0919817C44.7993 0.00956195 44.5416 -0.00132659 44.285 0.00133884H5.00862C3.98309 -0.0091015 2.95198 0.0351076 2.12943 0.364567C1.30703 0.694024 0.693081 1.30918 0.364055 2.13293C0.0351158 2.95691 -0.00906618 3.98971 0.00132962 5.01697V21.7458C-0.00126933 22.0026 0.00973288 22.261 0.0920327 22.4667C0.174333 22.6726 0.327669 22.8263 0.53342 22.909C0.738995 22.9914 0.99672 23.0023 1.25316 22.9996H44.285C44.5416 23.0023 44.7993 22.9914 45.0051 22.909C45.2106 22.8263 45.3641 22.6726 45.4464 22.4667C45.5287 22.261 45.5396 22.0026 45.5369 21.7458V19.153C45.5396 18.8962 45.5287 18.638 45.4464 18.4321C45.3641 18.2262 45.2106 18.0724 45.0051 17.99C44.7993 17.9076 44.5416 17.8965 44.285 17.8991H12.8916C12.6353 17.9018 12.3774 17.8907 12.1719 17.8081C11.9662 17.7261 11.8128 17.5722 11.7305 17.3662C11.6482 17.1603 11.6373 16.9021 11.6398 16.6451V7.60975C11.6346 7.09613 11.6567 6.57962 11.8213 6.16774C11.9856 5.75564 12.2925 5.44839 12.7038 5.28355C13.1151 5.11871 13.6306 5.09672 14.1434 5.10183H44.285C44.5416 5.10449 44.7993 5.09338 45.0051 5.01096C45.2106 4.92877 45.3641 4.77504 45.4464 4.5691C45.5287 4.36294 45.5396 4.10479 45.5369 3.84798V1.25541C45.5396 0.998375 45.5287 0.74023 45.4464 0.534291C45.3641 0.328353 45.2106 0.174401 45.0051 0.0919817ZM104.361 0.0919817C104.155 0.00956195 103.897 -0.00132659 103.641 0.00133884H64.3648C63.3393 -0.0091015 62.3083 0.0351076 61.4857 0.364567C60.6634 0.694024 60.0493 1.30918 59.7203 2.13293C59.3915 2.95691 59.3472 3.98971 59.3576 5.01697V21.7458C59.3551 22.0026 59.366 22.261 59.4485 22.4667C59.5308 22.6726 59.684 22.8263 59.8898 22.909C60.0954 22.9914 60.3531 23.0023 60.6095 22.9996H103.641C103.897 23.0023 104.155 22.9914 104.361 22.909C104.567 22.8263 104.721 22.6726 104.803 22.4667C104.885 22.261 104.896 22.0026 104.894 21.7458V19.153C104.896 18.8962 104.885 18.638 104.803 18.4321C104.721 18.2262 104.567 18.0724 104.361 17.99C104.155 17.9076 103.897 17.8965 103.641 17.8991H72.2478C71.9915 17.9018 71.7338 17.8907 71.5281 17.8081C71.3228 17.7261 71.1691 17.5722 71.0869 17.3662C71.0045 17.1603 70.9937 16.9021 70.9962 16.6451V15.3048C70.9937 15.048 71.0045 14.7899 71.0869 14.5837C71.1691 14.3777 71.3228 14.224 71.5281 14.1416C71.7338 14.0592 71.9915 14.0483 72.2478 14.051H103.641C103.897 14.0534 104.155 14.0423 104.361 13.9598C104.567 13.8775 104.721 13.7239 104.803 13.5178C104.885 13.3119 104.896 13.0537 104.894 12.7968V10.2041C104.896 9.94732 104.885 9.6891 104.803 9.48316C104.721 9.27705 104.567 9.12357 104.361 9.04112C104.155 8.95868 103.897 8.94762 103.641 8.95001H72.2478C71.9915 8.95266 71.7338 8.9416 71.5281 8.85942C71.3228 8.77697 71.1691 8.62324 71.0869 8.41729C71.0045 8.21113 70.9937 7.95299 70.9962 7.69618V7.60975C70.9908 7.09613 71.013 6.57962 71.1776 6.16774C71.3419 5.75564 71.6488 5.44839 72.0604 5.28355C72.4714 5.11871 72.9868 5.09672 73.4998 5.10183H103.641C103.897 5.10449 104.155 5.09338 104.361 5.01096C104.567 4.92877 104.721 4.77504 104.803 4.5691C104.885 4.36294 104.896 4.10479 104.894 3.84798V1.25541C104.896 0.998375 104.885 0.74023 104.803 0.534291C104.721 0.328353 104.567 0.174401 104.361 0.0919817ZM226.915 6.11975C226.844 5.75875 226.711 5.41796 226.518 5.10427C226.325 4.79059 226.074 4.50379 225.815 4.22365C224.859 3.18129 223.865 2.17514 222.831 1.20743C222.552 0.942397 222.264 0.684693 221.947 0.486753C221.631 0.288812 221.288 0.151296 220.923 0.0790936C220.558 0.00689289 220.172 -0.000216144 219.785 0.00133884H179.322C179.066 -0.00132659 178.808 0.00956195 178.602 0.0919817C178.397 0.174401 178.243 0.328353 178.161 0.534291C178.079 0.74023 178.068 0.998375 178.071 1.25541V13.7306C178.068 13.9872 178.079 14.2456 178.161 14.4515C178.243 14.6576 178.397 14.8114 178.602 14.8938C178.808 14.976 179.066 14.9872 179.322 14.9845H188.457C188.714 14.9872 188.971 14.976 189.177 14.8938C189.383 14.8114 189.536 14.6576 189.618 14.4515C189.701 14.2456 189.712 13.9872 189.709 13.7306V7.60975C189.704 7.09613 189.725 6.57962 189.89 6.16774C190.055 5.75564 190.361 5.44839 190.773 5.28355C191.184 5.11871 191.7 5.09672 192.213 5.10183H211.575C211.744 5.10117 211.912 5.10405 212.073 5.13226C212.234 5.1607 212.388 5.21469 212.532 5.29267C212.676 5.3702 212.811 5.47194 212.943 5.5768C213.542 6.04999 214.118 6.55273 214.668 7.08347C214.818 7.22742 214.963 7.37582 215.076 7.54111C215.188 7.7064 215.266 7.88856 215.307 8.08361C215.348 8.27845 215.352 8.48616 215.351 8.69387V14.3071C215.352 14.5149 215.348 14.7226 215.307 14.9174C215.266 15.1124 215.188 15.2946 215.076 15.4599C214.963 15.6251 214.818 15.7736 214.668 15.9175C214.118 16.4478 213.542 16.951 212.943 17.4244C212.811 17.529 212.676 17.6308 212.532 17.7083C212.388 17.7863 212.234 17.8403 212.073 17.8685C211.912 17.8969 211.744 17.8998 211.575 17.8991H179.322C179.066 17.8965 178.808 17.9076 178.602 17.99C178.397 18.0724 178.243 18.2262 178.161 18.4321C178.079 18.638 178.068 18.8962 178.071 19.153V21.7458C178.068 22.0026 178.079 22.261 178.161 22.4667C178.243 22.6726 178.397 22.8263 178.602 22.909C178.808 22.9914 179.066 23.0023 179.322 22.9996H219.785C220.172 23.0014 220.558 22.9941 220.923 22.9219C221.288 22.8497 221.631 22.7121 221.947 22.5143C222.264 22.3167 222.552 22.0584 222.831 21.7936C223.865 20.8259 224.859 19.8197 225.815 18.7774C226.074 18.4972 226.325 18.2106 226.518 17.8967C226.711 17.5831 226.844 17.242 226.915 16.8812C226.984 16.5205 226.993 16.1395 226.99 15.7583V7.24275C226.993 6.86131 226.984 6.48054 226.915 6.11975ZM163.718 0.0919817C163.512 0.00956195 163.254 -0.00132659 162.998 0.00133884H123.721C122.696 -0.0091015 121.665 0.0351076 120.842 0.364567C120.02 0.694024 119.406 1.30918 119.077 2.13293C118.748 2.95691 118.703 3.98971 118.714 5.01697V21.7458C118.711 22.0026 118.722 22.261 118.805 22.4667C118.887 22.6726 119.041 22.8263 119.246 22.909C119.452 22.9914 119.71 23.0023 119.966 22.9996H162.998C163.254 23.0023 163.512 22.9914 163.718 22.909C163.924 22.8263 164.076 22.6726 164.159 22.4667C164.242 22.261 164.252 22.0026 164.25 21.7458V19.153C164.252 18.8962 164.242 18.638 164.159 18.4321C164.076 18.2262 163.924 18.0724 163.718 17.99C163.512 17.9076 163.254 17.8965 162.998 17.8991H131.604C131.348 17.9018 131.09 17.8907 130.884 17.8081C130.679 17.7261 130.526 17.5722 130.443 17.3662C130.361 17.1603 130.35 16.9021 130.353 16.6451V15.3048C130.35 15.048 130.361 14.7899 130.443 14.5837C130.526 14.3777 130.679 14.224 130.884 14.1416C131.09 14.0592 131.348 14.0483 131.604 14.051H162.998C163.254 14.0534 163.512 14.0423 163.718 13.9598C163.924 13.8775 164.076 13.7239 164.159 13.5178C164.242 13.3119 164.252 13.0537 164.25 12.7968V10.2041C164.252 9.94732 164.242 9.6891 164.159 9.48316C164.076 9.27705 163.924 9.12357 163.718 9.04112C163.512 8.95868 163.254 8.94762 162.998 8.95001H131.604C131.348 8.95266 131.09 8.9416 130.884 8.85942C130.679 8.77697 130.526 8.62324 130.443 8.41729C130.361 8.21113 130.35 7.95299 130.353 7.69618V7.60975C130.347 7.09613 130.37 6.57962 130.534 6.16774C130.698 5.75564 131.005 5.44839 131.416 5.28355C131.828 5.11871 132.344 5.09672 132.856 5.10183H162.998C163.254 5.10449 163.512 5.09338 163.718 5.01096C163.924 4.92877 164.076 4.77504 164.159 4.5691C164.242 4.36294 164.252 4.10479 164.25 3.84798V1.25541C164.252 0.998375 164.242 0.74023 164.159 0.534291C164.076 0.328353 163.924 0.174401 163.718 0.0919817Z" fill="white"/>
<path d="M349.935 10.82V16.675C349.94 16.9319 349.933 17.19 349.851 17.3958C349.769 17.602 349.614 17.7557 349.409 17.8379C349.203 17.9205 348.945 17.912 348.687 17.9094H346.369H345.766H342.75C342.688 17.9101 342.621 17.9099 342.56 17.9094C342.302 17.908 342.049 17.9219 341.812 17.8847C341.753 17.8755 341.695 17.8647 341.638 17.8521C341.523 17.8269 341.413 17.7947 341.312 17.7534C340.902 17.5888 340.592 17.2812 340.427 16.8694C340.264 16.4573 340.243 15.9407 340.247 15.4272V1.28453C340.252 1.02763 340.24 0.769559 340.155 0.563667C340.115 0.460485 340.057 0.370699 339.982 0.296191C339.928 0.240487 339.86 0.196304 339.787 0.158934C339.764 0.146478 339.74 0.131667 339.714 0.12156C339.51 0.039063 339.253 0.0280191 338.996 0.030605L329.879 0.0317741C329.622 0.0291883 329.308 0.0268406 329.104 0.109338C328.898 0.191837 328.745 0.345552 328.663 0.551444C328.581 0.757571 328.57 1.01588 328.571 1.27253V21.7455C328.57 22.0012 328.581 22.2585 328.661 22.4644C328.663 22.4649 328.663 22.4656 328.663 22.4663C328.673 22.4924 328.689 22.5145 328.7 22.5387C328.736 22.6109 328.781 22.6781 328.836 22.734C328.874 22.7712 328.917 22.8045 328.961 22.8336C329.006 22.8631 329.055 22.8879 329.104 22.9086C329.311 22.9912 329.569 23.0022 329.822 22.9996H375.689C376.076 23.001 376.461 22.97 376.826 22.8976C377.19 22.8254 377.536 22.6878 377.852 22.4898C378.169 22.2922 378.455 22.0343 378.737 21.7692C379.767 20.8018 380.764 19.7953 381.719 18.753C381.977 18.473 382.228 18.1863 382.423 17.8723C382.612 17.5585 382.749 17.2179 382.817 16.8569C382.887 16.4959 382.894 16.1153 382.892 15.7339V7.21827L382.89 7.22297L382.892 1.28311C382.897 1.02622 382.885 0.767912 382.801 0.56202C382.718 0.355893 382.566 0.202176 382.359 0.119679C382.155 0.0374159 381.9 0.0263721 381.641 0.0291921L374.804 0.0296624L372.523 0.0298985C372.268 0.0273128 371.953 0.0254277 371.749 0.107691C371.545 0.189954 371.39 0.343904 371.308 0.549797C371.226 0.755926 371.217 1.014 371.218 1.2709L371.214 7.15528L371.224 16.6573C371.226 16.914 371.217 17.1724 371.135 17.3782C371.052 17.5841 370.897 17.7381 370.693 17.8203C370.487 17.9026 370.228 17.9138 369.973 17.911H367.653L367.174 17.9097L362.88 17.9127C362.807 17.8932 362.742 17.8718 362.678 17.846C362.265 17.6812 361.958 17.3738 361.793 16.9617C361.629 16.5497 361.606 16.0333 361.613 15.5198L361.571 1.28311C361.573 1.02622 361.561 0.767912 361.479 0.56202C361.397 0.355893 361.245 0.202176 361.038 0.119679C360.831 0.0374159 360.576 0.0263721 360.317 0.0291921L353.48 0.0296624L351.199 0.0298985C350.946 0.0273128 350.632 0.0254277 350.426 0.107691C350.219 0.19019 350.066 0.343904 349.984 0.550033C349.902 0.755926 349.893 1.014 349.895 1.2709L349.935 10.4735V10.82Z" fill="white"/>
<path d="M306.844 22.995L269.752 22.9952C269.495 22.9979 269.248 23.0198 269.043 22.9375C268.836 22.855 268.683 22.7015 268.601 22.4953C268.519 22.2894 268.508 22.0313 268.51 21.7745V19.1816C268.508 18.9247 268.519 18.6664 268.601 18.4608C268.683 18.2548 268.836 18.1011 269.043 18.0186C269.248 17.936 269.506 17.9249 269.763 17.9276H299.904C300.417 17.9329 300.932 17.9109 301.344 17.7461C301.755 17.5815 302.063 17.2738 302.226 16.8617C302.391 16.45 302.413 15.9335 302.408 15.4199V15.3332C302.411 15.0764 302.4 14.8183 302.317 14.6121C302.235 14.4064 302.081 14.2525 301.877 14.17C301.67 14.0879 301.413 14.0767 301.156 14.0794H283.684H281.77H269.785C269.53 14.082 269.271 14.0848 269.067 14.0023C268.861 13.9201 268.708 13.7664 268.626 13.5602C268.544 13.3542 268.532 13.0961 268.535 12.8393L268.548 7.21853V6.47009C268.561 4.97363 268.63 2.81205 268.874 2.20135C269.204 1.37736 269.816 0.762439 270.639 0.432759C271.462 0.103301 272.493 0.0593116 273.518 0.0695307H312.795C313.052 0.0670884 313.309 0.0781983 313.515 0.160395C313.721 0.242814 313.875 0.396546 313.956 0.602485C314.038 0.808646 314.05 1.06679 314.047 1.32361V3.91617C314.05 4.17298 314.038 4.43136 313.956 4.6373C313.875 4.84323 313.721 4.99696 313.515 5.07938C313.309 5.16158 313.052 5.17269 312.795 5.17003H282.653C282.14 5.16492 281.626 5.18713 281.214 5.35175C280.803 5.51659 280.495 5.82405 280.331 6.23593C280.167 6.64803 280.144 7.16454 280.151 7.67795V7.76459C280.147 8.02162 280.157 8.27977 280.24 8.48549C280.322 8.69165 280.477 8.84515 280.681 8.92754C280.888 9.01025 281.145 9.02131 281.402 9.01865L309.022 9.006C310.047 8.99556 311.078 9.03953 311.901 9.36923C312.723 9.69866 313.355 10.197 313.684 11.021C314.012 11.8449 314.056 12.8777 314.045 13.9052V13.9903V13.9898L314.043 14.5164L314.047 14.8865V15.7533C314.05 16.1348 314.043 16.5156 313.972 16.8766C313.901 17.2373 313.768 17.5781 313.575 17.8921C313.382 18.2057 313.131 18.4925 312.872 18.7724C311.916 19.8148 310.923 20.8214 309.891 21.7887C309.61 22.0539 309.322 22.3119 309.005 22.5096C308.689 22.7073 308.346 22.8447 307.98 22.9172C307.616 22.9894 307.23 22.9965 306.844 22.995Z" fill="white"/>
</g>
<defs>
<clipPath id="clip0_8262:45565">
<rect width="383.333" height="23" fill="white"/>
</clipPath>
</defs>
</svg>
