<svg width="240" height="24" viewBox="0 0 240 24" fill="none" xmlns="http://www.w3.org/2000/svg">
<g clip-path="url(#clip0_1807_10319)">
<path d="M31.0321 0L28.5282 4.03466H10.6109C9.58464 4.03466 9.00998 4.67171 9.00998 5.30877C9.00998 5.98829 9.4615 6.49794 10.5698 6.7952C11.7602 7.09251 25.737 10.6813 26.9684 10.9998C28.3025 11.3395 31.0321 12.3588 31.0321 16.1174C31.0321 19.3876 28.5282 21.6598 26.2706 21.6598H0L2.42182 17.2853H20.4623C22.1247 17.2853 22.3505 16.3085 22.3505 15.7139C22.3505 15.0557 22.1453 14.3761 20.9549 14.0576C19.3746 13.6329 9.25626 10.9785 6.71131 10.3415C5.0694 9.9168 1.78558 8.64269 1.78558 5.33C1.78558 2.69685 3.57116 0.0212351 8.4148 0.0212351H31.0321V0Z" fill="white"/>
<path d="M33.1279 2.31934H57.7565C61.7176 2.31934 63.8316 3.91197 63.8316 6.33277V11.1107C63.8316 13.3828 61.841 15.3152 57.7565 15.3152H45.8322L42.8358 11.323H55.068C56.6686 11.323 57.7565 10.4099 57.7565 8.75357C57.7565 7.39454 56.6686 6.33277 55.068 6.33277H40.6808V21.4521H33.1279V2.31934Z" fill="white"/>
<path d="M120.155 2.31934L123.234 6.33277H133.742V21.4521H141.357V6.33277H151.865L154.758 2.31934H120.155Z" fill="white"/>
<path d="M99.1535 11.1107H110.134C111.365 11.1107 112.33 10.0914 112.33 8.71111C112.33 7.33083 111.263 6.33277 110.134 6.33277H96.1367V17.4175C96.1367 19.4136 94.8436 21.4521 91.0877 21.4521H70.995C68.0803 21.4521 66.2539 19.7533 66.2539 17.4175V6.33277C66.2539 4.2305 68.7576 2.31934 71.6719 2.31934H113.151C118.077 2.31934 119.267 4.03938 119.267 7.13968V10.0701C119.267 11.8964 117.892 14.2959 114.69 14.2959H112.084L125.26 24.0003H116.783L99.1535 11.1107ZM73.0064 8.159V15.5488C73.0064 16.3557 73.704 17.4175 75.079 17.4175H87.3728C88.6451 17.4175 89.4459 16.3982 89.4459 15.5912V8.13774C89.4459 7.30957 88.6659 6.33277 87.3728 6.33277H75.079C73.6423 6.33277 73.0064 7.39454 73.0064 8.159Z" fill="white"/>
<path d="M147.668 21.8981L159.715 2.31934H169.464L181.224 21.8768L174.452 21.9618L171.66 17.2264H157.335L154.482 21.8556L147.668 21.8981ZM164.62 5.5683L159.879 13.2341H169.197L164.62 5.5683Z" fill="white"/>
<path d="M196.201 9.73037L198.295 13.3828H205.027V15.5912C205.027 16.4194 204.493 17.4175 203.548 17.4175H190.803C189.305 17.4175 188.587 16.5044 188.587 15.5912V8.13774C188.587 7.28837 189.613 6.33277 191.049 6.33277H210.917V2.31934H187.458C183.661 2.31934 181.917 4.93125 181.917 6.33277V17.4175C181.917 18.9889 183.579 21.4521 187.479 21.4521H205.027C209.07 21.4521 210.917 19.7321 210.917 17.0777V9.73037H196.201Z" fill="white"/>
<path d="M213.36 21.4521V2.31934H240L236.983 6.33277L220.994 6.37523L220.974 9.73037H236.388V13.7013H220.974V17.4175H236.983L240 21.4521H213.36Z" fill="white"/>
</g>
<defs>
<clipPath id="clip0_1807_10319">
<rect width="240" height="24" fill="white"/>
</clipPath>
</defs>
</svg>
