<svg width="44" height="50" viewBox="0 0 44 50" fill="none" xmlns="http://www.w3.org/2000/svg">
<path d="M26.0231 10.5537V11.7759H22.6352V16.6441H30.4697C30.7112 16.6441 30.9427 16.7379 31.1135 16.905C31.2842 17.072 31.3802 17.2986 31.3802 17.5348V20.9322H35.8268V24.5989H40.0616V21.8644H41.1838C42.1463 24.5203 42.5567 27.3375 42.3908 30.1507C42.5631 32.749 42.1735 35.3537 41.2473 37.7947H40.0616V35.7232H35.8268V39.7213C35.8268 39.9575 35.7308 40.1841 35.5601 40.3512C35.3893 40.5182 35.1577 40.6121 34.9163 40.6121H18.6968L14.462 35.6817L13.975 35.1224H8.0462V28.5141H3.51492V34.9567H1.58807V19.0885H3.51492V25.5725H8.0462V19.0885H13.0433V17.5348C13.0433 17.2986 13.1392 17.072 13.31 16.905C13.4807 16.7379 13.7123 16.6441 13.9538 16.6441H19.5438V11.7552H16.2406V10.5744H26.0231V10.5537ZM26.8701 9.02072H15.3936C15.1971 9.02072 15.0086 9.0971 14.8696 9.23308C14.7306 9.36905 14.6525 9.55347 14.6525 9.74576V13.3296H17.9557V15.1111H13.9538C13.2948 15.1111 12.6625 15.3658 12.1945 15.8197C11.7265 16.2737 11.4608 16.8901 11.4552 17.5348H7.70741C7.37608 17.5348 7.05832 17.6636 6.82404 17.8928C6.58975 18.122 6.45813 18.4329 6.45813 18.7571V23.9567H5.10298V18.3427C5.10024 18.2339 5.0756 18.1267 5.03048 18.0272C4.98536 17.9277 4.92064 17.8378 4.84002 17.7628C4.75939 17.6878 4.66445 17.629 4.56061 17.5899C4.45677 17.5508 4.34608 17.5321 4.23484 17.5348H0.825794C0.60847 17.5401 0.401531 17.6269 0.247813 17.7773C0.0940949 17.9277 0.00536846 18.1301 0 18.3427L0 35.6817C0.00536846 35.8943 0.0940949 36.0968 0.247813 36.2472C0.401531 36.3976 0.60847 36.4844 0.825794 36.4896H4.23484C4.45216 36.4844 4.6591 36.3976 4.81282 36.2472C4.96654 36.0968 5.05527 35.8943 5.06064 35.6817V30.0678H6.43696V35.2674C6.43696 35.5916 6.56858 35.9024 6.80286 36.1317C7.03715 36.3609 7.35491 36.4896 7.68624 36.4896H13.3397L17.9557 42H34.8951C35.5577 42 36.1933 41.7425 36.6618 41.284C37.1304 40.8256 37.3936 40.2039 37.3936 39.5556V37.0904H38.4947V39.162H42.1155C42.1155 39.162 44 37.6083 44 29.9642C44 22.3201 42.1367 20.2072 42.1367 20.2072H38.4947V23.0452H37.3936V20.6008C37.3965 20.4385 37.3662 20.2774 37.3047 20.1267C37.2432 19.976 37.1516 19.8388 37.0353 19.7231C36.919 19.6074 36.7804 19.5155 36.6274 19.4528C36.4744 19.3901 36.3102 19.3578 36.1444 19.3578H32.9682V17.5348C32.9682 16.8865 32.705 16.2648 32.2364 15.8064C31.7679 15.3479 31.1323 15.0904 30.4697 15.0904H24.1174V13.3296H27.5265V9.72505C27.5277 9.54628 27.4613 9.37339 27.3402 9.23957C27.219 9.10574 27.0516 9.02043 26.8701 9V9.02072Z" fill="white"/>
</svg>
