<svg width="50" height="50" viewBox="0 0 50 50" fill="none" xmlns="http://www.w3.org/2000/svg">
<path fill-rule="evenodd" clip-rule="evenodd" d="M3 8C3 5.79086 4.76258 4 6.93684 4H43.0632C45.2374 4 47 5.79086 47 8V42C47 44.2091 45.2374 46 43.0632 46H6.93684C4.76258 46 3 44.2091 3 42V8ZM6.93684 6C5.84971 6 4.96842 6.89543 4.96842 8V42C4.96842 43.1046 5.84971 44 6.93684 44H43.0632C44.1503 44 45.0316 43.1046 45.0316 42V8C45.0316 6.89543 44.1503 6 43.0632 6H6.93684Z" fill="white"/>
<path d="M13.98 29.9998H15.612V21.1558L12.684 21.8638V23.1238L13.98 22.9198V29.9998Z" fill="white"/>
<path d="M17.6871 29.9998H22.7871L23.3271 28.6438H19.9191L20.8071 27.7318C22.2351 26.3038 22.9671 25.1278 22.9671 23.7478C22.9671 22.0078 21.9951 21.1918 20.0031 21.1918C19.3071 21.1918 18.3951 21.3958 17.7591 21.6478V22.9558C18.5991 22.6798 19.2591 22.5598 19.8351 22.5598C20.9391 22.5598 21.3111 22.9678 21.3111 23.8318C21.3111 24.7438 20.7351 25.7758 19.6551 26.8438L17.6871 28.7758V29.9998Z" fill="white"/>
<path d="M24.4979 30.2038H26.1299V28.5598H24.4979V30.2038Z" fill="white"/>
<path d="M32.5951 23.4718C32.5951 21.8878 31.6831 21.1918 29.7751 21.1918C29.1751 21.1918 28.1431 21.3718 27.5071 21.6598V22.9558C28.3231 22.6798 29.0071 22.5598 29.7751 22.5718C30.6391 22.5838 30.9391 22.9078 30.9391 23.4958C30.9391 24.5518 29.9911 24.7798 29.1871 24.7798H28.5511V26.1718H29.1871C30.3991 26.1718 31.2511 26.3998 31.2511 27.5038C31.2151 28.3198 30.8311 28.7158 29.7751 28.7158C29.0071 28.7158 28.4311 28.6558 27.2191 28.3678V29.6758C28.0831 29.9518 29.0071 30.1198 29.9191 30.1198C31.7671 30.1198 32.9071 29.3278 32.9071 27.5038C32.9071 26.2438 32.3551 25.6078 31.4911 25.3078C32.1631 24.9358 32.5951 24.3478 32.5951 23.4718Z" fill="white"/>
<path d="M35.4507 23.9998H36.8067L37.8867 21.2038H36.1467L35.4507 23.9998ZM33.4347 23.9998H34.7907L35.8707 21.2038H34.1307L33.4347 23.9998Z" fill="white"/>
</svg>
