<svg width="50" height="50" viewBox="0 0 50 50" fill="none" xmlns="http://www.w3.org/2000/svg">
<g clip-path="url(#clip0)">
<path fill-rule="evenodd" clip-rule="evenodd" d="M26.7071 3.82843L21.4142 9.12132L20 7.70711L26.7071 1L33.4142 7.70711L32 9.12132L26.7071 3.82843Z" fill="white"/>
<path fill-rule="evenodd" clip-rule="evenodd" d="M26.7071 46L21.4142 40.7071L20 42.1213L26.7071 48.8284L33.4142 42.1213L32 40.7071L26.7071 46Z" fill="white"/>
<path d="M35.544 23.5392H32.769V31.4142H34.629V26.5092L35.634 31.1442H37.719L38.754 26.4792V31.4142H40.599V23.5392H37.824L36.684 28.7292L35.544 23.5392Z" fill="white"/>
<path d="M44.9922 23.5392H42.2172V31.4142H44.0772V26.5092L45.0822 31.1442H47.1672L48.2022 26.4792V31.4142H50.0472V23.5392H47.2722L46.1322 28.7292L44.9922 23.5392Z" fill="white"/>
<path d="M1.96988 31.9999H4.41788V18.7339L0.0258789 19.7959V21.6859L1.96988 21.3799V31.9999Z" fill="white"/>
<path d="M11.8865 20.8219C14.1185 20.8219 14.2625 22.6219 14.2625 25.3039C13.5965 25.5019 12.6785 25.6819 11.9045 25.6819C10.4465 25.6819 9.83447 25.0879 9.83447 23.3419C9.83447 21.6679 10.3205 20.8219 11.8865 20.8219ZM11.4185 30.1639C10.5005 30.1639 9.31247 29.9659 8.08847 29.6239V31.5499C9.33047 31.9639 10.7345 32.1979 11.8865 32.1979C14.3525 32.1979 16.7645 31.0819 16.7645 25.0339C16.7645 21.1279 15.3965 18.7879 11.8865 18.7879C8.77247 18.7879 7.35047 20.6959 7.35047 23.5219C7.35047 26.1859 8.79047 27.7159 11.4545 27.7159C12.2465 27.7159 13.2545 27.5899 14.2085 27.2839C13.9745 29.5879 12.8765 30.1639 11.4185 30.1639Z" fill="white"/>
<path d="M23.88 27.9319C23.88 29.2459 23.358 30.0559 21.846 30.0559C20.622 30.0559 19.488 29.9119 17.976 29.5339V31.5139C19.326 31.9279 20.694 32.1619 22.062 32.1619C24.924 32.1619 26.418 30.6859 26.418 27.9319C26.418 24.9619 24.87 23.6299 21.864 23.6299C21.45 23.6299 21.198 23.6299 20.856 23.6839L21.054 20.9839H25.518L26.328 18.9139H18.876L18.426 25.8979C19.308 25.7719 20.298 25.6999 21.144 25.6999C23.16 25.6999 23.88 26.1499 23.88 27.9319Z" fill="white"/>
</g>
<defs>
<clipPath id="clip0">
<rect width="50" height="50" fill="white"/>
</clipPath>
</defs>
</svg>
