<svg width="50" height="50" viewBox="0 0 50 50" fill="none" xmlns="http://www.w3.org/2000/svg">
<path fill-rule="evenodd" clip-rule="evenodd" d="M42.9247 4.0882C41.9102 4.25352 40.8154 4.67527 40.0874 5.63755C39.3893 6.56022 39.3502 7.71871 39.5612 8.77858C39.6643 9.29631 39.8203 9.75107 39.9514 10.0771C40.0166 10.2389 40.0744 10.3661 40.1145 10.4501C40.1345 10.492 40.15 10.523 40.1597 10.5418L40.1695 10.5609L40.17 10.5619L40.1708 10.5633L40.5228 11.2147L39.9937 11.7392C39.896 11.8361 39.7805 11.946 39.6493 12.0707C38.4297 13.2311 35.8596 15.6763 33.6606 20.9084C31.7855 25.3698 31.196 27.9088 30.7036 31.163L30.5641 32.0851L29.6266 32.0107L29.7069 31.0148C29.6266 32.0107 29.6266 32.0107 29.6266 32.0107L29.4849 31.9996C29.3916 31.9923 29.2538 31.9816 29.0761 31.968C28.7208 31.9407 28.2062 31.9018 27.5696 31.855C26.2964 31.7615 24.536 31.6369 22.5874 31.5122C18.6804 31.2623 14.0493 31.0147 11.0625 31.0147C9.7272 31.0147 8.72727 31.3429 7.96334 31.8414C7.19314 32.3441 6.60608 33.0575 6.16313 33.9083C5.43294 35.3108 5.13211 37.0148 5.04469 38.5081H37.4291L43.6259 4.01102C43.4104 4.02385 43.1735 4.04765 42.9247 4.0882ZM44.8241 3.03988L44.9618 2.05015L46 2.19212L39.1174 40.5063H3V39.5072C3 37.6956 3.25603 35.1354 4.37202 32.9918C4.93688 31.9068 5.73556 30.903 6.85501 30.1724C7.98072 29.4377 9.37434 29.0165 11.0625 29.0165C14.1225 29.0165 18.8137 29.2685 22.7172 29.5182C24.6738 29.6433 26.4407 29.7685 27.7185 29.8623C28.16 29.8947 28.5431 29.9234 28.8556 29.9471C29.3523 26.95 30.0353 24.3386 31.8 20.1399C34.0656 14.7495 36.7497 12.0663 38.073 10.8017C37.9102 10.395 37.7152 9.82563 37.5838 9.1655C37.3224 7.85252 37.2833 6.01372 38.4749 4.43863C39.6365 2.90316 41.3131 2.3258 42.5977 2.11646C43.2476 2.01055 43.8272 1.99321 44.245 2.00198C44.4549 2.00638 44.6266 2.01743 44.7492 2.02783C44.8106 2.03303 44.8599 2.03809 44.8957 2.0421C44.9136 2.0441 44.9282 2.04585 44.9393 2.04723L44.9532 2.04901L44.9582 2.04966L44.9618 2.05015C44.9618 2.05015 44.9618 2.05015 44.8241 3.03988Z" fill="white"/>
<path fill-rule="evenodd" clip-rule="evenodd" d="M24.164 18.8326V15.8928H26.1796V18.8326C26.1796 21.5919 25.5952 24.3204 24.4642 26.8416C22.4089 31.4233 22.4089 36.654 24.4642 41.2357L25.3843 43.2868C25.9086 44.4557 26.1796 45.7207 26.1796 47H24.164C24.164 46.0005 23.9523 45.012 23.5426 44.0987L22.6225 42.0477C20.3353 36.9491 20.3353 31.1283 22.6225 26.0296C23.6388 23.764 24.164 21.3121 24.164 18.8326Z" fill="white"/>
<path fill-rule="evenodd" clip-rule="evenodd" d="M25.2343 16.3362L22.9106 18.3285L21.3861 17.0214L25.2343 13.722L29.0825 17.0214L27.558 18.3285L25.2343 16.3362Z" fill="white"/>
<path fill-rule="evenodd" clip-rule="evenodd" d="M14.0859 18.9529V16.0277H16.1015V18.9529C16.1015 21.7024 15.5169 24.4209 14.3859 26.9313C12.332 31.49 12.332 36.6997 14.3859 41.2584L15.306 43.3007C15.8305 44.4647 16.1015 45.7252 16.1015 46.9999H14.0859C14.0859 46.006 13.8745 45.0232 13.4657 44.1156L12.5455 42.0733C10.258 36.996 10.258 31.1937 12.5455 26.1164C13.561 23.8624 14.0859 21.4215 14.0859 18.9529Z" fill="white"/>
<path fill-rule="evenodd" clip-rule="evenodd" d="M15.1562 16.442L12.7829 18.7949L11.3576 17.3819L15.1562 13.6161L18.9548 17.3819L17.5295 18.7949L15.1562 16.442Z" fill="white"/>
</svg>
