<svg width="50" height="50" viewBox="0 0 50 50" fill="none" xmlns="http://www.w3.org/2000/svg">
<path fill-rule="evenodd" clip-rule="evenodd" d="M2.98413 8C2.98413 5.79086 4.77499 4 6.98413 4H43.0157C45.2249 4 47.0157 5.79086 47.0157 8V42C47.0157 44.2091 45.2248 46 43.0157 46H6.98413C4.77499 46 2.98413 44.2091 2.98413 42V8ZM6.98413 6C5.87956 6 4.98413 6.89543 4.98413 8V42C4.98413 43.1046 5.87956 44 6.98413 44H43.0157C44.1203 44 45.0157 43.1046 45.0157 42V8C45.0157 6.89543 44.1203 6 43.0157 6H6.98413Z" fill="white"/>
<path d="M23.6349 31.195C26.3649 31.195 27.7749 29.845 27.7749 28.03C27.7749 26.68 26.8899 25.825 25.8399 25.345C26.7399 24.76 27.3849 23.95 27.3849 22.885C27.3849 21.13 26.0049 19.96 23.6199 19.96C21.2049 19.96 19.8699 21.13 19.8699 22.885C19.8699 24.01 20.5299 24.805 21.3849 25.36C20.4399 25.87 19.5849 26.71 19.5849 28.03C19.5849 29.89 20.9199 31.195 23.6349 31.195ZM23.6349 29.515C22.3149 29.515 21.5799 28.93 21.5799 28.03C21.5799 27.07 22.4199 26.38 23.6349 26.155C24.8349 26.38 25.7049 27.055 25.7049 28.03C25.7049 28.93 25.0149 29.515 23.6349 29.515ZM21.9549 22.885C21.9549 22.105 22.5249 21.625 23.6199 21.625C24.7599 21.625 25.3449 22.105 25.3449 22.885C25.3449 23.785 24.7749 24.19 23.6349 24.595C22.4499 24.19 21.9549 23.77 21.9549 22.885Z" fill="white"/>
<path d="M30.9549 23.5H32.6499L33.9999 20.005H31.8249L30.9549 23.5ZM28.4349 23.5H30.1299L31.4799 20.005H29.3049L28.4349 23.5Z" fill="white"/>
</svg>
