<svg width="426" height="30" viewBox="0 0 426 30" fill="none" xmlns="http://www.w3.org/2000/svg">
<path d="M145.923 2.86124C146.352 3.00431 146.925 3.14737 147.497 3.14737H154.221C154.507 3.14737 154.936 3.14737 155.365 3.14737C155.794 3.14737 156.51 3.00431 157.082 2.43206L158.083 1.43062C158.369 1.1445 158.37 0.572249 157.94 0.286124C157.511 0 156.939 0 156.51 0H149.357C148.927 0 148.355 0 147.926 0.143062C147.497 0.286124 147.211 0.429187 146.925 0.715311C146.638 1.00144 146.781 0.858373 146.066 1.57368C145.351 2.14593 145.494 2.57512 145.923 2.86124Z" fill="white"/>
<path d="M425.038 5.43614C424.895 5.00695 424.323 5.00695 423.893 5.00695H386.983C385.982 5.00695 384.98 5.00695 384.265 5.15001C384.408 4.72083 384.265 4.29164 383.836 4.14858C383.55 4.00551 383.121 4.00551 382.691 4.00551C378.4 4.00551 377.97 4.00551 377.398 4.00551C375.538 4.00551 373.678 4.29164 372.248 5.43614C371.962 5.5792 364.093 13.5907 363.807 13.8768C362.806 14.8782 361.518 15.5936 360.088 16.0227C357.656 16.7381 354.794 16.8811 352.076 16.8811H318.743C326.468 15.0213 324.608 15.4505 342.634 11.1586C344.065 10.8725 347.927 9.728 350.359 8.15432C353.078 6.43757 353.078 4.72083 350.216 4.29164C349.501 4.14858 348.786 4.14858 347.784 4.14858H330.903C325.18 4.14858 320.03 4.57776 315.595 5.43614C311.303 6.29451 303.578 8.29738 300.431 12.7323C299.572 14.0199 299.143 15.3074 299.286 16.4519C298.142 16.8811 296.854 17.0242 295.137 17.0242C280.402 17.0242 277.97 17.0242 277.398 17.0242C283.835 10.5864 281.976 12.4462 287.841 6.43757C288.7 5.5792 288.7 4.4347 285.981 4.14858C284.98 4.00551 280.116 4.14858 279.544 4.14858C278.685 4.29164 278.113 4.4347 277.255 5.15001C276.825 4.86389 276.11 4.57776 275.395 4.4347C274.393 4.29164 273.106 4.14858 271.532 4.14858H261.375C254.794 4.14858 245.924 5.00695 240.488 8.72657C236.482 11.4447 235.91 14.5921 237.054 16.595C236.196 16.8811 235.051 16.8811 233.764 16.8811H214.593C214.164 16.8811 213.592 16.7381 213.449 16.595C213.163 16.3089 213.735 15.7366 214.021 15.4505C219.028 10.4433 217.598 11.8739 220.03 9.44188C222.891 6.58063 221.031 4.86389 218.17 4.86389H191.417C190.702 4.86389 189.987 4.86389 189.271 4.86389C189.271 4.72083 189.271 4.57776 189.271 4.57776C189.128 4.14858 188.556 4.00551 187.698 4.00551C186.41 4.00551 182.977 4.00551 182.261 4.00551C180.258 4.00551 178.256 4.29164 176.825 5.72226C169.243 13.4476 171.675 10.8725 167.669 14.8782C165.809 16.7381 162.948 16.8811 159.944 16.8811H144.636C144.207 16.8811 143.634 16.7381 143.491 16.595C143.205 16.3089 143.778 15.7366 144.064 15.4505C147.783 11.7309 145.494 14.0199 153.077 6.43757C153.649 5.86532 153.363 5.00695 151.646 5.00695C146.639 5.00695 146.353 5.00695 145.494 5.00695C144.064 5.15001 142.204 5.29307 140.916 6.7237C136.624 11.0156 136.911 10.7294 132.762 14.8782C130.902 16.7381 128.041 16.8811 125.036 16.8811H100.859C99.5713 16.8811 99.4282 16.4519 100.287 15.4505L108.441 7.15288C108.727 7.15288 116.882 7.15288 117.025 7.15288C118.742 7.15288 120.745 7.00982 122.318 6.00839C122.747 5.72226 123.033 5.43614 123.32 5.00695C123.606 4.72083 123.606 4.4347 123.463 4.29164C123.32 3.86245 122.747 3.86245 122.175 3.86245H111.445C112.59 2.71795 112.161 3.14714 113.448 1.85958C113.591 1.71652 113.878 1.28733 113.734 1.00121C113.591 0.572021 112.876 0.572021 112.018 0.572021C107.154 0.572021 106.724 0.572021 105.866 0.572021C104.435 0.715084 102.576 1.00121 101.288 2.28877C100.287 3.2902 100.573 3.00408 99.5713 4.00551C91.7029 4.00551 88.6986 4.00551 74.6785 4.00551C65.3794 4.00551 65.2364 4.00551 63.9488 4.14858C61.6598 4.29164 59.9431 4.57776 58.3694 5.00695C56.5096 5.5792 54.9359 6.58063 53.6483 7.86819C51.9316 9.58494 52.5038 8.86963 48.6412 12.8754C46.066 15.4505 42.4895 16.8811 38.7699 16.8811C6.00861 16.8811 7.72536 16.8811 7.01005 16.8811C5.72249 16.8811 4.57799 17.1672 3.57656 17.4534C3.00431 17.5964 1.28756 18.3117 0.715311 18.5979C0.429187 18.7409 0 19.027 0 19.4562C0.143062 19.8854 0.715311 19.8854 1.28756 19.8854H42.6325C47.4967 19.8854 52.0746 19.7424 55.5081 17.3103C56.3665 16.7381 56.5096 16.595 59.5139 13.5907C60.2292 12.8754 60.9445 12.1601 61.9459 11.1586C64.6641 8.58351 68.2407 7.15288 71.9603 7.15288H96.567L90.7014 12.8754C86.1234 17.4534 89.2708 19.8854 93.5627 19.8854H124.893C127.039 19.8854 129.614 19.7424 131.903 18.884C133.048 19.7424 135.051 19.8854 135.909 19.8854H167.097C170.816 19.8854 174.822 19.7424 177.397 17.1672L184.693 9.87107C186.267 8.29738 188.413 8.01126 190.273 8.01126C191.417 8.01126 190.988 8.01126 207.869 8.01126C208.156 8.01126 209.014 8.01126 209.014 8.44044C209.014 8.72657 208.728 9.15575 208.442 9.44188C205.58 12.3031 207.011 10.8725 201.575 16.3089C199.143 18.7409 200.716 20.1715 203.148 20.1715H233.907C235.91 20.1715 238.056 20.0285 239.772 19.1701C241.203 19.8854 242.92 20.1715 244.923 20.1715C253.935 20.1715 253.792 20.1715 256.224 20.0285C258.227 19.8854 260.659 19.8854 262.519 19.7424C259.658 22.6036 258.8 23.7481 256.511 24.8926C254.508 26.0371 252.219 26.6093 249.93 26.6093H233.048C233.478 26.1802 234.193 25.6079 234.622 25.0357C235.051 24.6065 235.051 24.0342 234.622 23.8912C234.193 23.7481 233.621 23.7481 233.191 23.7481H230.902C229.329 23.7481 227.755 24.1773 226.324 24.8926C224.465 25.894 223.606 26.1802 223.177 26.4663C222.748 26.7524 222.462 27.0385 222.176 27.3247C221.603 27.8969 221.746 27.7538 221.031 28.4692C220.459 29.0414 220.602 29.6136 221.317 29.7567C221.603 29.8998 222.176 29.8998 222.462 29.8998H247.784C255.08 29.8998 260.945 29.4706 265.523 27.1816C269.243 25.3218 271.675 22.7467 274.25 20.1715H295.137C297.14 20.1715 299.286 19.8854 301.146 19.1701C302.147 19.8854 303.721 20.1715 305.295 20.1715H358.085C361.375 20.1715 365.095 20.0285 368.385 19.1701C369.673 18.7409 370.96 18.1687 371.962 17.4534C373.106 16.7381 372.963 16.7381 379.258 10.4433C381.118 8.58351 384.122 8.44044 386.983 8.44044H411.59L411.304 8.72657C411.018 9.01269 411.018 9.15575 411.018 9.29882C411.161 9.728 411.733 9.728 412.162 9.728C414.165 9.728 415.023 9.728 415.596 9.728C416.168 9.728 416.883 9.728 417.742 9.44188C418.171 9.29882 418.457 9.29882 418.743 9.15575C420.031 8.58351 420.889 8.29738 422.177 7.72513C422.749 7.58207 423.178 7.43901 423.75 7.15288C424.036 7.00982 424.323 6.7237 424.609 6.58063C424.752 6.43757 424.752 6.43757 424.895 6.29451C425.181 5.72226 425.181 5.43614 425.038 5.43614ZM274.393 8.01126L269.529 12.8754C266.382 16.0227 261.661 16.4519 256.94 16.4519H249.787C248.928 16.4519 246.925 16.3089 246.496 15.1644C246.067 14.0199 247.641 12.5892 248.07 12.1601C252.219 8.44044 260.087 7.29595 266.096 7.29595H271.818C272.534 7.29595 273.678 7.43901 274.25 7.72513C274.536 7.72513 274.536 7.86819 274.393 8.01126ZM311.446 15.0213C310.016 15.1644 308.728 14.8782 309.444 13.7337C310.302 12.3031 312.734 11.0156 314.308 10.4433C315.738 9.87107 317.455 9.29882 319.315 8.86963C323.75 7.86819 328.9 7.29595 334.766 7.29595C337.77 7.29595 339.63 7.29595 340.917 7.43901C341.346 7.43901 341.633 7.58207 341.776 7.58207C341.633 7.58207 341.633 7.72513 341.49 7.72513C340.631 8.01126 339.201 8.44044 338.485 8.5835C334.909 9.44188 316.74 13.7337 313.02 14.7352C312.448 14.8782 311.876 14.8782 311.446 15.0213Z" fill="white"/>
</svg>
