<svg width="44" height="33" viewBox="0 0 44 33" fill="none" xmlns="http://www.w3.org/2000/svg">
<path d="M26.0231 1.55367V2.77589H22.6352V7.64407H30.4697C30.7112 7.64407 30.9427 7.73792 31.1135 7.90497C31.2842 8.07202 31.3802 8.29859 31.3802 8.53484V11.9322H35.8268V15.5989H40.0616V12.8644H41.1838C42.1463 15.5203 42.5567 18.3375 42.3908 21.1507C42.5631 23.749 42.1735 26.3537 41.2473 28.7947H40.0616V26.7232H35.8268V30.7213C35.8268 30.9575 35.7308 31.1841 35.5601 31.3512C35.3893 31.5182 35.1577 31.6121 34.9163 31.6121H18.6968L14.462 26.6817L13.975 26.1224H8.0462V19.5141H3.51492V25.9567H1.58807V10.0885H3.51492V16.5725H8.0462V10.0885H13.0433V8.53484C13.0433 8.29859 13.1392 8.07202 13.31 7.90497C13.4807 7.73792 13.7123 7.64407 13.9538 7.64407H19.5438V2.75518H16.2406V1.57439H26.0231V1.55367ZM26.8701 0.0207156H15.3936C15.1971 0.0207156 15.0086 0.0971043 14.8696 0.233077C14.7306 0.36905 14.6525 0.553468 14.6525 0.745763V4.32957H17.9557V6.11111H13.9538C13.2948 6.11109 12.6625 6.36578 12.1945 6.81973C11.7265 7.27368 11.4608 7.89013 11.4552 8.53484H7.70741C7.37608 8.53484 7.05832 8.66361 6.82404 8.89282C6.58975 9.12203 6.45813 9.43291 6.45813 9.75706V14.9567H5.10298V9.34275C5.10024 9.23392 5.0756 9.12669 5.03048 9.02718C4.98536 8.92767 4.92064 8.83784 4.84002 8.76281C4.75939 8.68778 4.66445 8.62903 4.56061 8.58992C4.45677 8.5508 4.34608 8.53208 4.23484 8.53484H0.825794C0.60847 8.54009 0.401531 8.6269 0.247813 8.77729C0.0940949 8.92767 0.00536846 9.13013 0 9.34275L0 26.6817C0.00536846 26.8943 0.0940949 27.0968 0.247813 27.2472C0.401531 27.3976 0.60847 27.4844 0.825794 27.4896H4.23484C4.45216 27.4844 4.6591 27.3976 4.81282 27.2472C4.96654 27.0968 5.05527 26.8943 5.06064 26.6817V21.0678H6.43696V26.2674C6.43696 26.5916 6.56858 26.9024 6.80286 27.1317C7.03715 27.3609 7.35491 27.4896 7.68624 27.4896H13.3397L17.9557 33H34.8951C35.5577 33 36.1933 32.7425 36.6618 32.284C37.1304 31.8256 37.3936 31.2039 37.3936 30.5556V28.0904H38.4947V30.162H42.1155C42.1155 30.162 44 28.6083 44 20.9642C44 13.3201 42.1367 11.2072 42.1367 11.2072H38.4947V14.0452H37.3936V11.6008C37.3965 11.4385 37.3662 11.2774 37.3047 11.1267C37.2432 10.976 37.1516 10.8388 37.0353 10.7231C36.919 10.6074 36.7804 10.5155 36.6274 10.4528C36.4744 10.3901 36.3102 10.3578 36.1444 10.3578H32.9682V8.53484C32.9682 7.88653 32.705 7.26478 32.2364 6.80636C31.7679 6.34793 31.1323 6.0904 30.4697 6.0904H24.1174V4.32957H27.5265V0.725047C27.5277 0.546284 27.4613 0.37339 27.3402 0.239567C27.219 0.105744 27.0516 0.0204267 26.8701 0V0.0207156Z" fill="white"/>
</svg>
