<svg width="180" height="50" viewBox="0 0 180 50" fill="none" xmlns="http://www.w3.org/2000/svg">
<g clip-path="url(#clip0)">
<path d="M13.1134 25.8109H39.585C39.2564 26.5975 37.3577 30.558 37.3577 30.558H46.6045C48.2019 30.558 49.5438 30.3751 50.3562 29.0397C51.5793 27.0365 52.0905 25.8292 52.0905 25.8109C52.0905 25.8109 64.4774 25.8109 68.5029 25.8109C69.9086 25.8109 71.3052 23.8352 71.3874 23.6797H5.13547C-0.797807 23.6797 -2.54127 30.8233 4.06748 30.8233H20.0599L18.3347 34.7015H20.6807C22.1229 34.7015 22.917 34.3996 25.6646 33.2197C30.4569 31.1525 33.0219 30.0824 34.382 29.5336C35.7694 28.9756 34.5737 28.9573 33.9894 28.9573H12.3376C8.84149 28.9573 9.99163 25.8109 13.1134 25.8109Z" fill="white"/>
<path d="M79.6384 21.064C75.549 21.0091 72.6919 21 65.0152 21C55.2481 21 54.6639 21.0091 51.1222 21.064C49.5704 21.0915 48.4476 21.7317 47.7995 22.9025C47.763 22.9757 47.7174 23.0489 47.6809 23.1129H72.3268L72.2994 23.1861C72.2446 23.3324 72.0986 23.6251 71.8795 23.9544C71.8156 24.055 70.2821 26.3783 68.5021 26.3783C64.8874 26.3783 54.5361 26.3783 52.4549 26.3783C52.1354 27.0734 51.4782 28.2808 50.8301 29.3326C49.8169 30.9882 48.1099 31.1254 46.5946 31.1254H43.5641C43.4454 31.3724 43.3268 31.6376 43.199 31.912C42.633 33.1194 43.1168 34.5554 45.2893 34.5828C50.109 34.6377 51.2226 34.6469 59.9125 34.6469C69.7435 34.6469 70.8298 34.6286 74.0794 34.5828C75.476 34.5646 76.7904 33.8694 77.4294 32.6986C78.5157 30.7046 79.0268 29.6802 80.0766 27.4942C81.035 25.5185 81.2267 25.0337 81.7379 23.8995C82.3495 22.5275 81.9843 21.1006 79.6384 21.064ZM56.7816 32.5157H51.2774L53.6598 28.6558H55.2937L53.4225 31.6833H57.2928L56.7816 32.5157ZM59.164 32.5157H57.5301L59.9125 28.6558H61.5465L59.164 32.5157ZM64.8874 32.5157L63.4543 29.918L61.8477 32.5157H60.2138L62.5962 28.6558H64.1663L65.572 31.3083L67.2059 28.6558H68.8398L66.4574 32.5157H64.8874ZM74.5997 29.4881H70.9941L70.5833 30.1467H73.7416L73.2213 30.979H70.063L69.634 31.6742H73.5317L73.0114 32.5065H67.4798L69.8622 28.6466H75.1109L74.5997 29.4881Z" fill="white"/>
</g>
</svg>
