<svg width="50" height="50" viewBox="0 0 50 50" fill="none" xmlns="http://www.w3.org/2000/svg">
<rect x="3" y="3" width="44" height="44" rx="4" stroke="#05141F" stroke-width="2"/>
<path d="M10.7141 21.125L15.0518 26.3001C15.5973 26.9509 15.1346 27.9425 14.2854 27.9425H9.5" stroke="#05141F" stroke-width="2"/>
<path d="M39.2859 20.5626L34.8342 26.2593C34.3211 26.9159 34.7889 27.8751 35.6221 27.8751H40.5" stroke="#05141F" stroke-width="2"/>
<path d="M14.1428 26.75L15.2385 26.9712C21.862 28.3087 28.6933 28.2333 35.2857 26.75V26.75" stroke="#05141F" stroke-width="2"/>
<path d="M11.8572 18.8751L15.6186 19.197C21.8615 19.7314 28.1386 19.7314 34.3815 19.197L38.1429 18.8751" stroke="#05141F" stroke-width="2"/>
<path d="M33.5713 34.475V36C33.5713 37.1046 34.4667 38 35.5713 38H37.2856C38.3901 38 39.2856 37.1046 39.2856 36V36V32.5" stroke="#05141F" stroke-width="2"/>
<path d="M16.4287 34.3V36C16.4287 37.1046 15.5333 38 14.4287 38H12.7144C11.6099 38 10.7144 37.1046 10.7144 36V35.75V32.5" stroke="#05141F" stroke-width="2"/>
<path d="M9.57129 29.9061V24.8731C9.57129 24.2454 9.71903 23.6264 10.0026 23.0664L12.657 17.8231L14.7915 14.0473C15.856 12.1643 17.8516 11 20.0147 11H29.9851C32.1481 11 34.1438 12.1643 35.2082 14.0473L37.3427 17.8231L39.9972 23.0664C40.2807 23.6264 40.4284 24.2454 40.4284 24.8731V29.9061C40.4284 32.0024 38.8101 33.7431 36.7193 33.8955L31.3995 34.2834C27.1387 34.5941 22.861 34.5941 18.6002 34.2834L13.2804 33.8955C11.1897 33.7431 9.57129 32.0024 9.57129 29.9061Z" stroke="#05141F" stroke-width="2"/>
</svg>
