<svg width="25" height="25" viewBox="0 0 25 25" fill="none" xmlns="http://www.w3.org/2000/svg">
<path d="M0.000122071 12.4994C0.000102683 9.18419 1.31704 6.00479 3.66122 3.66061C6.0054 1.31643 9.18479 -0.000506404 12.5 -0.000488281C15.8152 -0.000469989 18.9946 1.3165 21.3388 3.66071C23.683 6.00491 25 9.18432 25 12.4995L0.000122071 12.4994Z" fill="#020408"/>
<path d="M24.9998 12.4996C24.9998 15.8148 23.6829 18.9942 21.3387 21.3384C18.9945 23.6826 15.8151 24.9995 12.4999 24.9995C9.18475 24.9995 6.00534 23.6825 3.66113 21.3383C1.31693 18.9941 -4.26326e-05 15.8147 -6.10352e-05 12.4995L24.9998 12.4996Z" fill="#AA4537"/>
</svg>
