<svg width="25" height="25" viewBox="0 0 25 25" fill="none" xmlns="http://www.w3.org/2000/svg">
<path d="M0.000183106 12.4999C0.000163718 15.8151 1.3171 18.9945 3.66128 21.3387C6.00546 23.6828 9.18485 24.9998 12.5 24.9998C15.8152 24.9997 18.9946 23.6828 21.3388 21.3386C23.6831 18.9944 25 15.8149 25 12.4998L0.000183106 12.4999Z" fill="#3150A0"/>
<path d="M24.9998 12.4999C24.9998 9.18467 23.6829 6.00528 21.3387 3.6611C18.9945 1.31692 15.8151 -1.78435e-05 12.4999 1.81444e-10C9.18475 1.80125e-05 6.00534 1.31699 3.66113 3.66119C1.31693 6.0054 -4.26326e-05 9.18481 -6.10352e-05 12.5L24.9998 12.4999Z" fill="#E2E2E2"/>
</svg>
