<svg width="25" height="25" viewBox="0 0 25 25" fill="none" xmlns="http://www.w3.org/2000/svg">
<path d="M0.000183106 12.4998C0.000163718 9.18464 1.3171 6.00524 3.66128 3.66107C6.00546 1.31689 9.18485 -4.86405e-05 12.5 -3.05174e-05C15.8152 -1.22257e-05 18.9946 1.31696 21.3388 3.66116C23.6831 6.00537 25 9.18478 25 12.5L0.000183106 12.4998Z" fill="#D43539"/>
<path d="M24.9999 12.5002C24.9999 15.8154 23.6829 18.9948 21.3388 21.3389C18.9946 23.6831 15.8152 25.0001 12.5 25C9.18481 25 6.0054 23.683 3.66119 21.3388C1.31699 18.9946 1.84026e-05 15.8152 0 12.5L24.9999 12.5002Z" fill="#E2E2E2"/>
</svg>
