<svg width="25" height="25" viewBox="0 0 25 25" fill="none" xmlns="http://www.w3.org/2000/svg">
<path d="M0.000183106 12.5001C0.000163718 15.8153 1.3171 18.9947 3.66128 21.3389C6.00546 23.6831 9.18485 25 12.5 25C15.8152 25 18.9946 23.683 21.3388 21.3388C23.6831 18.9946 25 15.8152 25 12.5L0.000183106 12.5001Z" fill="#E2E2E2"/>
<path d="M24.9998 12.5001C24.9998 9.18492 23.6829 6.00552 21.3387 3.66134C18.9945 1.31716 15.8151 0.000226297 12.4999 0.000244141C9.18475 0.000262153 6.00534 1.31723 3.66113 3.66144C1.31693 6.00564 -4.26326e-05 9.18505 -6.10352e-05 12.5002L24.9998 12.5001Z" fill="#262828"/>
</svg>
