<svg width="40" height="40" viewBox="0 0 40 40" fill="none" xmlns="http://www.w3.org/2000/svg">
<path d="M0.000366211 20.0001C0.000335191 25.3044 2.10744 30.3915 5.85815 34.1422C9.60886 37.8929 14.6959 40 20.0003 40C25.3046 40 30.3917 37.8928 34.1424 34.142C37.8932 30.3913 40.0003 25.3042 40.0004 19.9999L0.000366211 20.0001Z" fill="black"/>
<path d="M40 19.9999C40 14.6956 37.8929 9.60849 34.1422 5.85779C30.3915 2.10708 25.3044 -2.85498e-05 20.0001 2.90312e-10C14.6958 2.88201e-05 9.6087 2.10719 5.85794 5.85794C2.1072 9.60869 2.94443e-05 14.6958 0 20.0001L40 19.9999Z" fill="#E8B326"/>
</svg>
